<svg width="200" height="29" viewBox="0 0 200 29" fill="none" xmlns="http://www.w3.org/2000/svg">
<path d="M49.1574 15.4586H45.0226C44.9694 15.4586 44.9172 15.4745 44.8729 15.5044C44.8286 15.5342 44.794 15.5767 44.7737 15.6263L42.3956 21.4117C42.3853 21.4362 42.368 21.4572 42.3461 21.4719C42.3241 21.4867 42.2984 21.4946 42.2721 21.4947H40.376C40.3591 21.4949 40.3425 21.4909 40.3275 21.483C40.3126 21.4751 40.2999 21.4635 40.2905 21.4494C40.281 21.4352 40.2752 21.4189 40.2735 21.4019C40.2718 21.3848 40.2742 21.3676 40.2806 21.3517L46.0766 7.15035C46.1057 7.07949 46.1571 7.0194 46.2238 6.97831C46.2905 6.93722 46.3692 6.91715 46.4491 6.92084L47.8333 6.98439C47.8601 6.98548 47.8858 6.99376 47.9071 7.00819C47.9285 7.02263 47.9445 7.04259 47.9533 7.0656L53.7334 21.3729C53.7387 21.3859 53.7408 21.4001 53.7396 21.4141C53.7383 21.4281 53.7337 21.4415 53.7261 21.453C53.7186 21.4646 53.7084 21.474 53.6964 21.4804C53.6844 21.4867 53.671 21.4898 53.6575 21.4894L51.7614 21.4665C51.7354 21.4664 51.7099 21.4581 51.6882 21.4427C51.6664 21.4273 51.6495 21.4054 51.6396 21.3799L49.2774 15.5416C49.2676 15.5172 49.2509 15.4962 49.2295 15.4814C49.2081 15.4667 49.183 15.4587 49.1574 15.4586ZM47.0053 10.2046L45.5435 13.7726C45.5398 13.7821 45.5384 13.7924 45.5396 13.8026C45.5407 13.8128 45.5443 13.8226 45.55 13.831C45.5557 13.8395 45.5634 13.8465 45.5724 13.8514C45.5814 13.8563 45.5915 13.8589 45.6017 13.8591L48.4512 13.8485C48.4612 13.8484 48.471 13.8458 48.4798 13.841C48.4886 13.8362 48.4961 13.8293 48.5017 13.821C48.5073 13.8126 48.5107 13.8031 48.5118 13.7931C48.5128 13.7831 48.5114 13.7731 48.5077 13.7638L47.1218 10.2064C47.0841 10.1087 47.0453 10.1081 47.0053 10.2046Z" fill="white"/>
<path d="M64.9228 12.4147C66.3246 13.2527 67.1637 14.4109 67.4403 15.8891C67.5768 16.6224 67.5103 17.3556 67.2408 18.0889C67.0007 18.7433 66.607 19.3365 66.0597 19.8685C64.9604 20.9384 63.5816 21.478 61.9233 21.4874C60.2943 21.498 58.6795 21.4968 57.0788 21.4839C57.0659 21.4839 57.053 21.4813 57.041 21.4764C57.029 21.4714 57.0181 21.4641 57.0089 21.4549C56.9998 21.4457 56.9925 21.4348 56.9875 21.4228C56.9825 21.4109 56.98 21.398 56.98 21.385V7.06009C56.98 7.03714 56.9893 7.01514 57.0058 6.99892C57.0224 6.9827 57.0448 6.97358 57.0683 6.97358C58.7596 6.97123 60.4515 6.97182 62.1439 6.97535C63.2974 6.97652 64.2213 7.3455 64.9157 8.08229C65.4807 8.68019 65.7737 9.36401 65.7949 10.1337C65.8149 10.9317 65.5189 11.6562 64.9069 12.307C64.8997 12.3145 64.8944 12.3235 64.8913 12.3333C64.8882 12.3432 64.8874 12.3537 64.8889 12.364C64.8904 12.3744 64.8943 12.3843 64.9001 12.3931C64.906 12.4018 64.9137 12.4092 64.9228 12.4147ZM63.0408 8.85556C62.7619 8.66018 62.3893 8.56249 61.9233 8.56249C60.9817 8.56249 60.0448 8.56249 59.1127 8.56249C59.0855 8.56249 59.0595 8.57328 59.0402 8.59249C59.021 8.61169 59.0103 8.63773 59.0103 8.66489V11.5973C59.0103 11.6235 59.0207 11.6487 59.0392 11.6672C59.0578 11.6858 59.0829 11.6962 59.1091 11.6962C60.1319 11.6962 61.1141 11.7027 62.0557 11.7156C62.6642 11.7238 63.1232 11.5273 63.4327 11.1259C63.6975 10.7834 63.8041 10.3968 63.7523 9.96603C63.6981 9.51878 63.461 9.14862 63.0408 8.85556ZM59.0844 19.9162C59.9142 19.9691 60.7428 19.9732 61.5702 19.9285C62.3234 19.8873 62.9013 19.7879 63.3039 19.6301C63.8912 19.3995 64.3761 19.0387 64.7586 18.5479C65.2882 17.87 65.5101 17.1314 65.4242 16.3323C65.3441 15.5861 65.0346 14.9376 64.4955 14.3867C64.0836 13.9666 63.5904 13.6688 63.0161 13.4934C62.6595 13.384 62.101 13.3292 61.3407 13.3292C60.6321 13.3292 59.8871 13.3292 59.1056 13.3292C59.0691 13.3292 59.034 13.3436 59.0082 13.369C58.9824 13.3945 58.9679 13.4291 58.9679 13.4652L59.0103 19.8385C59.0102 19.8582 59.0179 19.8772 59.0317 19.8916C59.0454 19.906 59.0643 19.9148 59.0844 19.9162Z" fill="white"/>
<path d="M89.4364 21.4625C89.4265 21.4627 89.4168 21.4603 89.4082 21.4555C89.3996 21.4507 89.3922 21.4436 89.3868 21.4349C89.3814 21.4262 89.3781 21.4161 89.3772 21.4055C89.3763 21.395 89.3778 21.3842 89.3816 21.3743L95.2235 7.06522C95.2339 7.03984 95.2512 7.01816 95.2732 7.00304C95.2953 6.98791 95.3211 6.98005 95.3471 6.98049L96.9343 6.9999C96.9599 7.00038 96.985 7.009 97.0067 7.02469C97.0283 7.04037 97.0455 7.06244 97.0561 7.08818L102.822 21.3672C102.828 21.3811 102.83 21.3962 102.828 21.4112C102.827 21.4262 102.822 21.4406 102.813 21.4531C102.805 21.4657 102.793 21.476 102.779 21.4832C102.766 21.4904 102.751 21.4942 102.736 21.4943H100.855C100.824 21.4944 100.792 21.4849 100.766 21.4669C100.74 21.449 100.719 21.4235 100.707 21.3937L98.3802 15.5624C98.3703 15.5379 98.3534 15.5168 98.3317 15.5021C98.31 15.4873 98.2845 15.4794 98.2584 15.4794L94.1819 15.4476C94.1053 15.4472 94.0303 15.47 93.9664 15.5131C93.9025 15.5562 93.8528 15.6177 93.8235 15.6895L91.5249 21.3266C91.5057 21.3748 91.4734 21.4162 91.4321 21.4452C91.3908 21.4741 91.3425 21.4894 91.2936 21.489L89.4364 21.4625ZM97.5787 13.8711C97.5886 13.8712 97.5985 13.8689 97.6073 13.8643C97.6161 13.8598 97.6237 13.8531 97.6293 13.8448C97.6349 13.8366 97.6384 13.8271 97.6394 13.8172C97.6404 13.8073 97.639 13.7973 97.6352 13.7881L96.2034 10.2113C96.161 10.1053 96.1186 10.1048 96.0763 10.2095L94.6286 13.7651C94.6248 13.7742 94.6234 13.784 94.6243 13.7938C94.6252 13.8036 94.6285 13.813 94.6339 13.8211C94.6393 13.8293 94.6467 13.8361 94.6553 13.8408C94.6639 13.8455 94.6735 13.848 94.6833 13.8481L97.5787 13.8711Z" fill="white"/>
<path d="M112.391 15.4425C112.371 15.4459 112.352 15.4544 112.337 15.4674C112.321 15.4803 112.309 15.4971 112.302 15.5161C112.295 15.5351 112.293 15.5556 112.297 15.5756C112.3 15.5955 112.309 15.6142 112.322 15.6297L116.875 21.1432C116.946 21.2291 116.924 21.2715 116.81 21.2703L114.209 21.2474C114.166 21.2468 114.123 21.2376 114.086 21.2206C114.048 21.2035 114.015 21.1789 113.99 21.1485L109.481 15.6385C109.444 15.5915 109.394 15.5587 109.34 15.5449C109.002 15.459 108.662 15.4531 108.32 15.5273C108.295 15.5322 108.273 15.5456 108.257 15.5653C108.242 15.5849 108.233 15.6096 108.233 15.635V21.152C108.233 21.1636 108.231 21.1751 108.226 21.1858C108.222 21.1965 108.216 21.2063 108.207 21.2145C108.199 21.2227 108.189 21.2291 108.179 21.2336C108.168 21.238 108.157 21.2403 108.145 21.2403L106.161 21.2191C106.137 21.2191 106.114 21.2097 106.097 21.1929C106.081 21.176 106.071 21.1531 106.071 21.1291L106.026 7.07251C106.026 7.06092 106.029 7.04944 106.033 7.03873C106.038 7.02802 106.044 7.01829 106.052 7.01009C106.06 7.00189 106.07 6.99539 106.081 6.99095C106.092 6.98652 106.103 6.98424 106.115 6.98424C107.401 6.97482 108.688 6.9707 109.974 6.97188C111.491 6.97188 112.522 7.05603 113.067 7.22434C114.157 7.56213 115.01 8.23241 115.627 9.23519C116.167 10.1156 116.334 11.036 116.128 11.9964C115.942 12.8614 115.512 13.6124 114.836 14.2491C114.164 14.8823 113.349 15.2801 112.391 15.4425ZM108.302 13.384C109.547 13.4899 110.782 13.434 112.006 13.2163C112.45 13.1374 112.794 13.0168 113.039 12.8544C113.369 12.6366 113.619 12.353 113.787 12.0034C114.016 11.5315 114.029 11.0583 113.828 10.584C113.625 10.1038 113.261 9.73717 112.733 9.48412C112.252 9.25226 111.661 9.13633 110.959 9.13633C110.135 9.13633 109.273 9.13633 108.373 9.13633C108.333 9.13633 108.295 9.15214 108.267 9.18028C108.238 9.20843 108.223 9.24659 108.223 9.28639V13.2975C108.223 13.3193 108.231 13.3403 108.245 13.3563C108.26 13.3724 108.28 13.3822 108.302 13.384Z" fill="white"/>
<path d="M197.324 15.988L193.319 15.9792C193.284 15.9787 193.25 15.9643 193.224 15.9392C193.199 15.9141 193.185 15.8803 193.185 15.845V13.8588C193.185 13.8354 193.195 13.813 193.211 13.7964C193.228 13.7799 193.25 13.7706 193.274 13.7706H199.555C199.586 13.7706 199.617 13.783 199.639 13.8052C199.661 13.8274 199.673 13.8575 199.673 13.8889V21.3479C199.673 21.386 199.658 21.4226 199.632 21.4497C199.605 21.4768 199.568 21.4922 199.53 21.4927C198 21.5092 196.51 21.5056 195.058 21.4821C193.765 21.4609 192.792 21.3497 192.14 21.1484C191.122 20.8342 190.231 20.3204 189.467 19.6072C188.319 18.5361 187.602 17.2503 187.319 15.7496C187.097 14.5738 187.145 13.4075 187.462 12.2505C187.891 10.6804 188.788 9.39576 190.15 8.39651C191.017 7.76212 191.986 7.35371 193.058 7.17128C194.092 6.99474 195.113 7.04005 196.123 7.30723C197.6 7.69916 198.884 8.5248 199.975 9.78416C199.993 9.80449 200.001 9.83087 200 9.85782C199.998 9.88478 199.986 9.91025 199.966 9.92893L198.522 11.2795C198.509 11.292 198.494 11.3017 198.477 11.308C198.46 11.3144 198.442 11.3172 198.424 11.3164C198.406 11.3156 198.389 11.3111 198.373 11.3032C198.357 11.2954 198.343 11.2843 198.332 11.2707C197.504 10.2832 196.491 9.64881 195.293 9.36751C194.194 9.10976 193.098 9.2863 192.004 9.89715C190.507 10.7352 189.636 11.9822 189.39 13.6382C189.312 14.1607 189.331 14.6968 189.446 15.2465C189.553 15.7549 189.744 16.2469 190.018 16.7224C190.609 17.744 191.443 18.4802 192.52 18.931C193.035 19.1452 193.701 19.267 194.516 19.2964C195.432 19.3294 196.371 19.3247 197.332 19.2823C197.357 19.281 197.38 19.2703 197.396 19.2526C197.413 19.2349 197.422 19.2114 197.422 19.187L197.412 16.0745C197.412 16.0515 197.402 16.0295 197.386 16.0133C197.369 15.9971 197.347 15.988 197.324 15.988Z" fill="white"/>
<path d="M73.2771 10.2166L73.2347 21.3726C73.2343 21.3985 73.2244 21.4231 73.2072 21.4413C73.19 21.4594 73.167 21.4696 73.1429 21.4697L71.238 21.4591C71.2139 21.4586 71.191 21.4482 71.1742 21.43C71.1573 21.4119 71.1479 21.3874 71.1479 21.362V7.43075C71.1479 7.38236 71.1669 7.33593 71.2006 7.30154C71.2343 7.26716 71.2801 7.24761 71.328 7.24714L73.0988 7.24008C73.1701 7.23958 73.2407 7.25481 73.3057 7.28471C73.3707 7.3146 73.4284 7.35842 73.4748 7.4131L78.4128 13.2479C78.4204 13.2569 78.4299 13.2641 78.4406 13.269C78.4512 13.2739 78.4629 13.2765 78.4746 13.2765C78.4863 13.2765 78.498 13.2739 78.5086 13.269C78.5193 13.2641 78.5288 13.2569 78.5364 13.2479L83.4532 7.38838C83.4924 7.34138 83.5419 7.30357 83.598 7.27764C83.6542 7.25171 83.7156 7.23829 83.778 7.23832L85.6353 7.22949C85.6592 7.22949 85.6821 7.2386 85.699 7.25483C85.7158 7.27105 85.7253 7.29305 85.7253 7.316L85.7571 21.3761C85.7571 21.4075 85.7447 21.4376 85.7225 21.4597C85.7003 21.4819 85.6702 21.4944 85.6388 21.4944H83.7198C83.6865 21.4944 83.6546 21.4812 83.6311 21.4577C83.6076 21.4342 83.5944 21.4023 83.5944 21.369L83.6403 10.1407C83.6403 9.99243 83.5938 9.97536 83.5009 10.0895L78.5505 16.1609C78.5437 16.1693 78.535 16.176 78.5252 16.1806C78.5154 16.1852 78.5047 16.1876 78.4938 16.1876C78.4828 16.1876 78.472 16.1852 78.462 16.1806C78.4519 16.176 78.443 16.1693 78.4358 16.1609L73.4642 10.1478C73.3406 9.99832 73.2783 10.0213 73.2771 10.2166Z" fill="white"/>
<path d="M123.326 14.6797L123.351 21.3725C123.351 21.4048 123.338 21.4358 123.315 21.4587C123.292 21.4815 123.261 21.4944 123.229 21.4944H121.253C121.227 21.4944 121.202 21.4839 121.184 21.4654C121.165 21.4469 121.155 21.4217 121.155 21.3955V7.3548C121.155 7.3239 121.167 7.29426 121.189 7.27241C121.211 7.25056 121.24 7.23828 121.271 7.23828H123.218C123.245 7.23828 123.27 7.2487 123.288 7.26724C123.307 7.28578 123.317 7.31093 123.317 7.33715V13.9064C123.317 14.1477 123.388 14.1706 123.531 13.9753L128.283 7.42719C128.325 7.36867 128.381 7.32102 128.445 7.28817C128.508 7.25532 128.579 7.23821 128.651 7.23828H131.087C131.145 7.23828 131.156 7.26241 131.122 7.31067L126.198 14.1006C126.155 14.1606 126.131 14.233 126.131 14.3072C126.131 14.3814 126.155 14.4537 126.198 14.5137L131.124 21.3108C131.164 21.3661 131.151 21.3943 131.085 21.3955L128.601 21.4467C128.563 21.4473 128.524 21.4378 128.488 21.4191C128.452 21.4003 128.421 21.3728 128.396 21.339L123.503 14.6232C123.384 14.4608 123.325 14.4796 123.326 14.6797Z" fill="white"/>
<path d="M137.718 19.2769L144.956 19.3193C144.981 19.3193 145.004 19.3288 145.021 19.3457C145.038 19.3626 145.048 19.3855 145.048 19.4094L145.069 21.3937C145.069 21.4055 145.067 21.4173 145.062 21.4282C145.058 21.4391 145.051 21.449 145.042 21.4574C145.034 21.4658 145.024 21.4724 145.013 21.4769C145.002 21.4814 144.99 21.4838 144.978 21.4838L135.492 21.4944C135.467 21.4944 135.444 21.4847 135.427 21.4675C135.41 21.4503 135.4 21.4269 135.4 21.4025L135.41 7.3601C135.41 7.3441 135.414 7.32826 135.42 7.31348C135.426 7.2987 135.435 7.28527 135.446 7.27396C135.457 7.26265 135.471 7.25368 135.486 7.24755C135.5 7.24143 135.516 7.23828 135.532 7.23828H144.921C144.942 7.23828 144.962 7.24227 144.981 7.25002C145 7.25776 145.017 7.2691 145.032 7.28339C145.046 7.29767 145.057 7.31462 145.065 7.33324C145.073 7.35186 145.077 7.37179 145.076 7.39188L145.068 9.34624C145.067 9.36936 145.057 9.39137 145.04 9.40755C145.023 9.42372 145 9.43277 144.976 9.43274L137.716 9.4557C137.693 9.4557 137.67 9.46514 137.653 9.48197C137.636 9.49881 137.627 9.5217 137.626 9.54574L137.619 12.0033C137.619 12.0268 137.628 12.0497 137.644 12.0668C137.661 12.084 137.683 12.0941 137.707 12.0951C139.563 12.161 141.43 12.1645 143.307 12.1057C143.331 12.1048 143.354 12.1139 143.372 12.1311C143.39 12.1483 143.4 12.1722 143.401 12.1975L143.459 14.1094C143.46 14.1345 143.456 14.1594 143.447 14.1827C143.438 14.2061 143.425 14.2273 143.408 14.2453C143.392 14.2632 143.372 14.2775 143.349 14.2872C143.327 14.2969 143.303 14.3019 143.279 14.3019L137.741 14.3319C137.729 14.3319 137.717 14.3342 137.706 14.3386C137.695 14.343 137.685 14.3495 137.676 14.3577C137.667 14.3659 137.661 14.3757 137.656 14.3864C137.651 14.3971 137.649 14.4086 137.649 14.4202L137.626 19.1887C137.626 19.2118 137.636 19.234 137.653 19.2505C137.67 19.267 137.693 19.2765 137.718 19.2769Z" fill="white"/>
<path d="M153.893 9.4557L149.068 9.39744C149.028 9.39697 148.989 9.3804 148.961 9.35131C148.932 9.32223 148.916 9.28298 148.916 9.24208V7.33715C148.916 7.31093 148.927 7.28578 148.945 7.26724C148.964 7.2487 148.989 7.23828 149.015 7.23828L161.264 7.24887C161.275 7.24887 161.287 7.25116 161.298 7.25559C161.308 7.26003 161.318 7.26653 161.326 7.27473C161.334 7.28293 161.341 7.29266 161.345 7.30337C161.35 7.31408 161.352 7.32555 161.352 7.33715L161.373 9.32329C161.373 9.34717 161.364 9.37007 161.347 9.38695C161.33 9.40384 161.307 9.41333 161.283 9.41333L156.342 9.4557C156.318 9.45616 156.296 9.46566 156.279 9.48217C156.263 9.49867 156.254 9.52086 156.254 9.54397V21.3743C156.254 21.3987 156.244 21.422 156.228 21.4392C156.211 21.4564 156.189 21.4661 156.165 21.4661L154.146 21.4908C154.127 21.4911 154.108 21.4874 154.091 21.48C154.073 21.4727 154.057 21.4618 154.044 21.4479C154.031 21.4341 154.02 21.4177 154.013 21.3996C154.006 21.3815 154.002 21.3621 154.003 21.3425C154.068 17.4044 154.062 13.4709 153.983 9.5422C153.983 9.51939 153.973 9.49764 153.956 9.48151C153.939 9.46538 153.917 9.45613 153.893 9.4557Z" fill="white"/>
<path d="M167.371 7.24023H165.291C165.266 7.24023 165.245 7.26078 165.245 7.28613V21.4486C165.245 21.474 165.266 21.4945 165.291 21.4945H167.371C167.396 21.4945 167.417 21.474 167.417 21.4486V7.28613C167.417 7.26078 167.396 7.24023 167.371 7.24023Z" fill="white"/>
<path d="M174.549 11.0711C174.438 10.8981 174.383 10.9146 174.383 11.1205V21.3761C174.383 21.4074 174.371 21.4375 174.348 21.4597C174.326 21.4819 174.296 21.4944 174.265 21.4944H172.355C172.337 21.4944 172.319 21.4908 172.303 21.4839C172.286 21.477 172.271 21.4669 172.259 21.4542C172.247 21.4415 172.237 21.4265 172.231 21.41C172.224 21.3936 172.221 21.376 172.222 21.3584C172.267 19.846 172.276 18.3171 172.25 16.7718C172.195 13.6422 172.196 10.4967 172.254 7.33538C172.254 7.30947 172.265 7.28477 172.283 7.26661C172.302 7.24845 172.327 7.23828 172.353 7.23828H174.344C174.373 7.23822 174.401 7.24528 174.426 7.25884C174.452 7.2724 174.473 7.29203 174.489 7.31596L181.039 17.0489C181.133 17.1902 181.181 17.176 181.182 17.0066L181.224 7.33538C181.224 7.30963 181.234 7.28493 181.253 7.26672C181.271 7.24851 181.296 7.23828 181.321 7.23828H183.233C183.274 7.23828 183.313 7.25446 183.342 7.28327C183.371 7.31207 183.387 7.35114 183.387 7.39188V21.3955C183.387 21.4217 183.376 21.4469 183.358 21.4654C183.339 21.4839 183.314 21.4944 183.288 21.4944H181.319C181.288 21.4944 181.256 21.4865 181.228 21.4714C181.2 21.4563 181.176 21.4344 181.159 21.4079L174.549 11.0711Z" fill="white"/>
<path fill-rule="evenodd" clip-rule="evenodd" d="M16.3474 0L14.1237 3.78634L25.9034 24.4009H2.22373L0 28.2473H32.5746L16.3474 0ZM11.96 7.4526L14.2439 11.299L10.9984 16.8884H17.4292L19.6529 20.7348H4.26714L11.96 7.4526Z" fill="white"/>
</svg>
