<svg width="200" height="67" viewBox="0 0 200 67" fill="none" xmlns="http://www.w3.org/2000/svg">
<g clip-path="url(#clip0_247_1974)">
<path d="M48.7622 24.5268L47.6511 22.5757C47.5639 22.4228 47.4426 22.2921 47.2966 22.1938C47.1507 22.0955 46.9839 22.0323 46.8095 22.009C46.635 21.9858 46.4575 22.0032 46.2909 22.0599C46.1243 22.1165 45.973 22.2109 45.8489 22.3357L43.2933 24.8891C43.1065 25.0768 42.9902 25.3234 42.9643 25.587C42.9384 25.8507 43.0044 26.1152 43.1511 26.3357C44.0829 27.7597 44.8297 29.2965 45.3733 30.9091C46.389 33.9236 46.6726 37.1365 46.2007 40.2823C45.7289 43.4282 44.5151 46.4165 42.6597 49.0004C40.8043 51.5843 38.3606 53.6894 35.5306 55.1419C32.7005 56.5944 29.5654 57.3525 26.3844 57.3535C23.1097 57.3625 19.8836 56.5617 16.9933 55.0224L21.3155 50.6979C23.9938 51.711 26.9144 51.8974 29.6997 51.233C32.4851 50.5687 35.0071 49.0843 36.9399 46.9715C38.8727 44.8588 40.1274 42.2149 40.5418 39.3815C40.9562 36.5482 40.5112 33.6557 39.2644 31.0779C39.1853 30.9129 39.0677 30.7692 38.9215 30.659C38.7753 30.5488 38.6049 30.4753 38.4244 30.4446C38.2439 30.4139 38.0587 30.4269 37.8843 30.4826C37.71 30.5383 37.5515 30.635 37.4222 30.7646L34.8355 33.3335C34.6976 33.4712 34.5972 33.642 34.5439 33.8294C34.4907 34.0169 34.4862 34.2149 34.5311 34.4046L34.7533 35.3335C35.1357 36.9607 35.0347 38.6641 34.4628 40.2346C33.8909 41.8052 32.8729 43.1747 31.5338 44.175C30.1947 45.1753 28.5926 45.7628 26.9243 45.8656C25.256 45.9684 23.594 45.5819 22.1422 44.7535L21.0022 44.1002C20.7843 43.9747 20.5311 43.9247 20.2819 43.9581C20.0328 43.9915 19.8016 44.1063 19.6244 44.2846L9.06664 54.8402C8.95139 54.9554 8.86209 55.094 8.80471 55.2465C8.74733 55.3991 8.7232 55.5621 8.73393 55.7248C8.74466 55.8874 8.79 56.0458 8.86693 56.1895C8.94385 56.3332 9.05058 56.4588 9.17997 56.5579L10.7355 57.7513C15.2215 61.2083 20.7298 63.0752 26.3933 63.0579C30.9022 63.0522 35.3307 61.8638 39.2368 59.6115C43.1429 57.3593 46.3898 54.1218 48.6536 50.2224C50.9174 46.323 52.1188 41.898 52.1378 37.3891C52.1569 32.8802 50.9929 28.4453 48.7622 24.5268Z" fill="url(#paint0_linear_247_1974)"/>
<path d="M42.0466 16.849C37.5612 13.3908 32.0526 11.5231 26.3888 11.5402C21.8778 11.5437 17.4466 12.7309 13.538 14.9833C9.6295 17.2357 6.38048 20.4743 4.11559 24.3756C1.8507 28.2769 0.64926 32.7043 0.631308 37.2153C0.613356 41.7264 1.77952 46.1632 4.01329 50.0824L5.1244 52.0313C5.21191 52.184 5.33341 52.3146 5.4795 52.4128C5.62559 52.5111 5.79234 52.5744 5.96683 52.5978C6.14132 52.6212 6.31885 52.6041 6.48568 52.5479C6.65251 52.4917 6.80415 52.3978 6.92884 52.2735L9.47996 49.7224C9.66551 49.5343 9.78088 49.2883 9.80677 49.0253C9.83266 48.7624 9.7675 48.4986 9.62218 48.2779C8.68948 46.8545 7.94268 45.3176 7.39996 43.7046C6.38429 40.6901 6.10066 37.4771 6.57251 34.3313C7.04437 31.1855 8.25816 28.1971 10.1135 25.6133C11.9689 23.0294 14.4126 20.9242 17.2427 19.4717C20.0727 18.0192 23.2078 17.2612 26.3888 17.2602C29.6634 17.2527 32.889 18.0559 35.7777 19.5979L31.4533 23.9202C29.287 23.0991 26.9538 22.8164 24.6541 23.0961C22.3544 23.3759 20.157 24.2099 18.2508 25.5264C16.3445 26.8429 14.7865 28.6026 13.7104 30.6542C12.6344 32.7058 12.0726 34.9879 12.0733 37.3046C12.0733 37.5424 12.1377 38.6268 12.1577 38.8135C12.333 40.4547 12.7893 42.0536 13.5066 43.5402C13.5861 43.7052 13.7039 43.8489 13.8502 43.9591C13.9966 44.0693 14.1672 44.1428 14.3479 44.1735C14.5285 44.2042 14.7138 44.1911 14.8884 44.1354C15.0629 44.0798 15.2216 43.9831 15.3511 43.8535L17.9377 41.2646C18.0755 41.1272 18.176 40.9569 18.2296 40.7699C18.2833 40.5829 18.2884 40.3853 18.2444 40.1957L18.0222 39.2646C17.6393 37.6374 17.7399 35.9338 18.3117 34.363C18.8836 32.7922 19.9017 31.4226 21.2411 30.4224C22.5804 29.4222 24.1827 28.8349 25.8513 28.7326C27.5198 28.6304 29.1818 29.0176 30.6333 29.8468L31.7733 30.5002C31.9915 30.6245 32.2444 30.6738 32.4933 30.6405C32.7422 30.6072 32.9733 30.4931 33.1511 30.3157L43.7066 19.7602C43.822 19.6449 43.9115 19.5063 43.9691 19.3536C44.0267 19.201 44.051 19.0378 44.0405 18.875C44.03 18.7122 43.9849 18.5535 43.9081 18.4095C43.8314 18.2656 43.7248 18.1396 43.5955 18.0402L42.0466 16.849Z" fill="url(#paint1_linear_247_1974)"/>
<path d="M85.4399 44.4091C85.2474 44.2528 85.0055 44.17 84.7575 44.1757C84.5096 44.1814 84.2718 44.2752 84.0866 44.4402C82.4311 45.7247 80.5111 46.9136 77.7044 46.9136C72.5666 46.9136 68.3866 42.5869 68.3866 37.2647C68.3866 31.9424 72.5511 27.578 77.6666 27.578C79.8888 27.578 82.2888 28.5136 84.0533 30.0624C84.1527 30.1778 84.2764 30.2699 84.4154 30.3321C84.5544 30.3943 84.7054 30.4252 84.8577 30.4224C84.9897 30.412 85.1178 30.3727 85.2329 30.3075C85.3481 30.2422 85.4476 30.1525 85.5244 30.0447L87.1955 28.3247C87.3019 28.2218 87.3858 28.098 87.442 27.961C87.4982 27.8241 87.5255 27.6771 87.5222 27.5291C87.5159 27.3788 87.4787 27.2313 87.413 27.096C87.3472 26.9606 87.2543 26.8403 87.1399 26.7424C84.2222 24.2002 81.2911 23.0669 77.6266 23.0669C69.8044 23.0669 63.4399 29.4713 63.4399 37.3424C63.4429 41.1051 64.9381 44.713 67.5977 47.3746C70.2573 50.0363 73.864 51.5343 77.6266 51.5402C79.3942 51.5611 81.1484 51.2322 82.7884 50.5724C84.4283 49.9126 85.9216 48.935 87.1822 47.6958C87.2928 47.583 87.3797 47.4492 87.4377 47.3022C87.4957 47.1553 87.5237 46.9982 87.5199 46.8402C87.517 46.7145 87.4887 46.5907 87.4367 46.4761C87.3848 46.3616 87.3103 46.2587 87.2177 46.1736L85.4399 44.4091Z" fill="white"/>
<path d="M97.6023 23.4536H95.0711C94.7887 23.4631 94.5205 23.5798 94.3211 23.78C94.1217 23.9803 94.0061 24.2489 93.9978 24.5314V50.0869C94.0056 50.3698 94.1209 50.639 94.3204 50.8397C94.5198 51.0404 94.7884 51.1574 95.0711 51.1669H97.6023C97.885 51.1574 98.1535 51.0404 98.353 50.8397C98.5524 50.639 98.6678 50.3698 98.6756 50.0869V24.5314C98.6673 24.2489 98.5517 23.9803 98.3523 23.78C98.1529 23.5798 97.8847 23.4631 97.6023 23.4536Z" fill="white"/>
<path d="M127.555 32.0558C127.555 27.3136 123.651 23.4536 118.851 23.4536H108.413C108.128 23.4548 107.855 23.5689 107.654 23.7709C107.453 23.9728 107.34 24.2463 107.34 24.5314V50.0869C107.339 50.3724 107.452 50.6464 107.653 50.8489C107.854 51.0514 108.128 51.1658 108.413 51.1669H110.907C111.189 51.1574 111.458 51.0404 111.657 50.8397C111.857 50.639 111.972 50.3698 111.98 50.0869V40.5825H117.211L122.222 50.6158C122.313 50.7802 122.447 50.9171 122.609 51.0121C122.771 51.1071 122.956 51.1567 123.144 51.1558H126.135C126.324 51.1621 126.512 51.1183 126.678 51.029C126.845 50.9396 126.985 50.8078 127.084 50.6469C127.179 50.4771 127.228 50.2858 127.228 50.0914C127.228 49.8969 127.179 49.7057 127.084 49.5358L122 40.0603C125.435 38.5336 127.555 35.4981 127.555 32.0558ZM122.878 32.1336C122.878 34.5403 120.893 36.5781 118.544 36.5781H112.058V27.8869H118.535C120.889 27.8869 122.869 29.8314 122.869 32.1336H122.878Z" fill="white"/>
<path d="M154.798 44.4091C154.605 44.2528 154.363 44.17 154.115 44.1757C153.867 44.1814 153.63 44.2752 153.444 44.4402C151.789 45.7247 149.869 46.9136 147.062 46.9136C141.924 46.9136 137.744 42.5869 137.744 37.2647C137.744 31.9424 141.907 27.578 147.022 27.578C149.244 27.578 151.644 28.5136 153.411 30.0624C153.511 30.1789 153.636 30.2717 153.776 30.334C153.916 30.3962 154.069 30.4265 154.222 30.4224C154.354 30.412 154.482 30.3727 154.597 30.3075C154.713 30.2422 154.812 30.1525 154.889 30.0447L156.56 28.3247C156.666 28.2216 156.75 28.0978 156.805 27.9608C156.861 27.8239 156.888 27.6769 156.884 27.5291C156.879 27.3788 156.843 27.2313 156.777 27.0958C156.712 26.9604 156.619 26.8401 156.504 26.7424C153.593 24.2002 150.662 23.0669 146.998 23.0669C139.175 23.0669 132.811 29.4713 132.811 37.3424C132.814 41.1051 134.309 44.713 136.969 47.3746C139.628 50.0363 143.235 51.5343 146.998 51.5402C148.765 51.5609 150.519 51.2319 152.159 50.5721C153.799 49.9123 155.293 48.9348 156.553 47.6958C156.664 47.5826 156.751 47.4484 156.809 47.3011C156.867 47.1538 156.895 46.9963 156.891 46.838C156.888 46.7123 156.86 46.5884 156.808 46.4738C156.756 46.3592 156.682 46.2564 156.589 46.1713L154.798 44.4091Z" fill="white"/>
<path d="M178.078 46.8758H168.033V24.5314C168.025 24.2489 167.909 23.9803 167.71 23.78C167.511 23.5798 167.242 23.4631 166.96 23.4536H164.429C164.144 23.4548 163.871 23.5689 163.67 23.7709C163.468 23.9728 163.355 24.2463 163.355 24.5314V50.0869C163.355 50.3724 163.468 50.6464 163.669 50.8489C163.87 51.0514 164.143 51.1658 164.429 51.1669H178.078C178.219 51.1667 178.359 51.1385 178.49 51.0841C178.621 51.0296 178.739 50.95 178.839 50.8497C178.939 50.7494 179.018 50.6304 179.072 50.4996C179.126 50.3687 179.154 50.2285 179.153 50.0869V47.9647C179.155 47.8224 179.128 47.6813 179.075 47.5494C179.021 47.4175 178.942 47.2974 178.842 47.1962C178.742 47.095 178.623 47.0146 178.492 46.9596C178.361 46.9046 178.22 46.8761 178.078 46.8758Z" fill="white"/>
<path d="M200.816 27.7782C201.101 27.7771 201.374 27.663 201.575 27.461C201.776 27.259 201.889 26.9855 201.889 26.7004V24.5382C201.889 24.2532 201.776 23.9797 201.575 23.7777C201.374 23.5757 201.101 23.4616 200.816 23.4604H185.482C185.197 23.4616 184.924 23.5757 184.723 23.7777C184.522 23.9797 184.409 24.2532 184.409 24.5382V50.0938C184.408 50.3792 184.521 50.6533 184.722 50.8558C184.923 51.0582 185.197 51.1726 185.482 51.1738H200.816C201.101 51.1726 201.374 51.0582 201.576 50.8558C201.777 50.6533 201.89 50.3792 201.889 50.0938V47.9716C201.889 47.6865 201.776 47.413 201.575 47.211C201.374 47.009 201.101 46.895 200.816 46.8938H189.038V39.2693H198.929C199.214 39.2688 199.488 39.1549 199.69 38.9529C199.891 38.7508 200.004 38.477 200.004 38.1916V36.0316C199.997 35.7483 199.881 35.4788 199.681 35.2781C199.481 35.0773 199.212 34.9605 198.929 34.9516H189.044V27.7782H200.816Z" fill="white"/>
</g>
<defs>
<linearGradient id="paint0_linear_247_1974" x1="17.3022" y1="64.7068" x2="53.5689" y2="28.4402" gradientUnits="userSpaceOnUse">
<stop stop-color="#B090F5"/>
<stop offset="1" stop-color="#5FBFFF"/>
</linearGradient>
<linearGradient id="paint1_linear_247_1974" x1="-0.793378" y1="46.1668" x2="35.4755" y2="9.90016" gradientUnits="userSpaceOnUse">
<stop stop-color="#68D7FA"/>
<stop offset="1" stop-color="#4EE498"/>
</linearGradient>
<clipPath id="clip0_247_1974">
<rect width="200" height="66.6667" fill="white"/>
</clipPath>
</defs>
</svg>
