<svg width="200" height="11" viewBox="0 0 200 11" fill="none" xmlns="http://www.w3.org/2000/svg">
<path d="M2.3396 2.12691V4.32471H6.16803V6.16803H2.3396V9.92556H0V0.21269H7.16058V2.12691H2.3396ZM22.3325 8.01134V9.92556H15.9518V0.21269H18.2914V8.01134H22.3325ZM31.8327 8.50762C31.1237 7.51507 30.7692 6.23892 30.7692 5.03368C30.7692 2.48139 32.1163 0.0708968 35.0939 0.0708968C36.441 0.0708968 37.5044 0.496278 38.2843 1.55973C38.9933 2.48139 39.3477 3.89933 39.3477 5.03368C39.3477 6.16803 39.0642 7.51507 38.4261 8.36583C37.6462 9.50018 36.441 9.99646 35.0939 9.99646C33.7469 10.0674 32.6125 9.57107 31.8327 8.50762ZM33.5342 3.04856C33.3215 3.61574 33.2506 4.4665 33.2506 5.03368C33.2506 6.23892 33.4633 8.15314 35.0939 8.15314C35.8738 8.15314 36.2992 7.79865 36.5828 7.01879C36.7955 6.52251 36.8664 5.67175 36.8664 5.03368C36.8664 4.32471 36.7955 3.47395 36.5119 2.83587C36.2283 2.1978 35.8029 1.91421 35.0939 1.91421C34.2432 1.91421 33.8178 2.3396 33.5342 3.04856ZM59.766 9.92556H57.4264L55.7958 3.54484L54.2361 9.92556H51.9674L49.3442 0.21269H51.7547L53.3144 6.7352L54.9451 0.21269H57.072L58.7735 6.7352L58.8444 6.30982L60.3332 0.21269H62.2474L59.766 9.92556ZM100.532 9.92556H99.2556V1.27614H96.4197V0.21269H103.368V1.27614H100.532V9.92556ZM117.831 9.92556L115.987 5.74264H113.222V9.92556H111.946V0.21269H115.704C116.554 0.21269 117.334 0.283587 117.972 0.779865C118.61 1.27614 119.036 2.05601 119.036 2.90677C119.036 4.04112 118.327 5.10457 117.192 5.38816L119.178 9.85466H117.831V9.92556ZM115.562 4.75009C116.2 4.75009 116.767 4.67919 117.263 4.18291C117.618 3.82843 117.76 3.40305 117.76 2.90677C117.76 2.3396 117.547 1.84332 117.051 1.55973C116.625 1.27614 116.2 1.27614 115.633 1.27614H113.151V4.75009H115.562ZM135.484 9.92556H134.208L133.215 7.08968H129.529L128.607 9.92556H127.543L130.805 0.21269H132.223L135.484 9.92556ZM131.372 1.48883L129.812 6.16803H132.861L131.372 1.48883ZM144.842 0.21269H148.033C149.451 0.21269 150.514 0.496278 151.507 1.55973C152.357 2.55229 152.712 3.75753 152.712 5.03368C152.712 6.23892 152.357 7.37327 151.648 8.36583C150.868 9.42928 149.805 9.92556 148.458 9.92556H144.913V0.21269H144.842ZM147.962 8.86211C149.096 8.86211 150.018 8.57852 150.727 7.65686C151.223 6.94789 151.436 5.95533 151.436 5.03368C151.436 4.04112 151.152 2.97767 150.514 2.1978C149.805 1.34704 149.025 1.20525 147.962 1.20525H146.118V8.86211H147.962ZM168.734 9.92556H162.283V0.21269H168.593V1.27614H163.488V4.32471H167.529V5.31726H163.488V8.86211H168.734V9.92556ZM183.694 9.92556L181.85 5.74264H179.085V9.92556H177.809V0.21269H181.567C182.418 0.21269 183.197 0.283587 183.836 0.779865C184.474 1.27614 184.899 2.05601 184.899 2.90677C184.899 4.04112 184.19 5.10457 183.056 5.38816L185.041 9.85466H183.694V9.92556ZM181.425 4.75009C182.063 4.75009 182.63 4.67919 183.127 4.18291C183.481 3.82843 183.623 3.40305 183.623 2.90677C183.623 2.3396 183.41 1.84332 182.914 1.55973C182.488 1.27614 182.063 1.27614 181.496 1.27614H179.015V4.75009H181.425ZM193.265 7.01879C193.69 8.36583 194.825 9.0039 196.242 9.0039C196.81 9.0039 197.59 8.86211 198.015 8.50762C198.369 8.22403 198.653 7.72776 198.653 7.23148C198.653 6.23892 197.802 5.88444 196.951 5.67175L195.321 5.24637C194.683 5.10457 194.045 4.96278 193.477 4.4665C192.981 4.04112 192.698 3.33215 192.698 2.69408C192.698 0.850762 194.328 0 196.101 0C197.802 0 199.149 0.779865 199.646 2.3396L198.511 2.62318C198.298 1.55973 197.093 0.921659 196.03 0.921659C195.108 0.921659 193.903 1.41794 193.903 2.48139C193.903 3.54484 194.754 3.82843 195.746 4.04112L197.235 4.3956C197.873 4.5374 198.582 4.75009 199.078 5.17547C199.716 5.67175 200 6.30982 200 7.08968C200 7.94045 199.575 8.79121 198.866 9.28749C198.157 9.85466 197.164 9.99646 196.242 9.99646C194.186 9.99646 192.839 9.14569 192.201 7.23148L193.265 7.01879Z" fill="white"/>
<path fill-rule="evenodd" clip-rule="evenodd" d="M84.3672 9.99636H74.4417V0.0708008H84.3672V9.99636Z" fill="#E92126"/>
</svg>
