<svg width="200" height="31" viewBox="0 0 200 31" fill="none" xmlns="http://www.w3.org/2000/svg">
<g clip-path="url(#clip0_247_2029)">
<path d="M24.1437 8.18783H25.2487L28.3978 5.03865L28.5525 3.70164C26.7485 2.10932 24.5683 1.0032 22.2179 0.48775C19.8675 -0.0276978 17.4245 0.0645498 15.1197 0.755778C12.8148 1.44701 10.7243 2.7144 9.04543 4.43822C7.3666 6.16205 6.15494 8.28541 5.5249 10.6077C5.87573 10.4639 6.26437 10.4406 6.62987 10.5414L12.9282 9.50274C12.9282 9.50274 13.2487 8.97235 13.4144 9.0055C14.7639 7.52337 16.629 6.61313 18.6277 6.46112C20.6264 6.30911 22.6076 6.92683 24.1658 8.18783H24.1437Z" fill="#EA4335"/>
<path d="M32.884 10.6079C32.1602 7.94232 30.674 5.54598 28.6078 3.71289L24.1879 8.13278C25.109 8.88545 25.8472 9.83746 26.3468 10.917C26.8464 11.9966 27.0943 13.1755 27.0719 14.3648V15.1494C27.5884 15.1494 28.1 15.2511 28.5772 15.4488C29.0545 15.6465 29.4881 15.9362 29.8534 16.3015C30.2187 16.6668 30.5084 17.1004 30.7061 17.5777C30.9038 18.055 31.0056 18.5665 31.0056 19.0831C31.0056 19.5996 30.9038 20.1112 30.7061 20.5884C30.5084 21.0657 30.2187 21.4993 29.8534 21.8646C29.4881 22.2299 29.0545 22.5196 28.5772 22.7173C28.1 22.915 27.5884 23.0168 27.0719 23.0168H19.2045L18.4199 23.8123V28.5306L19.2045 29.3151H27.0719C29.2688 29.3322 31.4129 28.6417 33.187 27.3458C34.9611 26.0499 36.271 24.2173 36.9228 22.1192C37.5747 20.0211 37.5339 17.769 36.8065 15.6958C36.0792 13.6227 34.7038 11.8388 32.884 10.6079Z" fill="#4285F4"/>
<path d="M11.326 29.2706H19.1934V22.9722H11.326C10.7654 22.9721 10.2115 22.8515 9.70166 22.6187L8.59668 22.9612L5.42541 26.1104L5.14917 27.2153C6.92755 28.5582 9.09754 29.2803 11.326 29.2706Z" fill="#34A853"/>
<path d="M11.326 8.83991C9.19426 8.85264 7.11978 9.53085 5.39224 10.7798C3.66471 12.0288 2.3704 13.7861 1.69008 15.8063C1.00977 17.8266 0.977424 20.0089 1.59757 22.0484C2.21772 24.0879 3.45939 25.8829 5.14916 27.1825L9.71269 22.6189C9.13276 22.3569 8.62506 21.9581 8.23314 21.4567C7.84122 20.9554 7.57678 20.3664 7.46252 19.7404C7.34826 19.1144 7.38759 18.4699 7.57713 17.8625C7.76668 17.255 8.10077 16.7025 8.55075 16.2526C9.00074 15.8026 9.55317 15.4685 10.1607 15.2789C10.7681 15.0894 11.4126 15.0501 12.0386 15.1643C12.6646 15.2786 13.2536 15.543 13.7549 15.9349C14.2563 16.3269 14.6551 16.8346 14.9171 17.4145L19.4806 12.851C18.5228 11.5988 17.2883 10.5851 15.8736 9.88927C14.4589 9.19344 12.9025 8.83429 11.326 8.83991Z" fill="#FBBC05"/>
<path d="M58.3314 24.8729C56.9769 24.8901 55.6328 24.6338 54.3797 24.1192C53.1265 23.6047 51.9901 22.8425 51.0386 21.8784C50.0571 20.9551 49.2781 19.838 48.7512 18.5978C48.2243 17.3575 47.961 16.0214 47.9778 14.674C47.9616 13.3267 48.2253 11.9907 48.7522 10.7506C49.279 9.51044 50.0576 8.39319 51.0386 7.46954C51.9855 6.49539 53.1198 5.723 54.3731 5.19887C55.6265 4.67474 56.9729 4.40974 58.3314 4.41981C59.6258 4.40256 60.9107 4.64278 62.1115 5.12649C63.3123 5.61021 64.4049 6.32778 65.3259 7.23749L63.359 9.23749C62.0121 7.93578 60.2044 7.22063 58.3314 7.24854C57.3598 7.23661 56.3964 7.42692 55.5023 7.80737C54.6083 8.18783 53.8031 8.75011 53.138 9.45849C52.4468 10.1442 51.9016 10.9627 51.5351 11.8647C51.1686 12.7668 50.9884 13.7336 51.0054 14.7071C50.9973 15.6695 51.1818 16.6238 51.5481 17.5138C51.9143 18.4038 52.4549 19.2115 53.138 19.8894C54.5064 21.2531 56.3529 22.0288 58.2846 22.0515C60.2163 22.0742 62.0806 21.3421 63.4806 20.011C64.3473 19.0618 64.8791 17.8547 64.9944 16.5745H58.3646V13.7458H67.7458C67.838 14.3155 67.875 14.8927 67.8563 15.4695C67.9146 16.6634 67.7302 17.8566 67.3143 18.9772C66.8984 20.0977 66.2595 21.1222 65.4364 21.9889C64.5212 22.9417 63.4154 23.6911 62.1912 24.188C60.967 24.6849 59.6518 24.9183 58.3314 24.8729ZM80.1436 22.9944C78.8846 24.2012 77.208 24.875 75.464 24.875C73.72 24.875 72.0434 24.2012 70.7844 22.9944C70.1578 22.3868 69.6643 21.6556 69.3352 20.8472C69.0061 20.0388 68.8487 19.1708 68.8728 18.2983C68.8494 17.4259 69.0071 16.5581 69.3362 15.7497C69.6652 14.9414 70.1583 14.2101 70.7844 13.6021C72.0447 12.3978 73.7208 11.7258 75.464 11.7258C77.2072 11.7258 78.8833 12.3978 80.1436 13.6021C80.7697 14.2101 81.2628 14.9414 81.5918 15.7497C81.9209 16.5581 82.0786 17.4259 82.0552 18.2983C82.0779 19.1716 81.9187 20.0401 81.5877 20.8485C81.2567 21.657 80.7611 22.3878 80.1325 22.9944H80.1436ZM72.8507 21.1491C73.1856 21.5067 73.5903 21.7918 74.0398 21.9867C74.4893 22.1816 74.9741 22.2822 75.464 22.2822C75.9539 22.2822 76.4387 22.1816 76.8882 21.9867C77.3377 21.7918 77.7424 21.5067 78.0773 21.1491C78.4424 20.7717 78.7283 20.325 78.9181 19.8354C79.1078 19.3458 79.1977 18.8231 79.1822 18.2983C79.1985 17.7716 79.1091 17.247 78.9193 16.7555C78.7296 16.264 78.4432 15.8154 78.0773 15.4364C77.738 15.0824 77.3305 14.8008 76.8795 14.6084C76.4285 14.4159 75.9433 14.3167 75.453 14.3167C74.9626 14.3167 74.4774 14.4159 74.0264 14.6084C73.5754 14.8008 73.168 15.0824 72.8286 15.4364C72.4627 15.8154 72.1763 16.264 71.9866 16.7555C71.7968 17.247 71.7074 17.7716 71.7237 18.2983C71.7097 18.8239 71.8013 19.347 71.993 19.8367C72.1847 20.3264 72.4726 20.7726 72.8397 21.1491H72.8507ZM94.5303 22.9944C93.2713 24.2012 91.5947 24.875 89.8507 24.875C88.1067 24.875 86.4302 24.2012 85.1712 22.9944C84.5445 22.3868 84.051 21.6556 83.722 20.8472C83.3929 20.0388 83.2354 19.1708 83.2596 18.2983C83.2361 17.4259 83.3939 16.5581 83.7229 15.7497C84.0519 14.9414 84.5451 14.2101 85.1712 13.6021C86.4302 12.3953 88.1067 11.7215 89.8507 11.7215C91.5947 11.7215 93.2713 12.3953 94.5303 13.6021C95.1564 14.2101 95.6496 14.9414 95.9786 15.7497C96.3076 16.5581 96.4654 17.4259 96.4419 18.2983C96.4661 19.1708 96.3086 20.0388 95.9795 20.8472C95.6504 21.6556 95.1569 22.3868 94.5303 22.9944ZM87.2375 21.1491C87.5724 21.5067 87.9771 21.7918 88.4266 21.9867C88.8761 22.1816 89.3608 22.2822 89.8507 22.2822C90.3407 22.2822 90.8254 22.1816 91.2749 21.9867C91.7244 21.7918 92.1291 21.5067 92.464 21.1491C92.8291 20.7717 93.115 20.325 93.3048 19.8354C93.4946 19.3458 93.5844 18.8231 93.569 18.2983C93.5853 17.7716 93.4959 17.247 93.3061 16.7555C93.1163 16.264 92.83 15.8154 92.464 15.4364C92.1247 15.0824 91.7173 14.8008 91.2663 14.6084C90.8153 14.4159 90.33 14.3167 89.8397 14.3167C89.3494 14.3167 88.8641 14.4159 88.4131 14.6084C87.9621 14.8008 87.5547 15.0824 87.2154 15.4364C86.8494 15.8154 86.5631 16.264 86.3733 16.7555C86.1835 17.247 86.0941 17.7716 86.1104 18.2983C86.0964 18.8239 86.188 19.347 86.3797 19.8367C86.5714 20.3264 86.8593 20.7726 87.2264 21.1491H87.2375ZM103.989 30.7734C102.664 30.8155 101.366 30.4021 100.309 29.6021C99.3714 28.897 98.6327 27.9604 98.1657 26.8839L100.685 25.8342C100.959 26.4775 101.388 27.0431 101.934 27.4806C102.518 27.9513 103.25 28.1981 104 28.1767C104.475 28.2056 104.951 28.1318 105.396 27.9602C105.84 27.7886 106.242 27.5232 106.574 27.1822C107.24 26.3792 107.569 25.3495 107.492 24.3093V23.359H107.392C106.971 23.8592 106.439 24.2543 105.839 24.5133C105.239 24.7722 104.586 24.8877 103.934 24.8508C103.104 24.8533 102.283 24.6837 101.522 24.3528C100.761 24.0218 100.077 23.5367 99.5137 22.9281C98.902 22.3243 98.4191 21.6027 98.0943 20.8069C97.7696 20.0111 97.6096 19.1577 97.6242 18.2983C97.609 17.4338 97.7685 16.5752 98.0932 15.774C98.4178 14.9727 98.901 14.2452 99.5137 13.6353C100.076 13.0241 100.759 12.5366 101.52 12.2037C102.281 11.8708 103.103 11.6998 103.934 11.7016C104.636 11.7003 105.331 11.8551 105.967 12.1546C106.517 12.3948 107.007 12.7532 107.403 13.2043H107.503V12.1546H110.243V23.9226C110.315 24.8535 110.197 25.7893 109.894 26.6728C109.592 27.5563 109.113 28.3688 108.486 29.0607C107.889 29.6321 107.183 30.078 106.411 30.3722C105.638 30.6663 104.815 30.8027 103.989 30.7734ZM104.188 22.2872C104.66 22.2976 105.128 22.204 105.56 22.013C105.991 21.822 106.375 21.5384 106.685 21.1822C107.367 20.401 107.726 19.3898 107.691 18.3535C107.731 17.2997 107.372 16.2694 106.685 15.4695C106.376 15.1128 105.992 14.8287 105.56 14.6377C105.128 14.4467 104.66 14.3534 104.188 14.3646C103.703 14.3546 103.222 14.448 102.776 14.6385C102.33 14.8291 101.93 15.1123 101.602 15.4695C100.871 16.2407 100.474 17.2691 100.497 18.3314C100.486 18.8525 100.578 19.3706 100.767 19.856C100.957 20.3415 101.241 20.7847 101.602 21.1601C101.928 21.5208 102.328 21.8078 102.774 22.0022C103.219 22.1965 103.701 22.2937 104.188 22.2872ZM115.116 5.16014V24.4751H112.232V5.16014H115.116ZM123.028 24.8729C122.164 24.8951 121.305 24.7387 120.504 24.4136C119.704 24.0884 118.979 23.6015 118.376 22.9833C117.763 22.3697 117.282 21.638 116.961 20.8326C116.64 20.0272 116.486 19.165 116.508 18.2983C116.476 17.4294 116.618 16.5629 116.928 15.7504C117.237 14.9379 117.707 14.196 118.309 13.569C118.877 12.9706 119.563 12.4974 120.324 12.1796C121.086 11.8618 121.905 11.7066 122.729 11.7237C123.487 11.7157 124.239 11.8623 124.939 12.1546C125.569 12.409 126.144 12.7844 126.63 13.2596C127.047 13.6624 127.418 14.1109 127.735 14.5966C127.991 15.0067 128.209 15.4394 128.387 15.8894L128.685 16.6408L119.845 20.2762C120.113 20.8904 120.56 21.4093 121.128 21.7643C121.696 22.1194 122.358 22.294 123.028 22.2651C123.679 22.2669 124.319 22.0999 124.887 21.7803C125.454 21.4608 125.929 20.9997 126.265 20.4419L128.475 21.9336C127.911 22.7405 127.189 23.4246 126.354 23.9447C125.359 24.5727 124.203 24.8954 123.028 24.8729ZM119.337 18.0994L125.215 15.6574C125.034 15.2268 124.71 14.8717 124.298 14.6519C123.837 14.3913 123.314 14.2578 122.784 14.2651C121.885 14.2884 121.031 14.6656 120.409 15.3148C120.036 15.6714 119.747 16.1059 119.562 16.5873C119.376 17.0686 119.3 17.5849 119.337 18.0994Z" fill="#5F6368"/>
<path d="M143.79 24.8731C142.563 24.8943 141.345 24.6674 140.209 24.2061C139.072 23.7447 138.04 23.0585 137.175 22.1885C136.311 21.3185 135.631 20.2828 135.176 19.1434C134.721 18.004 134.502 16.7846 134.53 15.5582C134.502 14.3318 134.721 13.1124 135.176 11.973C135.631 10.8336 136.311 9.79787 137.175 8.92789C138.04 8.05791 139.072 7.37166 140.209 6.91033C141.345 6.449 142.563 6.22211 143.79 6.24328C145.031 6.20447 146.265 6.44668 147.4 6.95181C148.535 7.45695 149.541 8.21195 150.342 9.16041L148.751 10.7074C148.163 9.96692 147.407 9.37586 146.547 8.98226C145.687 8.58865 144.746 8.40361 143.801 8.44218C142.891 8.42168 141.987 8.58535 141.142 8.92335C140.297 9.26135 139.529 9.7667 138.884 10.409C138.214 11.0831 137.69 11.8885 137.346 12.7746C137.002 13.6607 136.844 14.6084 136.884 15.5582C136.844 16.508 137.002 17.4557 137.346 18.3418C137.69 19.2279 138.214 20.0333 138.884 20.7074C139.529 21.3497 140.297 21.8551 141.142 22.1931C141.987 22.5311 142.891 22.6947 143.801 22.6742C144.857 22.6861 145.902 22.4597 146.859 22.0121C147.815 21.5645 148.658 20.907 149.326 20.0886L150.917 21.6797C150.084 22.676 149.038 23.4727 147.856 24.0112C146.582 24.5993 145.193 24.8939 143.79 24.8731Z" fill="#5F6368"/>
<path d="M155.193 24.4752H152.906V6.62988H155.193V24.4752Z" fill="#5F6368"/>
<path d="M158.928 13.7348C160.127 12.5445 161.747 11.8765 163.436 11.8765C165.126 11.8765 166.746 12.5445 167.945 13.7348C168.531 14.3536 168.989 15.0822 169.292 15.8786C169.596 16.6751 169.738 17.5237 169.713 18.3756C169.738 19.2276 169.596 20.0762 169.292 20.8726C168.989 21.6691 168.531 22.3977 167.945 23.0165C166.746 24.2068 165.126 24.8748 163.436 24.8748C161.747 24.8748 160.127 24.2068 158.928 23.0165C158.342 22.3977 157.884 21.6691 157.581 20.8726C157.277 20.0762 157.134 19.2276 157.16 18.3756C157.134 17.5237 157.277 16.6751 157.581 15.8786C157.884 15.0822 158.342 14.3536 158.928 13.7348ZM160.63 21.5801C160.99 21.9609 161.424 22.2643 161.906 22.4716C162.388 22.679 162.907 22.7859 163.431 22.7859C163.955 22.7859 164.474 22.679 164.956 22.4716C165.437 22.2643 165.872 21.9609 166.232 21.5801C166.632 21.1511 166.942 20.6468 167.145 20.0967C167.348 19.5465 167.44 18.9615 167.414 18.3756C167.44 17.7898 167.348 17.2048 167.145 16.6546C166.942 16.1045 166.632 15.6002 166.232 15.1712C165.872 14.7904 165.437 14.487 164.956 14.2797C164.474 14.0723 163.955 13.9654 163.431 13.9654C162.907 13.9654 162.388 14.0723 161.906 14.2797C161.424 14.487 160.99 14.7904 160.63 15.1712C160.23 15.6002 159.92 16.1045 159.717 16.6546C159.514 17.2048 159.422 17.7898 159.447 18.3756C159.425 18.9604 159.519 19.5438 159.724 20.092C159.929 20.6402 160.24 21.1422 160.641 21.569L160.63 21.5801Z" fill="#5F6368"/>
<path d="M182.387 24.4753H180.177V22.7847H180.111C179.717 23.4268 179.16 23.953 178.497 24.3095C177.809 24.7084 177.028 24.9181 176.232 24.9173C175.586 24.9614 174.939 24.8592 174.338 24.6181C173.737 24.377 173.199 24.0033 172.762 23.525C171.925 22.4663 171.505 21.1377 171.58 19.7902V12.2764H173.867V19.3703C173.867 21.6465 174.873 22.7847 176.884 22.7847C177.331 22.7986 177.775 22.7056 178.178 22.5134C178.582 22.3212 178.934 22.0354 179.204 21.6797C179.797 20.9283 180.113 19.9958 180.099 19.0388V12.2764H182.387V24.4753Z" fill="#5F6368"/>
<path d="M190.155 24.873C189.379 24.8756 188.611 24.71 187.906 24.3876C187.2 24.0652 186.572 23.5937 186.066 23.0056C184.921 21.7403 184.307 20.0819 184.354 18.3757C184.307 16.6695 184.921 15.0112 186.066 13.7459C186.572 13.1578 187.2 12.6863 187.906 12.3639C188.611 12.0415 189.379 11.8759 190.155 11.8785C191.024 11.8648 191.883 12.07 192.652 12.4752C193.328 12.8153 193.9 13.3304 194.309 13.9669H194.409L194.309 12.2763V6.62988H196.597V24.4752H194.387V22.7846H194.287C193.878 23.421 193.306 23.9362 192.63 24.2763C191.867 24.6779 191.016 24.883 190.155 24.873ZM190.53 22.7846C191.047 22.7921 191.56 22.6896 192.034 22.4838C192.509 22.2781 192.934 21.9738 193.282 21.5912C194.059 20.7065 194.456 19.5512 194.387 18.3757C194.456 17.2003 194.059 16.045 193.282 15.1603C192.932 14.7756 192.505 14.4682 192.029 14.2579C191.554 14.0476 191.039 13.939 190.519 13.939C189.999 13.939 189.485 14.0476 189.009 14.2579C188.533 14.4682 188.107 14.7756 187.757 15.1603C187.371 15.5954 187.075 16.1025 186.885 16.6523C186.695 17.2022 186.616 17.7841 186.652 18.3647C186.616 18.9452 186.695 19.5271 186.885 20.077C187.075 20.6269 187.371 21.134 187.757 21.5691C188.105 21.9586 188.533 22.2687 189.011 22.4784C189.49 22.6881 190.008 22.7925 190.53 22.7846Z" fill="#5F6368"/>
</g>
<defs>
<clipPath id="clip0_247_2029">
<rect width="200" height="30.9392" fill="white"/>
</clipPath>
</defs>
</svg>
