<svg width="200" height="65" viewBox="0 0 200 65" fill="none" xmlns="http://www.w3.org/2000/svg">
<g clip-path="url(#clip0_247_1929)">
<path d="M12.1977 0H12.9795C14.4521 0.144042 15.6912 0.750059 16.6966 1.81805C17.6661 2.84909 18.1773 4.07913 18.2304 5.50817C18.2825 6.90784 17.8243 8.15636 16.8558 9.25373C15.4931 10.7993 13.8698 11.4622 11.9859 11.2424C11.0184 11.1296 10.1418 10.7998 9.35619 10.253C8.30147 9.51765 7.5841 8.53068 7.2041 7.29211C6.91601 6.353 6.87005 5.41815 7.06622 4.48756C7.34672 3.15707 8.0565 2.04928 9.19557 1.16418C10.0608 0.491353 11.0615 0.103293 12.1977 0Z" fill="white"/>
<path d="M135.478 18.8075C135.479 18.9478 135.53 18.9701 135.63 18.8744C138.046 16.5697 140.833 15.2273 143.993 14.8473C147.217 14.4607 150.294 14.7976 153.225 15.858C154.894 16.4626 156.472 17.3842 157.96 18.6228C160.526 20.7578 162.232 23.4463 163.077 26.6881C163.924 29.9329 164.006 33.2615 163.325 36.6739C163.122 37.6888 162.868 38.601 162.561 39.4102C161.537 42.1262 159.85 44.3901 157.501 46.202C155.123 48.0357 152.41 49.1596 149.36 49.5737C147.952 49.7651 146.625 49.8362 145.379 49.7869C141.505 49.6325 138.212 48.1987 135.5 45.4856C135.483 45.4685 135.474 45.4723 135.474 45.497V63.497C135.474 63.5177 135.466 63.5376 135.451 63.5522C135.436 63.5669 135.417 63.5751 135.396 63.5751H125.355C125.348 63.5751 125.341 63.5738 125.334 63.5711C125.328 63.5685 125.322 63.5646 125.317 63.5597C125.313 63.5548 125.309 63.549 125.306 63.5427C125.303 63.5363 125.302 63.5294 125.302 63.5225V15.5197C125.302 15.4941 125.312 15.4695 125.33 15.4513C125.348 15.4332 125.372 15.423 125.397 15.423L135.386 15.4316C135.405 15.4316 135.424 15.4392 135.437 15.4528C135.451 15.4664 135.458 15.4848 135.458 15.5041L135.478 18.8075ZM138.485 40.0513C140.028 41.4842 141.865 42.2233 143.994 42.2688C146.619 42.3257 148.764 41.4709 150.429 39.7045C151.067 39.0279 151.596 38.2475 152.017 37.3633C152.446 36.4621 152.744 35.5097 152.91 34.5062C153.22 32.6327 153.14 30.7777 152.671 28.9412C152.388 27.8372 151.993 26.8995 151.484 26.1281C149.709 23.4425 147.258 22.1328 144.132 22.1992C143.129 22.221 142.197 22.3778 141.338 22.6697C139.842 23.1776 138.622 24.0461 137.677 25.2752C136.539 26.7564 135.849 28.483 135.608 30.455C135.321 32.7891 135.592 34.9866 136.421 37.0478C136.885 38.2039 137.573 39.2051 138.485 40.0513Z" fill="white"/>
<path d="M71.9531 20.2017C72.1644 20.0188 72.4899 19.708 72.9296 19.2693C74.6429 17.5597 76.6486 16.3245 78.9467 15.5635C79.8337 15.2688 80.7557 15.056 81.7128 14.9253C83.8971 14.6268 86.054 14.7533 88.1833 15.3048C89.1945 15.5663 90.0767 15.9037 90.8301 16.3169C92.9291 17.4673 94.4203 19.2138 95.3035 21.5564C95.3423 21.6597 95.3959 21.6677 95.4641 21.5806C96.9424 19.6635 98.7121 18.0857 100.773 16.8471C102.616 15.7383 104.574 15.074 106.645 14.8542C107.994 14.7111 109.362 14.7282 110.751 14.9054C111.768 15.0361 112.691 15.2427 113.52 15.5251C117 16.7154 119.248 19.1778 120.264 22.9125C120.73 24.622 120.96 26.4017 120.957 28.2515C120.943 35.193 120.935 42.1259 120.931 49.0504C120.931 49.063 120.929 49.0756 120.924 49.0873C120.919 49.0991 120.912 49.1097 120.903 49.1187C120.894 49.1277 120.883 49.1348 120.871 49.1397C120.86 49.1445 120.847 49.147 120.834 49.147H110.863C110.828 49.147 110.795 49.1332 110.77 49.1087C110.746 49.0842 110.732 49.0509 110.732 49.0162C110.732 43.0982 110.733 37.1835 110.733 31.2721C110.733 29.8781 110.5 28.5263 110.033 27.2167C109.634 26.0965 108.987 25.2143 108.094 24.5699C107.394 24.0658 106.519 23.7265 105.468 23.5521C102.969 23.1361 100.812 23.8942 98.9964 25.8265C98.4307 26.4282 97.955 27.1683 97.5693 28.0468C96.8216 29.7516 96.4473 31.5374 96.4463 33.4043C96.4463 38.4382 96.4463 43.6024 96.4463 48.8968C96.4463 48.9609 96.4209 49.0224 96.3755 49.0677C96.3302 49.113 96.2687 49.1385 96.2047 49.1385L86.3354 49.147C86.3204 49.147 86.3055 49.144 86.2916 49.1382C86.2777 49.1324 86.2651 49.1239 86.2545 49.1132C86.2439 49.1025 86.2356 49.0898 86.23 49.0758C86.2243 49.0619 86.2215 49.0469 86.2217 49.0319C86.2644 43.1233 86.262 37.2034 86.2146 31.2721C86.2051 30.061 86.0265 28.8765 85.6787 27.7184C84.913 25.1664 83.1954 23.7592 80.5259 23.4967C79.3944 23.3849 78.3203 23.5138 77.3035 23.8833C76.4477 24.1942 75.6541 24.6974 74.9225 25.3929C73.6527 26.5983 72.8045 28.0951 72.3781 29.8833C72.0578 31.2261 71.9005 32.5893 71.9062 33.9729C71.927 39.0049 71.9189 44.0364 71.882 49.0674C71.882 49.0863 71.8745 49.1043 71.8612 49.1177C71.8478 49.131 71.8298 49.1385 71.8109 49.1385L61.8052 49.147C61.795 49.147 61.7848 49.145 61.7753 49.1411C61.7658 49.1371 61.7572 49.1314 61.75 49.1241C61.7427 49.1169 61.7369 49.1082 61.733 49.0987C61.7291 49.0893 61.7271 49.0791 61.7271 49.0688V15.5436C61.7271 15.5277 61.7302 15.512 61.7362 15.4974C61.7423 15.4827 61.7512 15.4694 61.7624 15.4582C61.7737 15.4469 61.787 15.438 61.8016 15.432C61.8163 15.4259 61.832 15.4228 61.8479 15.4228H71.7654C71.7819 15.4228 71.7981 15.426 71.8133 15.4323C71.8285 15.4386 71.8423 15.4478 71.8539 15.4594C71.8655 15.471 71.8747 15.4848 71.881 15.5C71.8873 15.5152 71.8905 15.5314 71.8905 15.5479L71.9005 20.1747C71.9005 20.2231 71.918 20.2321 71.9531 20.2017Z" fill="white"/>
<path d="M0.879886 64.2501H0V56.7789C1.32101 56.7552 2.38711 56.6278 3.19829 56.3966C5.89434 55.628 7.3158 53.8156 7.46269 50.9595C7.49206 50.3918 7.50675 49.9891 7.50675 49.7512C7.50107 38.4032 7.49822 26.9993 7.49822 15.5394C7.49822 15.5085 7.5105 15.4789 7.53236 15.457C7.55422 15.4351 7.58387 15.4229 7.61478 15.4229H17.5878C17.6145 15.4229 17.6402 15.4333 17.6591 15.452C17.6781 15.4707 17.6887 15.496 17.6887 15.5224C17.6991 27.0438 17.702 38.5837 17.6972 50.1421C17.6972 51.1296 17.6588 51.9583 17.5821 52.6283C17.1727 56.2018 15.5262 58.995 12.6425 61.0078C11.5584 61.764 10.3137 62.3842 8.90831 62.8685C6.32409 63.7583 3.66264 64.208 0.923952 64.2174C0.901208 64.2174 0.88652 64.2283 0.879886 64.2501Z" fill="white"/>
<path d="M46.9737 44.3866C46.8998 44.4766 46.8235 44.5643 46.7449 44.6496C45.1178 46.4103 43.187 47.7294 40.9524 48.6069C37.647 49.9061 34.2929 50.1544 30.8899 49.3518C28.662 48.8258 26.7927 47.736 25.2822 46.0824C24.6539 45.3963 24.1133 44.6221 23.6603 43.7597C23.033 42.5657 22.5961 41.2935 22.3497 39.9431C22.2512 39.402 22.1716 38.8581 22.1109 38.3113C22.0588 37.8526 22.0313 37.3049 22.0285 36.6681C21.9906 29.6659 21.9801 22.6169 21.9972 15.5209C21.9972 15.4949 22.0077 15.47 22.0263 15.4516C22.045 15.4332 22.0703 15.4229 22.0967 15.4229H32.1024C32.1147 15.4229 32.1269 15.4253 32.1383 15.43C32.1497 15.4347 32.16 15.4416 32.1687 15.4503C32.1774 15.459 32.1843 15.4694 32.1891 15.4808C32.1938 15.4921 32.1962 15.5043 32.1962 15.5167C32.1962 21.0689 32.1962 26.605 32.1962 32.1251C32.1962 33.7247 32.3668 35.1618 32.7079 36.4364C33.3609 38.8746 34.8723 40.3752 37.2424 40.9381C37.8745 41.0879 38.5762 41.149 39.3476 41.1215C40.101 41.095 40.7918 40.9869 41.4201 40.7974C42.9524 40.3359 44.1986 39.4442 45.1585 38.1222C45.7262 37.3404 46.172 36.4387 46.4961 35.4172C46.7596 34.5861 46.9453 33.7413 47.0533 32.8827C47.1225 32.335 47.1571 31.4731 47.1571 30.2971C47.1571 25.4148 47.1571 20.4932 47.1571 15.5323C47.1571 15.5055 47.1676 15.4799 47.1863 15.4609C47.2049 15.442 47.2302 15.4314 47.2566 15.4314L57.2822 15.4229C57.2966 15.4229 57.3108 15.4257 57.3241 15.4312C57.3374 15.4367 57.3494 15.4447 57.3596 15.4549C57.3698 15.4651 57.3778 15.4771 57.3833 15.4904C57.3888 15.5037 57.3917 15.5179 57.3917 15.5323L57.3831 49.0334C57.3831 49.0564 57.3738 49.0784 57.3573 49.0947C57.3408 49.1109 57.3184 49.1201 57.295 49.1201L47.2808 49.1386C47.2575 49.1386 47.2352 49.1297 47.2184 49.1138C47.2017 49.0979 47.192 49.0762 47.1912 49.0533C47.141 47.5408 47.1415 46.0203 47.1926 44.4918C47.1974 44.362 47.1661 44.298 47.0988 44.2999C47.06 44.3018 47.0183 44.3307 46.9737 44.3866Z" fill="white"/>
<path d="M199.855 39.8022H168.057C168.037 39.8022 168.02 39.8188 168.02 39.8392V47.7283C168.02 47.7487 168.037 47.7653 168.057 47.7653H199.855C199.876 47.7653 199.892 47.7487 199.892 47.7283V39.8392C199.892 39.8188 199.876 39.8022 199.855 39.8022Z" fill="#1CE7C2"/>
</g>
<defs>
<clipPath id="clip0_247_1929">
<rect width="200" height="64.2502" fill="white"/>
</clipPath>
</defs>
</svg>
