<svg width="200" height="33" viewBox="0 0 200 33" fill="none" xmlns="http://www.w3.org/2000/svg">
<g clip-path="url(#clip0_211_1918)">
<path fill-rule="evenodd" clip-rule="evenodd" d="M13.9394 3.50859C13.9849 7.36459 13.9874 7.38809 14.3329 7.18159C14.6159 7.01259 15.6429 6.42109 15.8749 6.29359C15.9664 6.24359 16.2599 6.07259 16.5269 5.91359C16.7939 5.75509 17.1879 5.52759 17.4019 5.40909C17.6164 5.29009 17.9699 5.09309 18.1874 4.97159C18.4049 4.84959 18.7424 4.66209 18.9374 4.55459C19.1324 4.44659 19.4834 4.24059 19.7174 4.09609C19.9519 3.95159 20.2424 3.83359 20.3634 3.83359C20.4844 3.83359 20.5834 3.79609 20.5834 3.75009C20.5834 3.70409 20.5269 3.66659 20.4584 3.66659C20.3894 3.66659 20.3334 3.62909 20.3334 3.58359C20.3334 3.53759 20.2799 3.50009 20.2144 3.50009C20.1489 3.50009 20.0439 3.44859 19.9809 3.38609C19.9184 3.32359 19.7779 3.24359 19.6689 3.20909C19.5604 3.17459 19.3939 3.07459 19.2994 2.98659C19.2054 2.89859 19.0429 2.80559 18.9389 2.77959C18.8349 2.75359 18.7499 2.69859 18.7499 2.65759C18.7499 2.61709 18.6964 2.58359 18.6309 2.58359C18.5654 2.58359 18.4614 2.53659 18.4004 2.47909C18.2259 2.31659 17.7789 2.08359 17.6419 2.08359C17.5734 2.08359 17.4959 2.02709 17.4699 1.95859C17.4434 1.88959 17.3644 1.83359 17.2944 1.83359C17.2239 1.83359 17.1664 1.79609 17.1664 1.75009C17.1664 1.70409 17.0914 1.66659 16.9999 1.66659C16.9084 1.66659 16.8334 1.62909 16.8334 1.58359C16.8334 1.53759 16.7814 1.50009 16.7184 1.50009C16.6554 1.50009 16.5599 1.44759 16.5069 1.38309C16.4534 1.31909 16.3099 1.24159 16.1879 1.21059C16.0654 1.18009 15.9169 1.08559 15.8579 1.00059C15.7984 0.916094 15.6374 0.822094 15.4999 0.791594C15.3624 0.761594 15.2499 0.706594 15.2499 0.669094C15.2499 0.632094 15.1564 0.578094 15.0414 0.549094C14.9269 0.520594 14.8334 0.460094 14.8334 0.415094C14.8334 0.370094 14.7799 0.333594 14.7154 0.333594C14.6504 0.333594 14.5844 0.295094 14.5689 0.248094C14.5529 0.201094 14.3959 0.139594 14.2194 0.110594L13.8984 0.0585938L13.9394 3.50859ZM27.8129 17.4431C27.7789 17.5261 27.7129 17.5706 27.6664 17.5416C27.6199 17.5126 27.4834 17.5666 27.3629 17.6616C27.2424 17.7561 27.1184 17.8336 27.0864 17.8336C27.0549 17.8336 26.6254 18.0586 26.1319 18.3336C25.6384 18.6086 25.2154 18.8336 25.1924 18.8336C25.1694 18.8336 25.0509 18.9036 24.9294 18.9891C24.8079 19.0746 24.4084 19.3046 24.0414 19.4996C23.6749 19.6951 23.2249 19.9411 23.0414 20.0461C22.8584 20.1511 22.5769 20.3036 22.4164 20.3851C22.0004 20.5961 21.9759 20.6791 22.2764 20.8601C22.4224 20.9481 22.5539 21.0531 22.5694 21.0936C22.5844 21.1336 22.6354 21.1666 22.6819 21.1666C22.7284 21.1666 23.0994 21.3731 23.5074 21.6251C23.9149 21.8771 24.2859 22.0836 24.3324 22.0836C24.3789 22.0836 24.4164 22.1211 24.4164 22.1666C24.4164 22.2126 24.4604 22.2501 24.5134 22.2501C24.5669 22.2501 24.9419 22.4566 25.3479 22.7086C25.7534 22.9606 26.0999 23.1666 26.1179 23.1666C26.1364 23.1666 26.5334 23.3941 27.0014 23.6716C27.4689 23.9491 27.8664 24.1611 27.8849 24.1431C27.9034 24.1246 27.9089 22.5756 27.8969 20.7006C27.8849 18.8256 27.8469 17.3596 27.8129 17.4431Z" fill="#949494"/>
<path fill-rule="evenodd" clip-rule="evenodd" d="M13.4789 0.0968527C13.3529 0.142853 13.2499 0.214853 13.2499 0.256853C13.2499 0.298853 13.1934 0.333353 13.1249 0.333353C13.0564 0.333353 12.9999 0.367853 12.9999 0.409853C12.9999 0.451853 12.8874 0.511353 12.7499 0.541353C12.6124 0.571853 12.4999 0.630353 12.4999 0.671353C12.4999 0.712853 12.4064 0.770353 12.2914 0.798853C12.1769 0.827853 12.0834 0.884853 12.0834 0.925353C12.0834 0.966353 12.0269 0.999853 11.9584 0.999853C11.8894 0.999853 11.8334 1.03685 11.8334 1.08135C11.8334 1.12635 11.7394 1.18685 11.6249 1.21585C11.5104 1.24435 11.4164 1.29835 11.4164 1.33535C11.4164 1.37285 11.3025 1.42835 11.1624 1.45885C11.023 1.48985 10.8639 1.58635 10.8094 1.67385C10.7544 1.76135 10.6795 1.83335 10.6419 1.83335C10.4944 1.83335 9.83345 2.17535 9.83345 2.25185C9.83345 2.29685 9.75845 2.33335 9.66645 2.33335C9.57495 2.33335 9.49995 2.36785 9.49995 2.40985C9.49995 2.45185 9.38745 2.51135 9.24995 2.54135C9.11245 2.57185 8.99995 2.63035 8.99995 2.67135C8.99995 2.71285 8.90645 2.77035 8.79145 2.79885C8.67695 2.82785 8.58345 2.88485 8.58345 2.92535C8.58345 2.96635 8.52695 2.99985 8.45845 2.99985C8.38945 2.99985 8.33345 3.03685 8.33345 3.08135C8.33345 3.12635 8.23945 3.18685 8.12495 3.21585L7.91645 3.26785V11.4659V19.6634L8.12495 19.7159C8.23945 19.7444 8.33345 19.8014 8.33345 19.8424C8.33345 19.8829 8.38945 19.9164 8.45845 19.9164C8.52695 19.9164 8.58345 19.9534 8.58345 19.9984C8.58345 20.0434 8.67695 20.1034 8.79145 20.1324C8.90645 20.1609 8.99995 20.2139 8.99995 20.2499C8.99995 20.2859 9.09395 20.3389 9.20845 20.3674C9.32295 20.3964 9.41645 20.4564 9.41645 20.5014C9.41645 20.5464 9.47295 20.5834 9.54145 20.5834C9.61045 20.5834 9.66645 20.6179 9.66645 20.6599C9.66645 20.7019 9.77895 20.7614 9.91645 20.7914C10.0539 20.8219 10.1664 20.8784 10.1664 20.9174C10.1664 20.9569 10.2509 21.0149 10.3539 21.0474C10.4574 21.0794 10.5604 21.1309 10.5834 21.1614C10.6059 21.1919 10.7654 21.2824 10.9374 21.3624C11.1094 21.4424 11.2499 21.5419 11.2499 21.5834C11.2499 21.6249 11.3809 21.6834 11.5414 21.7139C11.7019 21.7439 11.8334 21.8019 11.8334 21.8424C11.8334 21.8834 11.8894 21.9164 11.9584 21.9164C12.0269 21.9164 12.0834 21.9514 12.0834 21.9944C12.0834 22.0369 12.1674 22.0984 12.2709 22.1304C12.3739 22.1629 12.4769 22.2119 12.4999 22.2404C12.5669 22.3229 12.8624 22.5004 13.0209 22.5539C13.1009 22.5804 13.1664 22.6329 13.1664 22.6699C13.1664 22.7064 13.2789 22.7614 13.4164 22.7914C13.5539 22.8219 13.6664 22.8804 13.6664 22.9214C13.6664 22.9629 13.7604 23.0204 13.8749 23.0489C13.9894 23.0779 14.0834 23.1349 14.0834 23.1754C14.0834 23.2164 14.1394 23.2499 14.2084 23.2499C14.2769 23.2499 14.3334 23.2834 14.3334 23.3244C14.3334 23.3649 14.4269 23.4219 14.5414 23.4509C14.6564 23.4794 14.7499 23.5369 14.7499 23.5784C14.7499 23.6194 14.8624 23.6779 14.9999 23.7084C15.1374 23.7384 15.2499 23.7979 15.2499 23.8399C15.2499 23.8819 15.3064 23.9164 15.3749 23.9164C15.4434 23.9164 15.4999 23.9534 15.4999 23.9984C15.4999 24.0434 15.5934 24.1034 15.7084 24.1324C15.8229 24.1609 15.9164 24.2179 15.9164 24.2589C15.9164 24.2999 15.9699 24.3334 16.0354 24.3334C16.1009 24.3334 16.2049 24.3799 16.2664 24.4374C16.4404 24.5999 16.8874 24.8334 17.0249 24.8334C17.0929 24.8334 17.1704 24.8894 17.1969 24.9584C17.2229 25.0269 17.3019 25.0834 17.3724 25.0834C17.4424 25.0834 17.4999 25.1209 17.4999 25.1664C17.4999 25.2124 17.5749 25.2499 17.6664 25.2499C17.7584 25.2499 17.8334 25.2874 17.8334 25.3334C17.8334 25.3789 17.8849 25.4164 17.9479 25.4164C18.0114 25.4164 18.1064 25.4689 18.1599 25.5334C18.2129 25.5974 18.3564 25.6754 18.4789 25.7059C18.6009 25.7364 18.7494 25.8309 18.8089 25.9159C18.8684 26.0009 19.0294 26.0949 19.1669 26.1249C19.3039 26.1549 19.4164 26.2104 19.4164 26.2474C19.4164 26.2849 19.5104 26.3389 19.6249 26.3674C19.7394 26.3964 19.8334 26.4564 19.8334 26.5014C19.8334 26.5464 19.8894 26.5834 19.9584 26.5834C20.0269 26.5834 20.0834 26.6179 20.0834 26.6599C20.0834 26.7019 20.1959 26.7614 20.3334 26.7914C20.4709 26.8219 20.5834 26.8804 20.5834 26.9214C20.5834 26.9629 20.6769 27.0204 20.7914 27.0489C20.9064 27.0779 20.9999 27.1349 20.9999 27.1754C20.9999 27.2164 21.0559 27.2499 21.1249 27.2499C21.1934 27.2499 21.2499 27.2834 21.2499 27.3244C21.2499 27.3649 21.3439 27.4219 21.4584 27.4509C21.5729 27.4794 21.6664 27.5399 21.6664 27.5849C21.6664 27.6299 21.7789 27.6664 21.9164 27.6664C22.0539 27.6664 22.1664 27.6289 22.1664 27.5834C22.1664 27.5374 22.2434 27.4999 22.3369 27.4999C22.4309 27.4999 22.5979 27.4094 22.7084 27.2989C22.8189 27.1884 23.0234 27.0729 23.1629 27.0424C23.3024 27.0119 23.4164 26.9539 23.4164 26.9139C23.4164 26.8739 23.5574 26.7754 23.7289 26.6959C23.9009 26.6159 24.0604 26.5254 24.0834 26.4944C24.1059 26.4639 24.2094 26.4129 24.3124 26.3804C24.4154 26.3484 24.4999 26.2899 24.4999 26.2509C24.4999 26.2119 24.6124 26.1549 24.7499 26.1249C24.8874 26.0949 24.9999 26.0354 24.9999 25.9934C24.9999 25.9509 25.0559 25.9164 25.1249 25.9164C25.1934 25.9164 25.2499 25.8799 25.2499 25.8349C25.2499 25.7899 25.3439 25.7294 25.4584 25.7009C25.5729 25.6719 25.6664 25.6189 25.6664 25.5834C25.6664 25.5474 25.7604 25.4944 25.8749 25.4659C25.9894 25.4369 26.0834 25.3764 26.0834 25.3314C26.0834 25.2869 26.1394 25.2499 26.2084 25.2499C26.2769 25.2499 26.3334 25.2154 26.3334 25.1734C26.3334 25.1309 26.4459 25.0719 26.5834 25.0414C26.7209 25.0114 26.8334 24.9529 26.8334 24.9114C26.8334 24.8704 26.9269 24.8129 27.0414 24.7839C27.1564 24.7554 27.2499 24.6984 27.2499 24.6574C27.2499 24.6169 27.3059 24.5834 27.3749 24.5834C27.4434 24.5834 27.4999 24.5459 27.4999 24.4999C27.4999 24.4539 27.5739 24.4164 27.6639 24.4164C28.0624 24.4164 27.8074 24.2324 25.9209 23.1594C25.7124 23.0404 25.0354 22.6494 24.4164 22.2894C23.7979 21.9299 23.2074 21.5954 23.1049 21.5469C23.0019 21.4979 22.9174 21.4299 22.9174 21.3959C22.9169 21.3614 22.8804 21.3334 22.8364 21.3334C22.7919 21.3334 22.4264 21.1359 22.0239 20.8949C21.6209 20.6539 21.1884 20.4039 21.0624 20.3389C20.9364 20.2744 20.8334 20.1539 20.8334 20.0709C20.8334 19.9884 20.7299 19.8549 20.6039 19.7744C20.4779 19.6944 20.3559 19.6029 20.3324 19.5709C20.3089 19.5389 20.1869 19.4874 20.0614 19.4559C19.9359 19.4244 19.8334 19.3649 19.8334 19.3244C19.8334 19.2834 19.7584 19.2499 19.6664 19.2499C19.5749 19.2499 19.4999 19.2134 19.4999 19.1684C19.4999 19.0889 18.8359 18.7499 18.6799 18.7499C18.6364 18.7499 18.5809 18.6969 18.5559 18.6324C18.5309 18.5674 18.3769 18.4664 18.2139 18.4074C18.0504 18.3479 17.9164 18.2699 17.9164 18.2334C17.9164 18.1964 17.8629 18.1664 17.7974 18.1664C17.7319 18.1664 17.6284 18.1199 17.5669 18.0624C17.5059 18.0049 17.3154 17.8869 17.1444 17.7994C16.9734 17.7119 16.8334 17.6119 16.8334 17.5769C16.8334 17.5419 16.7209 17.4884 16.5834 17.4584C16.4459 17.4279 16.3334 17.3729 16.3334 17.3354C16.3334 17.2984 16.2394 17.2444 16.1249 17.2159C16.0104 17.1869 15.9164 17.1264 15.9164 17.0814C15.9164 17.0369 15.8604 16.9999 15.7914 16.9999C15.7229 16.9999 15.6664 16.9654 15.6664 16.9234C15.6664 16.8809 15.5539 16.8219 15.4164 16.7914C15.2789 16.7614 15.1664 16.7029 15.1664 16.6614C15.1664 16.6204 15.0729 16.5629 14.9584 16.5339C14.8439 16.5054 14.7499 16.4484 14.7499 16.4074C14.7499 16.3669 14.6934 16.3334 14.6249 16.3334C14.5564 16.3334 14.4999 16.2984 14.4999 16.2559C14.4999 16.2129 14.4154 16.1664 14.3124 16.1514L14.1249 16.1249L14.1034 12.1694C14.0844 8.76735 14.0645 8.20435 13.9574 8.14435C13.8499 8.08435 13.8334 7.52785 13.8334 4.03735C13.8334 1.81685 13.8049 0.00285271 13.7709 0.00635271C13.7364 0.00985271 13.6049 0.0508527 13.4789 0.0968527ZM5.33345 4.81035C5.26445 4.83685 5.18945 4.88085 5.16645 4.90835C5.09795 4.99035 4.80195 5.16785 4.64595 5.22035C4.56545 5.24735 4.49995 5.30235 4.49995 5.34285C4.49995 5.38335 4.42345 5.41635 4.32945 5.41635C4.23595 5.41635 4.06845 5.50685 3.95795 5.61735C3.84745 5.72785 3.64295 5.84335 3.50345 5.87385C3.36395 5.90485 3.24995 5.95985 3.24995 5.99685C3.24995 6.03335 3.18445 6.08585 3.10395 6.11285C2.94595 6.16585 2.65045 6.34385 2.58345 6.42635C2.56045 6.45435 2.44945 6.50635 2.33695 6.54135C2.22495 6.57635 2.08145 6.65635 2.01895 6.71935C1.95595 6.78185 1.85095 6.83335 1.78545 6.83335C1.71995 6.83335 1.66645 6.87085 1.66645 6.91635C1.66645 6.96235 1.61045 6.99985 1.54145 6.99985C1.47295 6.99985 1.41645 7.03685 1.41645 7.08135C1.41645 7.12635 1.32295 7.18685 1.20845 7.21585C1.09395 7.24435 0.999949 7.29735 0.999949 7.33335C0.999949 7.36885 0.898949 7.42385 0.775949 7.45485C0.652449 7.48585 0.492949 7.57685 0.421449 7.65685C0.349949 7.73735 0.225949 7.82735 0.145949 7.85735C-0.0805508 7.94135 -0.0805508 24.3084 0.145949 24.3924C0.225949 24.4224 0.349949 24.5124 0.421449 24.5929C0.492949 24.6729 0.652449 24.7639 0.775949 24.7949C0.898949 24.8259 0.999949 24.8809 0.999949 24.9164C0.999949 24.9524 1.09395 25.0054 1.20845 25.0339C1.32295 25.0629 1.41645 25.1234 1.41645 25.1684C1.41645 25.2129 1.47295 25.2499 1.54145 25.2499C1.61045 25.2499 1.66645 25.2874 1.66645 25.3334C1.66645 25.3789 1.71995 25.4164 1.78545 25.4164C1.85095 25.4164 1.95595 25.4679 2.01895 25.5304C2.08145 25.5934 2.22495 25.6734 2.33695 25.7084C2.44945 25.7434 2.56045 25.7954 2.58345 25.8234C2.65045 25.9059 2.94595 26.0839 3.10395 26.1369C3.18445 26.1639 3.24995 26.2164 3.24995 26.2529C3.24995 26.2899 3.36395 26.3449 3.50345 26.3759C3.64295 26.4064 3.84745 26.5219 3.95795 26.6324C4.06845 26.7429 4.23595 26.8334 4.32945 26.8334C4.42345 26.8334 4.49995 26.8619 4.49995 26.8969C4.49995 26.9604 4.74695 27.1109 5.02095 27.2144C5.10095 27.2444 5.16645 27.3024 5.16645 27.3429C5.16645 27.3834 5.21845 27.4164 5.28145 27.4164C5.34445 27.4164 5.44095 27.4704 5.49545 27.5364C5.54995 27.6019 5.70495 27.6799 5.83895 27.7094C5.97345 27.7389 6.08345 27.7979 6.08345 27.8399C6.08345 27.8819 6.13945 27.9164 6.20845 27.9164C6.27695 27.9164 6.33345 27.9534 6.33345 27.9984C6.33345 28.0434 6.42695 28.1034 6.54145 28.1324C6.65645 28.1609 6.74995 28.2139 6.74995 28.2499C6.74995 28.2859 6.85095 28.3404 6.97395 28.3714C7.09745 28.4024 7.25895 28.4979 7.33345 28.5834C7.40745 28.6689 7.56895 28.7639 7.69245 28.7949C7.81595 28.8259 7.91645 28.8809 7.91645 28.9164C7.91645 28.9524 8.01045 29.0054 8.12495 29.0339C8.23945 29.0629 8.33345 29.1234 8.33345 29.1684C8.33345 29.2129 8.38945 29.2499 8.45845 29.2499C8.52695 29.2499 8.58345 29.2834 8.58345 29.3244C8.58345 29.3649 8.67695 29.4219 8.79145 29.4509C8.90645 29.4794 8.99995 29.5369 8.99995 29.5784C8.99995 29.6194 9.11245 29.6779 9.24995 29.7084C9.38745 29.7384 9.49995 29.7979 9.49995 29.8399C9.49995 29.8819 9.57495 29.9164 9.66645 29.9164C9.75845 29.9164 9.83345 29.9529 9.83345 29.9979C9.83345 30.0744 10.4944 30.4164 10.6419 30.4164C10.6795 30.4164 10.7544 30.4884 10.8094 30.5759C10.8639 30.6634 11.023 30.7599 11.1624 30.7909C11.3025 30.8214 11.4164 30.8769 11.4164 30.9144C11.4164 30.9514 11.5104 31.0054 11.6249 31.0339C11.7394 31.0629 11.8334 31.1234 11.8334 31.1684C11.8334 31.2129 11.8894 31.2499 11.9584 31.2499C12.0269 31.2499 12.0834 31.2834 12.0834 31.3244C12.0834 31.3649 12.1769 31.4219 12.2914 31.4509C12.4064 31.4794 12.4999 31.5369 12.4999 31.5784C12.4999 31.6194 12.6124 31.6779 12.7499 31.7084C12.8874 31.7384 12.9999 31.7979 12.9999 31.8399C12.9999 31.8819 13.0564 31.9164 13.1249 31.9164C13.1934 31.9164 13.2499 31.9514 13.2499 31.9934C13.2499 32.1674 13.8349 32.2709 14.2154 32.1644C14.4179 32.1079 14.5834 32.0289 14.5834 31.9889C14.5834 31.9494 14.6394 31.9164 14.7084 31.9164C14.7769 31.9164 14.8334 31.8799 14.8334 31.8349C14.8334 31.7899 14.9269 31.7294 15.0414 31.7009C15.1564 31.6719 15.2499 31.6179 15.2499 31.5809C15.2499 31.5434 15.3624 31.4884 15.4999 31.4584C15.6374 31.4279 15.7984 31.3339 15.8579 31.2494C15.9169 31.1644 16.0654 31.0699 16.1879 31.0394C16.3099 31.0084 16.4534 30.9309 16.5069 30.8669C16.5599 30.8024 16.6554 30.7499 16.7184 30.7499C16.7814 30.7499 16.8334 30.7124 16.8334 30.6664C16.8334 30.6209 16.9084 30.5834 16.9999 30.5834C17.0914 30.5834 17.1664 30.5459 17.1664 30.4999C17.1664 30.4539 17.2239 30.4164 17.2944 30.4164C17.3644 30.4164 17.4434 30.3604 17.4699 30.2914C17.4959 30.2229 17.5734 30.1664 17.6419 30.1664C17.7789 30.1664 18.2259 29.9334 18.4004 29.7709C18.4614 29.7134 18.5654 29.6664 18.6309 29.6664C18.6964 29.6664 18.7499 29.6329 18.7499 29.5924C18.7499 29.5514 18.8349 29.4964 18.9389 29.4704C19.0429 29.4444 19.2104 29.3464 19.3104 29.2529C19.4109 29.1599 19.5319 29.0834 19.5799 29.0834C19.6274 29.0834 19.6664 29.0084 19.6664 28.9164C19.6664 28.8239 19.6109 28.7499 19.5414 28.7499C19.4729 28.7499 19.4164 28.7184 19.4164 28.6799C19.4164 28.6409 19.2764 28.5379 19.1054 28.4504C18.9344 28.3629 18.7439 28.2449 18.6829 28.1874C18.6214 28.1299 18.5179 28.0834 18.4524 28.0834C18.3869 28.0834 18.3329 28.0549 18.3324 28.0209C18.3319 27.9864 18.1819 27.8864 17.9989 27.7989C17.8159 27.7114 17.6664 27.6114 17.6664 27.5764C17.6664 27.5414 17.5539 27.4884 17.4164 27.4584C17.2789 27.4279 17.1664 27.3689 17.1664 27.3264C17.1664 27.2844 17.0954 27.2499 17.0089 27.2499C16.9219 27.2499 16.8294 27.1939 16.8029 27.1249C16.7769 27.0564 16.6979 26.9999 16.6274 26.9999C16.5574 26.9999 16.4999 26.9669 16.4999 26.9269C16.4999 26.8869 16.3814 26.8304 16.2364 26.8014C16.0914 26.7724 15.9229 26.6769 15.8614 26.5894C15.7999 26.5014 15.6404 26.4059 15.5069 26.3764C15.3729 26.3469 15.2429 26.2689 15.2179 26.2029C15.1924 26.1374 15.0954 26.0834 15.0024 26.0834C14.9094 26.0834 14.8334 26.0459 14.8334 25.9999C14.8334 25.9539 14.7769 25.9164 14.7084 25.9164C14.6394 25.9164 14.5834 25.8829 14.5834 25.8424C14.5834 25.8014 14.4894 25.7444 14.3749 25.7159C14.2604 25.6869 14.1664 25.6294 14.1664 25.5884C14.1664 25.5469 14.0539 25.4884 13.9164 25.4584C13.7789 25.4279 13.6664 25.3689 13.6664 25.3264C13.6664 25.2844 13.6104 25.2499 13.5414 25.2499C13.4729 25.2499 13.4164 25.2129 13.4164 25.1684C13.4164 25.1234 13.3229 25.0629 13.2084 25.0339C13.0939 25.0054 12.9999 24.9484 12.9999 24.9074C12.9999 24.8669 12.9464 24.8334 12.8809 24.8334C12.8154 24.8334 12.7125 24.7864 12.6519 24.7289C12.591 24.6714 12.3919 24.5494 12.2094 24.4579C12.0269 24.3664 11.8274 24.2449 11.7659 24.1874C11.7049 24.1299 11.6009 24.0834 11.5354 24.0834C11.4699 24.0834 11.4164 24.0549 11.4164 24.0204C11.4164 23.9854 11.2949 23.9044 11.1459 23.8399C10.9969 23.7754 10.7854 23.6534 10.6764 23.5694C10.5669 23.4854 10.4074 23.4164 10.3219 23.4164C10.2364 23.4164 10.1664 23.3789 10.1664 23.3334C10.1664 23.2874 10.1104 23.2499 10.0414 23.2499C9.97295 23.2499 9.91645 23.2149 9.91645 23.1724C9.91645 23.1294 9.83245 23.0679 9.72895 23.0359C9.62595 23.0039 9.52295 22.9544 9.49995 22.9264C9.44195 22.8549 9.19145 22.7064 8.74995 22.4824C8.54345 22.3774 8.32545 22.2449 8.26495 22.1874C8.20445 22.1299 8.10095 22.0834 8.03545 22.0834C7.96995 22.0834 7.91595 22.0549 7.91545 22.0209C7.91495 21.9864 7.76495 21.8864 7.58245 21.7989C7.39945 21.7114 7.24995 21.6124 7.24995 21.5789C7.24995 21.5454 7.14745 21.4924 7.02145 21.4609C6.89595 21.4289 6.77395 21.3784 6.75095 21.3474C6.68695 21.2634 6.39395 21.0849 6.22895 21.0294C6.14895 21.0024 6.08345 20.9474 6.08345 20.9069C6.08345 20.8664 6.02695 20.8334 5.95845 20.8334C5.84795 20.8334 5.83345 19.8844 5.83345 12.7914V4.74985L5.64595 4.75635C5.54245 4.75985 5.40195 4.78435 5.33345 4.81035ZM111.812 7.88885C111.595 7.90935 111.416 7.95735 111.416 7.99635C111.416 8.03585 111.229 8.09335 111 8.12485C110.771 8.15635 110.583 8.21635 110.583 8.25785C110.583 8.29935 110.489 8.33335 110.375 8.33335C110.26 8.33335 110.166 8.36785 110.166 8.40985C110.166 8.45185 110.054 8.51135 109.916 8.54135C109.779 8.57185 109.666 8.62685 109.666 8.66435C109.666 8.70135 109.566 8.75735 109.442 8.78785C109.319 8.81885 109.159 8.91135 109.088 8.99335C109.017 9.07535 108.874 9.16935 108.771 9.20185C108.667 9.23435 108.583 9.29585 108.583 9.33885C108.583 9.38135 108.535 9.41635 108.477 9.41635C108.418 9.41635 108.214 9.57585 108.022 9.77085C107.546 10.2549 107.48 10.3209 107.312 10.4809C107.232 10.5574 107.166 10.6509 107.166 10.6889C107.166 10.7264 107.073 10.8514 106.958 10.9659C106.844 11.0804 106.75 11.2249 106.75 11.2864C106.75 11.3484 106.693 11.4204 106.625 11.4469C106.556 11.4729 106.5 11.5709 106.5 11.6639C106.5 11.7569 106.462 11.8334 106.416 11.8334C106.371 11.8334 106.333 11.8894 106.333 11.9584C106.333 12.0269 106.296 12.0834 106.251 12.0834C106.205 12.0834 106.144 12.2334 106.115 12.4164C106.086 12.5999 106.03 12.7499 105.99 12.7499C105.951 12.7499 105.894 12.8999 105.865 13.0834C105.836 13.2664 105.779 13.4164 105.739 13.4164C105.699 13.4164 105.666 13.5214 105.666 13.6499C105.666 13.7784 105.62 13.9299 105.562 13.9874C105.485 14.0649 105.458 14.6094 105.458 16.1249C105.458 17.6404 105.485 18.1849 105.562 18.2624C105.62 18.3199 105.666 18.4714 105.666 18.5999C105.666 18.7284 105.7 18.8334 105.742 18.8334C105.783 18.8334 105.843 19.0209 105.875 19.2499C105.906 19.4789 105.963 19.6664 106.001 19.6664C106.039 19.6664 106.095 19.7789 106.125 19.9164C106.155 20.0539 106.214 20.1664 106.256 20.1664C106.299 20.1664 106.333 20.2229 106.333 20.2914C106.333 20.3604 106.371 20.4164 106.416 20.4164C106.462 20.4164 106.5 20.4929 106.5 20.5859C106.5 20.6789 106.553 20.7754 106.617 20.8004C106.682 20.8249 106.758 20.9364 106.785 21.0474C106.813 21.1589 106.873 21.2499 106.918 21.2499C106.963 21.2499 107 21.2904 107 21.3394C107 21.4499 107.289 21.7644 108.105 22.5414C108.566 22.9804 108.781 23.1399 109.021 23.2204C109.101 23.2474 109.166 23.2994 109.166 23.3364C109.166 23.3734 109.279 23.4279 109.416 23.4584C109.554 23.4884 109.666 23.5449 109.666 23.5834C109.666 23.6219 109.779 23.6779 109.916 23.7084C110.054 23.7384 110.166 23.7979 110.166 23.8399C110.166 23.8819 110.241 23.9164 110.333 23.9164C110.425 23.9164 110.5 23.9504 110.5 23.9919C110.5 24.0334 110.697 24.0944 110.937 24.1274C111.178 24.1599 111.402 24.2289 111.434 24.2809C111.516 24.4109 115.397 24.4134 115.482 24.2834C115.515 24.2334 115.727 24.1674 115.955 24.1369C116.182 24.1064 116.405 24.0444 116.451 23.9989C116.496 23.9539 116.601 23.9164 116.683 23.9164C116.766 23.9164 116.833 23.8834 116.833 23.8424C116.833 23.8019 116.964 23.7439 117.125 23.7139C117.285 23.6834 117.416 23.6274 117.416 23.5884C117.416 23.5499 117.517 23.4924 117.641 23.4619C117.764 23.4309 117.923 23.3384 117.995 23.2564C118.066 23.1744 118.206 23.0814 118.305 23.0504C118.403 23.0189 118.505 22.9389 118.531 22.8719C118.557 22.8049 118.618 22.7499 118.667 22.7499C118.762 22.7499 119.666 21.8854 119.666 21.7954C119.666 21.7664 119.76 21.6414 119.875 21.5179C119.989 21.3944 120.083 21.2479 120.083 21.1924C120.083 21.1369 120.132 21.0614 120.192 21.0249C120.304 20.9559 120.583 20.4144 120.583 20.2649C120.583 20.2184 120.623 20.1669 120.672 20.1509C120.721 20.1344 120.782 19.9629 120.808 19.7689L120.855 19.4164H119.469C118.293 19.4164 118.083 19.4354 118.083 19.5414C118.083 19.6104 118.05 19.6664 118.009 19.6664C117.968 19.6664 117.91 19.7634 117.88 19.8819C117.851 20.0004 117.734 20.1899 117.621 20.3024C117.509 20.4154 117.416 20.5454 117.416 20.5914C117.416 20.6869 116.826 21.2489 116.725 21.2494C116.688 21.2499 116.574 21.3409 116.471 21.4524C116.367 21.5639 116.182 21.6804 116.058 21.7114C115.934 21.7424 115.833 21.8014 115.833 21.8424C115.833 21.8829 115.761 21.9164 115.673 21.9164C115.586 21.9164 115.501 21.9549 115.485 22.0014C115.47 22.0479 115.26 22.1094 115.02 22.1379C114.78 22.1664 114.583 22.2219 114.583 22.2614C114.583 22.3009 114.077 22.3334 113.458 22.3334C112.839 22.3334 112.333 22.2999 112.333 22.2594C112.333 22.2189 112.127 22.1599 111.875 22.1284C111.623 22.0969 111.416 22.0449 111.416 22.0124C111.416 21.9799 111.229 21.8804 111 21.7914C110.771 21.7024 110.583 21.6049 110.583 21.5739C110.583 21.5429 110.489 21.4944 110.375 21.4659C110.26 21.4369 110.166 21.3764 110.166 21.3314C110.166 21.2869 110.128 21.2499 110.082 21.2499C110.003 21.2499 109.516 20.7654 108.979 20.1534C108.853 20.0099 108.75 19.8414 108.75 19.7794C108.75 19.7174 108.715 19.6664 108.673 19.6664C108.631 19.6664 108.572 19.5539 108.541 19.4164C108.511 19.2789 108.452 19.1664 108.41 19.1664C108.368 19.1664 108.333 19.0914 108.333 18.9999C108.333 18.9084 108.299 18.8334 108.257 18.8334C108.215 18.8334 108.154 18.6739 108.122 18.4789C108.089 18.2844 108.02 18.0984 107.969 18.0654C107.837 17.9819 107.837 14.4344 107.969 14.3509C108.021 14.3184 108.09 14.0949 108.122 13.8539C108.155 13.6134 108.207 13.4164 108.238 13.4164C108.299 13.4164 108.583 12.7989 108.583 12.6659C108.583 12.6204 108.618 12.5834 108.661 12.5834C108.704 12.5834 108.763 12.5064 108.793 12.4129C108.849 12.2334 108.967 12.0874 109.492 11.5414C109.933 11.0834 110.348 10.7499 110.476 10.7499C110.535 10.7499 110.583 10.7124 110.583 10.6664C110.583 10.6209 110.62 10.5834 110.666 10.5834C110.798 10.5834 111.416 10.2994 111.416 10.2384C111.416 10.2079 111.641 10.1569 111.917 10.1249C112.192 10.0929 112.438 10.0329 112.463 9.99185C112.523 9.89435 114.5 9.89285 114.5 9.99035C114.5 10.0309 114.706 10.0899 114.958 10.1214C115.21 10.1529 115.416 10.2074 115.416 10.2424C115.416 10.2779 115.567 10.3564 115.751 10.4169C115.935 10.4779 116.127 10.5774 116.178 10.6384C116.229 10.6999 116.323 10.7499 116.388 10.7499C116.452 10.7499 116.525 10.8014 116.549 10.8644C116.573 10.9274 116.722 11.0484 116.88 11.1334C117.038 11.2189 117.19 11.3604 117.218 11.4489C117.246 11.5369 117.359 11.6919 117.468 11.7934C117.577 11.8944 117.666 12.0199 117.666 12.0719C117.666 12.1239 117.703 12.1664 117.748 12.1664C117.793 12.1664 117.853 12.2604 117.882 12.3749C117.911 12.4894 117.968 12.5834 118.009 12.5834C118.05 12.5834 118.083 12.6394 118.083 12.7084C118.083 12.8144 118.292 12.8334 119.465 12.8334H120.848L120.789 12.4789C120.756 12.2844 120.699 12.1059 120.663 12.0824C120.626 12.0589 120.57 11.9364 120.539 11.8094C120.507 11.6829 120.415 11.5334 120.336 11.4769C120.256 11.4209 120.164 11.2904 120.131 11.1874C120.099 11.0844 120.041 10.9999 120.003 10.9999C119.965 10.9999 119.912 10.9084 119.884 10.7969C119.856 10.6854 119.758 10.5704 119.666 10.5414C119.575 10.5124 119.5 10.4294 119.5 10.3569C119.5 10.2329 118.985 9.66635 118.872 9.66635C118.844 9.66635 118.708 9.55385 118.57 9.41635C118.433 9.27885 118.275 9.16635 118.22 9.16635C118.165 9.16635 118.067 9.09285 118.002 9.00285C117.937 8.91285 117.779 8.81635 117.65 8.78785C117.522 8.75985 117.416 8.70385 117.416 8.66385C117.416 8.62335 117.285 8.56635 117.125 8.53585C116.964 8.50585 116.833 8.44785 116.833 8.40735C116.833 8.36635 116.766 8.33335 116.683 8.33335C116.601 8.33335 116.496 8.29585 116.451 8.25085C116.405 8.20535 116.182 8.14335 115.955 8.11285C115.727 8.08235 115.517 8.02035 115.487 7.97485C115.431 7.88935 112.539 7.82135 111.812 7.88885ZM52.5 16.1249V24.3334H56.875H61.25V23.3334V22.3334H58H54.75V19.7084V17.0834H57.6665H60.5835V16.1249V15.1664H57.6665H54.75V12.5414V9.91635H58H61.25V8.91635V7.91635H56.875H52.5V16.1249ZM41.5 16.2084V24.3334H45.4585H49.4165V23.3334V22.3334H46.625H43.8335V15.2084V8.08335H42.6665H41.5V16.2084ZM69.8794 8.45835C69.8484 8.66435 69.7879 8.83335 69.7449 8.83335C69.702 8.83335 69.6664 8.90835 69.6664 8.99985C69.6664 9.09135 69.6314 9.16635 69.5884 9.16635C69.5454 9.16635 69.4849 9.33535 69.4539 9.54135C69.423 9.74785 69.3679 9.91635 69.3314 9.91635C69.2954 9.91635 69.24 10.1039 69.2085 10.3334C69.1769 10.5624 69.1259 10.7499 69.0959 10.7499C69.0129 10.7499 68.8314 11.1969 68.7764 11.5354C68.7499 11.6994 68.699 11.8334 68.6629 11.8334C68.6274 11.8334 68.5714 11.9924 68.5389 12.1874C68.506 12.3824 68.4559 12.5604 68.4274 12.5834C68.3059 12.6799 68.1659 13.0154 68.1159 13.3294C68.0864 13.5149 68.0339 13.6664 67.9999 13.6664C67.966 13.6664 67.9139 13.8164 67.8844 13.9999C67.8554 14.1834 67.7944 14.3334 67.7489 14.3334C67.7034 14.3334 67.6664 14.4269 67.6664 14.5414C67.6664 14.6564 67.6334 14.7499 67.5929 14.7499C67.5519 14.7499 67.4934 14.9184 67.4624 15.1249C67.4319 15.3309 67.3759 15.4999 67.3389 15.4999C67.3014 15.4999 67.2475 15.6499 67.2179 15.8334C67.1884 16.0164 67.1274 16.1664 67.0824 16.1664C67.0369 16.1664 66.9999 16.2579 66.9999 16.3699C66.9999 16.4819 66.9644 16.5954 66.9214 16.6219C66.8784 16.6484 66.8179 16.8384 66.7869 17.0434C66.7564 17.2489 66.7024 17.4164 66.6679 17.4164C66.6329 17.4164 66.5804 17.5664 66.5514 17.7499C66.5219 17.9334 66.4609 18.0834 66.4154 18.0834C66.3704 18.0834 66.3335 18.1769 66.3335 18.2914C66.3335 18.4064 66.2979 18.4999 66.2549 18.4999C66.2119 18.4999 66.1514 18.6684 66.1204 18.8749C66.0894 19.0809 66.0314 19.2499 65.9914 19.2499C65.9514 19.2499 65.8944 19.3999 65.8654 19.5834C65.8359 19.7664 65.7794 19.9164 65.7394 19.9164C65.6994 19.9164 65.6664 20.0104 65.6664 20.1249C65.6664 20.2394 65.6339 20.3334 65.5939 20.3334C65.5539 20.3334 65.4979 20.4784 65.4699 20.6554C65.4414 20.8329 65.3619 21.0859 65.2929 21.2179C65.2239 21.3499 65.1674 21.5054 65.1669 21.5634C65.1669 21.6214 65.129 21.7434 65.0835 21.8344C65.0375 21.9254 64.9629 22.0734 64.9179 22.1629C64.8734 22.2524 64.812 22.4774 64.7824 22.6629C64.7529 22.8484 64.6964 22.9999 64.6569 22.9999C64.6174 22.9999 64.5614 23.1499 64.5319 23.3334C64.5024 23.5164 64.4459 23.6664 64.4059 23.6664C64.3659 23.6664 64.3335 23.7574 64.3335 23.8679C64.3335 23.9789 64.2889 24.0839 64.2349 24.1019C63.8364 24.2349 64.3739 24.3334 65.5009 24.3334H66.7424L66.7999 24.0209C66.8315 23.8489 66.8799 23.6894 66.9079 23.6664C67.0284 23.5669 67.1674 23.2319 67.2174 22.9204C67.2469 22.7349 67.3004 22.5834 67.3359 22.5834C67.3719 22.5834 67.4269 22.3959 67.4585 22.1664C67.49 21.9374 67.5404 21.7499 67.5709 21.7499C67.6459 21.7499 67.8174 21.3494 67.8834 21.0199L67.9374 20.7499L71.2394 20.7514C74.8094 20.7524 74.6974 20.7394 74.7804 21.1659C74.8479 21.5109 75.0179 21.9164 75.0959 21.9164C75.1259 21.9164 75.1769 22.1039 75.2085 22.3334C75.24 22.5624 75.2949 22.7499 75.3304 22.7499C75.3664 22.7499 75.4199 22.8714 75.4499 23.0199C75.5184 23.3629 75.6884 23.7499 75.7704 23.7499C75.8049 23.7499 75.8335 23.8219 75.8335 23.9099C75.8335 24.3249 75.8585 24.3334 77.1339 24.3334H78.3335V24.0884C78.3335 23.9534 78.2959 23.8199 78.2499 23.7914C78.2039 23.7634 78.1665 23.6769 78.1659 23.5989C78.1659 23.5214 78.1094 23.3499 78.0404 23.2179C77.9714 23.0859 77.892 22.8329 77.8634 22.6554C77.8349 22.4784 77.7794 22.3334 77.7394 22.3334C77.6994 22.3334 77.6664 22.2394 77.6664 22.1249C77.6664 22.0104 77.6339 21.9164 77.5939 21.9164C77.5539 21.9164 77.4975 21.7664 77.4679 21.5834C77.4384 21.3999 77.382 21.2499 77.3419 21.2499C77.3015 21.2499 77.2434 21.0819 77.2129 20.8769C77.1819 20.6719 77.1214 20.4819 77.0784 20.4554C77.0354 20.4284 76.9999 20.3339 76.9999 20.2449C76.9999 20.1559 76.9674 20.0834 76.9274 20.0834C76.8874 20.0834 76.8304 19.9334 76.8014 19.7499C76.7719 19.5664 76.7144 19.4164 76.6734 19.4164C76.6324 19.4164 76.5729 19.2289 76.5414 18.9999C76.5099 18.7709 76.4504 18.5834 76.4089 18.5834C76.3674 18.5834 76.3335 18.4894 76.3335 18.3749C76.3335 18.2604 76.2989 18.1664 76.2574 18.1664C76.2154 18.1664 76.1559 18.0164 76.1249 17.8334C76.0939 17.6499 76.0369 17.4999 75.9979 17.4999C75.9589 17.4999 75.9014 17.3309 75.8704 17.1249C75.8394 16.9184 75.7809 16.7499 75.7404 16.7499C75.7 16.7499 75.6664 16.6564 75.6664 16.5414C75.6664 16.4269 75.6339 16.3334 75.5939 16.3334C75.5539 16.3334 75.4975 16.1834 75.4679 15.9999C75.4384 15.8164 75.382 15.6664 75.3419 15.6664C75.3015 15.6664 75.2434 15.4989 75.2129 15.2934C75.1819 15.0884 75.1214 14.8984 75.0784 14.8719C75.0354 14.8454 74.9999 14.7504 74.9999 14.6614C74.9999 14.5729 74.9674 14.4999 74.9274 14.4999C74.8874 14.4999 74.8304 14.3499 74.8014 14.1664C74.7719 13.9834 74.7144 13.8334 74.6734 13.8334C74.6324 13.8334 74.5729 13.6459 74.5414 13.4164C74.5099 13.1874 74.4504 12.9999 74.4089 12.9999C74.3674 12.9999 74.3335 12.9064 74.3335 12.7914C74.3335 12.6769 74.3004 12.5834 74.2604 12.5834C74.2204 12.5834 74.1639 12.4334 74.1344 12.2499C74.1054 12.0664 74.0484 11.9164 74.0084 11.9164C73.9684 11.9164 73.9104 11.7479 73.8794 11.5414C73.8484 11.3354 73.7879 11.1664 73.7449 11.1664C73.702 11.1664 73.6664 11.0729 73.6664 10.9584C73.6664 10.8439 73.6339 10.7499 73.5939 10.7499C73.5539 10.7499 73.4975 10.5999 73.4679 10.4164C73.4384 10.2334 73.382 10.0834 73.3419 10.0834C73.3015 10.0834 73.2434 9.91535 73.2129 9.71035C73.1819 9.50485 73.1214 9.31535 73.0784 9.28835C73.0354 9.26185 72.9999 9.14835 72.9999 9.03635C72.9999 8.92485 72.9664 8.83335 72.9259 8.83335C72.8849 8.83335 72.8254 8.69285 72.7934 8.52085C72.712 8.08885 72.7014 8.08585 71.2384 8.08435L69.9354 8.08335L69.8794 8.45835ZM81.6664 16.2024V24.3334H84.9164C86.7039 24.3334 88.1664 24.3014 88.1664 24.2624C88.1664 24.2234 88.4944 24.1684 88.8949 24.1399C89.2954 24.1119 89.6359 24.0499 89.6519 24.0024C89.6674 23.9554 89.7899 23.9164 89.9234 23.9164C90.0574 23.9164 90.1664 23.8839 90.1664 23.8439C90.1664 23.8039 90.3164 23.7474 90.4999 23.7179C90.6834 23.6884 90.8335 23.6324 90.8335 23.5929C90.8335 23.5534 90.9744 23.4989 91.1464 23.4709C91.3189 23.4434 91.5139 23.3464 91.5794 23.2554C91.6454 23.1639 91.8044 23.0664 91.9329 23.0379C92.0614 23.0099 92.1664 22.9549 92.1664 22.9154C92.1664 22.8764 92.2479 22.8189 92.3475 22.7869C92.5679 22.7169 93.8055 21.4689 93.8764 21.2444C93.905 21.1559 93.9629 21.0834 94.0054 21.0834C94.0484 21.0834 94.0835 21.0259 94.0835 20.9554C94.0835 20.8854 94.1395 20.8064 94.2085 20.7799C94.2769 20.7539 94.3335 20.6609 94.3335 20.5744C94.3335 20.4874 94.368 20.4164 94.41 20.4164C94.452 20.4164 94.5114 20.3039 94.5414 20.1664C94.5719 20.0289 94.6274 19.9164 94.6654 19.9164C94.7034 19.9164 94.7599 19.7289 94.7914 19.4999C94.8229 19.2709 94.8829 19.0834 94.9244 19.0834C94.9659 19.0834 94.9999 19.0159 94.9999 18.9334C94.9999 18.8509 95.0399 18.7434 95.0884 18.6949C95.1369 18.6459 95.1989 18.1884 95.2259 17.6779C95.2529 17.1674 95.3069 16.7499 95.3459 16.7499C95.3849 16.7499 95.4164 16.5059 95.4164 16.2084C95.4164 15.9104 95.3849 15.6664 95.3459 15.6664C95.3074 15.6664 95.2519 15.2264 95.2229 14.6879C95.1939 14.1424 95.1329 13.6969 95.0854 13.6809C95.0385 13.6654 94.9999 13.5619 94.9999 13.4514C94.9999 13.3404 94.9669 13.2499 94.9259 13.2499C94.8855 13.2499 94.8269 13.0809 94.7959 12.8749C94.7649 12.6684 94.7089 12.4999 94.6709 12.4999C94.6329 12.4999 94.5774 12.3689 94.5469 12.2084C94.5169 12.0479 94.4565 11.9164 94.4129 11.9164C94.3689 11.9164 94.3335 11.8604 94.3335 11.7914C94.3335 11.7229 94.2999 11.6664 94.2589 11.6664C94.2179 11.6664 94.1609 11.5729 94.1324 11.4584C94.1034 11.3439 94.0434 11.2499 93.9984 11.2499C93.9534 11.2499 93.9164 11.2019 93.9164 11.1439C93.9164 11.0854 93.7574 10.8804 93.5624 10.6889C93.1554 10.2884 93.1029 10.2359 92.6839 9.81235C92.5139 9.64085 92.3269 9.49985 92.2679 9.49985C92.2094 9.49985 92.1399 9.44485 92.1144 9.37735C92.0884 9.30985 91.9394 9.23035 91.7834 9.20135C91.6274 9.17185 91.4999 9.11485 91.4999 9.07385C91.4999 9.03335 91.4434 8.99985 91.3749 8.99985C91.3059 8.99985 91.2499 8.96535 91.2499 8.92335C91.2499 8.88085 91.1374 8.82185 90.9999 8.79135C90.8624 8.76135 90.7499 8.70585 90.7499 8.66785C90.7499 8.62985 90.5624 8.57285 90.3335 8.54135C90.104 8.50985 89.9164 8.45035 89.9164 8.40885C89.9164 8.36735 89.8074 8.33335 89.6734 8.33335C89.5399 8.33335 89.4149 8.28635 89.396 8.22885C89.3689 8.14835 88.4984 8.11885 85.5139 8.09785L81.6664 8.07135V16.2024ZM129.448 8.41635C129.419 8.59985 129.367 8.74985 129.332 8.74985C129.297 8.74985 129.243 8.91835 129.212 9.12485C129.182 9.33085 129.121 9.49985 129.078 9.49985C129.035 9.49985 129 9.59385 129 9.70835C129 9.82285 128.963 9.91635 128.917 9.91635C128.872 9.91635 128.811 10.0664 128.782 10.2499C128.752 10.4334 128.699 10.5834 128.664 10.5834C128.628 10.5834 128.573 10.7709 128.541 10.9999C128.51 11.2289 128.45 11.4164 128.409 11.4164C128.367 11.4164 128.333 11.5104 128.333 11.6249C128.333 11.7394 128.296 11.8334 128.251 11.8334C128.205 11.8334 128.144 11.9834 128.115 12.1664C128.086 12.3499 128.032 12.4999 127.996 12.4999C127.96 12.4999 127.904 12.6594 127.872 12.8539C127.839 13.0489 127.789 13.2269 127.76 13.2499C127.639 13.3464 127.499 13.6819 127.449 13.9964C127.419 14.1814 127.366 14.3334 127.33 14.3334C127.295 14.3334 127.24 14.5209 127.208 14.7499C127.177 14.9789 127.126 15.1664 127.096 15.1664C127.02 15.1664 126.849 15.5669 126.783 15.8964C126.753 16.0449 126.7 16.1664 126.664 16.1664C126.628 16.1664 126.573 16.3539 126.541 16.5834C126.51 16.8124 126.459 16.9999 126.429 16.9999C126.346 16.9999 126.165 17.4469 126.11 17.7854C126.083 17.9494 126.033 18.0834 125.998 18.0834C125.964 18.0834 125.91 18.2519 125.879 18.4584C125.848 18.6644 125.788 18.8334 125.745 18.8334C125.702 18.8334 125.666 18.9084 125.666 18.9999C125.666 19.0914 125.631 19.1664 125.588 19.1664C125.545 19.1664 125.485 19.3354 125.454 19.5414C125.423 19.7479 125.369 19.9164 125.334 19.9164C125.3 19.9164 125.247 20.0664 125.218 20.2499C125.188 20.4334 125.127 20.5834 125.082 20.5834C125.037 20.5834 125 20.6769 125 20.7914C125 20.9064 124.967 20.9999 124.926 20.9999C124.885 20.9999 124.827 21.1679 124.796 21.3729C124.765 21.5779 124.708 21.7659 124.669 21.7899C124.63 21.8144 124.572 21.9839 124.541 22.1669C124.51 22.3499 124.451 22.4999 124.409 22.4999C124.367 22.4999 124.333 22.5729 124.333 22.6614C124.333 22.7504 124.299 22.8444 124.257 22.8704C124.215 22.8964 124.154 23.0764 124.122 23.2714C124.089 23.4659 124.035 23.6439 124.002 23.6664C123.968 23.6894 123.915 23.8489 123.883 24.0209L123.826 24.3334H125.059H126.292L126.4 24.0894C126.46 23.9554 126.53 23.7114 126.557 23.5479C126.583 23.3839 126.633 23.2499 126.667 23.2499C126.701 23.2499 126.752 23.0999 126.782 22.9164C126.811 22.7334 126.872 22.5834 126.917 22.5834C126.963 22.5834 127 22.4919 127 22.3799C127 22.2679 127.034 22.1554 127.076 22.1294C127.118 22.1034 127.177 21.9324 127.208 21.7494C127.239 21.5664 127.294 21.4164 127.33 21.4164C127.366 21.4164 127.419 21.2664 127.448 21.0834L127.502 20.7499H130.786C134.317 20.7499 134.333 20.7514 134.333 21.0504C134.333 21.1604 134.367 21.2499 134.409 21.2499C134.45 21.2499 134.51 21.4374 134.541 21.6664C134.573 21.8959 134.629 22.0834 134.667 22.0834C134.704 22.0834 134.76 22.2334 134.791 22.4164C134.822 22.5999 134.882 22.7499 134.924 22.7499C134.966 22.7499 135 22.8249 135 22.9164C135 23.0084 135.034 23.0834 135.075 23.0834C135.117 23.0834 135.177 23.2709 135.208 23.4999C135.24 23.7289 135.299 23.9164 135.341 23.9164C135.382 23.9164 135.416 24.0104 135.416 24.1249V24.3334H136.677H137.938L137.884 23.9964C137.854 23.8109 137.793 23.5859 137.748 23.4964C137.703 23.4064 137.63 23.2599 137.585 23.1704C137.54 23.0804 137.479 22.8554 137.449 22.6704C137.419 22.4849 137.363 22.3334 137.323 22.3334C137.284 22.3334 137.228 22.1834 137.198 21.9999C137.169 21.8164 137.112 21.6664 137.072 21.6664C137.032 21.6664 137 21.5729 137 21.4584C137 21.3439 136.967 21.2499 136.926 21.2499C136.885 21.2499 136.827 21.0809 136.796 20.8749C136.765 20.6684 136.708 20.4999 136.669 20.4999C136.63 20.4999 136.572 20.3499 136.541 20.1669C136.511 19.9839 136.451 19.8129 136.409 19.7869C136.367 19.7614 136.333 19.6674 136.333 19.5784C136.333 19.4894 136.299 19.4164 136.258 19.4164C136.216 19.4164 136.156 19.2289 136.125 18.9999C136.093 18.7709 136.034 18.5834 135.993 18.5834C135.952 18.5834 135.894 18.4334 135.865 18.2499C135.836 18.0664 135.779 17.9164 135.739 17.9164C135.699 17.9164 135.666 17.8229 135.666 17.7084C135.666 17.5939 135.631 17.4999 135.588 17.4999C135.545 17.4999 135.485 17.3309 135.454 17.1249C135.423 16.9184 135.365 16.7499 135.325 16.7499C135.285 16.7499 135.228 16.5999 135.198 16.4164C135.169 16.2334 135.112 16.0834 135.072 16.0834C135.032 16.0834 135 15.9894 135 15.8749C135 15.7604 134.967 15.6664 134.927 15.6664C134.887 15.6664 134.831 15.5214 134.803 15.3444C134.774 15.1669 134.695 14.9139 134.626 14.7819C134.557 14.6499 134.501 14.4784 134.5 14.4009C134.5 14.3229 134.462 14.2364 134.416 14.2084C134.371 14.1799 134.333 14.0839 134.333 13.9949C134.333 13.9059 134.299 13.8334 134.258 13.8334C134.216 13.8334 134.156 13.6459 134.125 13.4164C134.093 13.1874 134.034 12.9999 133.993 12.9999C133.952 12.9999 133.894 12.8499 133.865 12.6664C133.836 12.4834 133.779 12.3334 133.739 12.3334C133.699 12.3334 133.666 12.2394 133.666 12.1249C133.666 12.0104 133.633 11.9164 133.593 11.9164C133.552 11.9164 133.493 11.7479 133.462 11.5414C133.432 11.3354 133.374 11.1664 133.335 11.1664C133.296 11.1664 133.239 11.0164 133.208 10.8334C133.177 10.6499 133.118 10.4999 133.076 10.4999C133.034 10.4999 133 10.4064 133 10.2914C133 10.1769 132.966 10.0834 132.924 10.0834C132.883 10.0834 132.823 9.89585 132.791 9.66635C132.76 9.43735 132.701 9.24985 132.66 9.24985C132.619 9.24985 132.561 9.09985 132.532 8.91635C132.502 8.73335 132.446 8.58335 132.406 8.58335C132.366 8.58335 132.333 8.49335 132.333 8.38385C132.333 8.10335 132.229 8.08335 130.786 8.08335H129.502L129.448 8.41635ZM141.25 16.2029V24.3334H142.458H143.666V20.9999V17.6664H145.541C146.573 17.6664 147.416 17.6344 147.416 17.5954C147.416 17.5564 147.726 17.5009 148.104 17.4714C148.482 17.4424 148.803 17.3809 148.819 17.3344C148.834 17.2879 148.938 17.2499 149.048 17.2499C149.159 17.2499 149.25 17.2174 149.25 17.1774C149.25 17.1374 149.4 17.0804 149.583 17.0514C149.766 17.0219 149.916 16.9649 149.916 16.9244C149.916 16.8844 150.01 16.8279 150.125 16.7989C150.239 16.7704 150.333 16.7099 150.333 16.6649C150.333 16.6199 150.371 16.5834 150.417 16.5834C150.543 16.5834 151.25 15.8954 151.25 15.7729C151.25 15.7144 151.287 15.6664 151.331 15.6664C151.376 15.6664 151.437 15.5729 151.466 15.4584C151.494 15.3439 151.551 15.2499 151.592 15.2499C151.633 15.2499 151.666 15.1934 151.666 15.1249C151.666 15.0564 151.702 14.9999 151.746 14.9999C151.79 14.9999 151.851 14.8594 151.883 14.6874C151.915 14.5154 151.982 14.3479 152.033 14.3154C152.171 14.2259 152.16 11.4839 152.021 11.4374C151.963 11.4184 151.916 11.2899 151.916 11.1514C151.916 10.9114 151.694 10.4054 151.562 10.3469C151.528 10.3319 151.5 10.2679 151.5 10.2049C151.5 10.0384 150.263 8.83985 150.03 8.78135C149.922 8.75385 149.833 8.70235 149.833 8.66685C149.833 8.63085 149.702 8.57735 149.541 8.54685C149.381 8.51685 149.25 8.45635 149.25 8.41285C149.25 8.36885 149.14 8.33335 149.007 8.33335C148.873 8.33335 148.748 8.28635 148.729 8.22885C148.702 8.14835 147.857 8.11885 144.972 8.09835L141.25 8.07235V16.2029ZM155.666 16.2084V24.3334H156.791H157.916V16.2084V8.08335H156.791H155.666V16.2084ZM161.416 8.99985V9.91635H163.541H165.666V17.1249V24.3334H166.875H168.083V17.1249V9.91635H170.208H172.333V8.99985V8.08335H166.875H161.416V8.99985ZM180.5 8.28935C180.5 8.40535 180.471 8.49985 180.437 8.49985C180.355 8.49985 180.185 8.88685 180.116 9.22985C180.087 9.37835 180.033 9.49985 179.997 9.49985C179.961 9.49985 179.906 9.68735 179.875 9.91635C179.843 10.1459 179.793 10.3334 179.762 10.3334C179.68 10.3334 179.498 10.7804 179.443 11.1189C179.416 11.2824 179.367 11.4164 179.333 11.4164C179.299 11.4164 179.247 11.5664 179.218 11.7499C179.188 11.9334 179.127 12.0834 179.082 12.0834C179.037 12.0834 179 12.1769 179 12.2914C179 12.4064 178.965 12.4999 178.922 12.4999C178.878 12.4999 178.818 12.6684 178.787 12.8749C178.756 13.0809 178.702 13.2499 178.668 13.2499C178.633 13.2499 178.58 13.3999 178.551 13.5834C178.522 13.7664 178.461 13.9164 178.415 13.9164C178.37 13.9164 178.333 14.0104 178.333 14.1249C178.333 14.2394 178.299 14.3334 178.258 14.3334C178.216 14.3334 178.156 14.5209 178.125 14.7499C178.093 14.9789 178.037 15.1664 177.999 15.1664C177.962 15.1664 177.906 15.3164 177.875 15.4999C177.844 15.6834 177.784 15.8334 177.742 15.8334C177.701 15.8334 177.666 15.9059 177.666 15.9949C177.666 16.0839 177.631 16.1784 177.588 16.2054C177.545 16.2319 177.484 16.4219 177.453 16.6269C177.423 16.8319 177.369 16.9999 177.334 16.9999C177.3 16.9999 177.247 17.1499 177.218 17.3334C177.188 17.5164 177.127 17.6664 177.082 17.6664C177.037 17.6664 177 17.7604 177 17.8749C177 17.9894 176.967 18.0834 176.926 18.0834C176.885 18.0834 176.827 18.2519 176.796 18.4584C176.765 18.6644 176.708 18.8334 176.669 18.8334C176.63 18.8334 176.572 18.9834 176.541 19.1664C176.51 19.3499 176.451 19.4999 176.409 19.4999C176.367 19.4999 176.333 19.5914 176.333 19.7034C176.333 19.8154 176.298 19.9284 176.255 19.9554C176.211 19.9819 176.151 20.1719 176.12 20.3769C176.089 20.5819 176.031 20.7499 175.991 20.7499C175.951 20.7499 175.894 20.8999 175.865 21.0834C175.836 21.2664 175.779 21.4164 175.739 21.4164C175.699 21.4164 175.666 21.4894 175.666 21.5784C175.666 21.6674 175.631 21.7619 175.588 21.7884C175.545 21.8154 175.484 22.0049 175.453 22.2104C175.423 22.4154 175.365 22.5834 175.325 22.5834C175.285 22.5834 175.228 22.7334 175.198 22.9164C175.169 23.0999 175.112 23.2499 175.072 23.2499C175.032 23.2499 175 23.3404 175 23.4514C175 23.5619 174.968 23.6654 174.928 23.6804C174.889 23.6959 174.831 23.8489 174.8 24.0209L174.742 24.3334H175.996C177.055 24.3334 177.25 24.3139 177.25 24.2084C177.25 24.1394 177.284 24.0834 177.325 24.0834C177.367 24.0834 177.427 23.8959 177.458 23.6664C177.49 23.4374 177.549 23.2499 177.591 23.2499C177.632 23.2499 177.666 23.1564 177.666 23.0414C177.666 22.9269 177.703 22.8334 177.749 22.8334C177.794 22.8334 177.855 22.6834 177.884 22.4999C177.914 22.3164 177.966 22.1664 178.001 22.1664C178.036 22.1664 178.089 21.9979 178.12 21.7914C178.151 21.5854 178.212 21.4164 178.255 21.4164C178.298 21.4164 178.333 21.3229 178.333 21.2084C178.333 21.0939 178.371 20.9999 178.416 20.9999C178.462 20.9999 178.5 20.9434 178.5 20.8739C178.5 20.7634 178.907 20.7509 181.854 20.7699L185.208 20.7914L185.234 21.0209C185.249 21.1469 185.291 21.2499 185.328 21.2499C185.365 21.2499 185.419 21.4014 185.449 21.5869C185.499 21.9014 185.639 22.2369 185.76 22.3334C185.789 22.3559 185.839 22.5344 185.872 22.7289C185.904 22.9239 185.96 23.0834 185.996 23.0834C186.032 23.0834 186.086 23.2349 186.116 23.4204C186.169 23.7569 186.288 24.0234 186.473 24.2259C186.544 24.3034 186.888 24.3334 187.713 24.3334H188.856L188.802 23.9419C188.773 23.7269 188.716 23.5299 188.676 23.5044C188.636 23.4789 188.577 23.2989 188.544 23.1039C188.512 22.9094 188.451 22.7499 188.409 22.7499C188.367 22.7499 188.333 22.6564 188.333 22.5414C188.333 22.4269 188.3 22.3334 188.26 22.3334C188.22 22.3334 188.164 22.1834 188.134 21.9999C188.105 21.8164 188.048 21.6664 188.008 21.6664C187.968 21.6664 187.91 21.4989 187.879 21.2934C187.849 21.0884 187.788 20.8984 187.745 20.8719C187.702 20.8454 187.666 20.7504 187.666 20.6614C187.666 20.5729 187.629 20.4999 187.583 20.4999C187.537 20.4999 187.5 20.4154 187.499 20.3124C187.499 20.2094 187.442 20.0169 187.373 19.8849C187.305 19.7524 187.225 19.4994 187.197 19.3224C187.168 19.1449 187.112 18.9999 187.072 18.9999C187.032 18.9999 187 18.9064 187 18.7914C187 18.6769 186.967 18.5834 186.927 18.5834C186.887 18.5834 186.83 18.4334 186.801 18.2499C186.772 18.0664 186.715 17.9164 186.675 17.9164C186.635 17.9164 186.577 17.7479 186.546 17.5414C186.515 17.3354 186.454 17.1664 186.411 17.1664C186.368 17.1664 186.333 17.0729 186.333 16.9584C186.333 16.8439 186.3 16.7499 186.26 16.7499C186.22 16.7499 186.164 16.5999 186.134 16.4164C186.105 16.2334 186.048 16.0834 186.008 16.0834C185.968 16.0834 185.91 15.9154 185.879 15.7104C185.849 15.5049 185.788 15.3154 185.745 15.2884C185.702 15.2619 185.666 15.1484 185.666 15.0364C185.666 14.9249 185.632 14.8334 185.59 14.8334C185.549 14.8334 185.489 14.6834 185.458 14.4999C185.427 14.3164 185.37 14.1664 185.331 14.1664C185.292 14.1664 185.235 13.9979 185.204 13.7914C185.173 13.5854 185.114 13.4164 185.074 13.4164C185.033 13.4164 185 13.3229 185 13.2084C185 13.0939 184.967 12.9999 184.927 12.9999C184.887 12.9999 184.83 12.8499 184.801 12.6664C184.772 12.4834 184.715 12.3334 184.675 12.3334C184.635 12.3334 184.577 12.1654 184.546 11.9604C184.515 11.7549 184.455 11.5654 184.412 11.5384C184.368 11.5119 184.333 11.4174 184.333 11.3284C184.333 11.2394 184.3 11.1664 184.26 11.1664C184.22 11.1664 184.164 11.0164 184.134 10.8334C184.105 10.6499 184.048 10.4999 184.007 10.4999C183.966 10.4999 183.906 10.3124 183.875 10.0834C183.843 9.85385 183.783 9.66635 183.742 9.66635C183.7 9.66635 183.666 9.57285 183.666 9.45835C183.666 9.34385 183.634 9.24985 183.594 9.24985C183.554 9.24985 183.497 9.09985 183.468 8.91635C183.438 8.73335 183.38 8.58335 183.338 8.58335C183.295 8.58335 183.249 8.47985 183.234 8.35385L183.208 8.12485L181.854 8.10185L180.5 8.07885V8.28935ZM192.187 16.1874L192.208 24.2914L196.104 24.3134L200 24.3349V23.3339V22.3334H197.291H194.583V15.2084V8.08335H193.374H192.166L192.187 16.1874ZM87.4164 9.98735C87.4164 10.0264 87.7234 10.0824 88.0984 10.1109C88.4734 10.1399 88.8184 10.2019 88.8649 10.2484C88.9119 10.2949 89.0549 10.3334 89.1834 10.3334C89.3114 10.3334 89.4164 10.3709 89.4164 10.4164C89.4164 10.4624 89.464 10.4999 89.5219 10.4999C89.5799 10.4999 89.7674 10.5749 89.9384 10.6664C90.1094 10.7584 90.2839 10.8334 90.3259 10.8334C90.4769 10.8334 91.8335 12.1009 91.8335 12.2424C91.8335 12.2859 91.8804 12.3709 91.938 12.4314C91.9955 12.4919 92.1174 12.7004 92.2089 12.8949C92.3004 13.0889 92.3989 13.2484 92.4279 13.2489C92.4569 13.2494 92.5079 13.4279 92.5404 13.6459C92.5729 13.8634 92.6349 14.0634 92.6779 14.0899C92.7209 14.1169 92.7789 14.4649 92.8074 14.8639C92.8354 15.2624 92.8904 15.6084 92.9289 15.6329C93.0214 15.6899 93.0214 16.8099 92.9289 16.8669C92.8904 16.8914 92.8344 17.2189 92.8054 17.5954C92.7764 17.9719 92.7204 18.3014 92.6809 18.3274C92.6419 18.3534 92.5839 18.5059 92.5529 18.6659C92.4859 19.0089 92.3155 19.4164 92.2384 19.4164C92.2089 19.4164 92.1594 19.5179 92.1284 19.6414C92.0969 19.7654 91.9805 19.9509 91.8689 20.0544C91.7579 20.1574 91.6664 20.2719 91.6664 20.3084C91.6654 20.3994 91.1079 20.9999 91.0239 20.9999C90.9869 20.9999 90.8569 21.0919 90.7354 21.2049C90.6139 21.3174 90.4174 21.4339 90.299 21.4639C90.1805 21.4934 90.0835 21.5484 90.0835 21.5854C90.0835 21.6229 89.9715 21.6779 89.8344 21.7079C89.6974 21.7379 89.5639 21.7974 89.5374 21.8394C89.5114 21.8819 89.4174 21.9164 89.3284 21.9164C89.2394 21.9164 89.1664 21.9514 89.1664 21.9944C89.1664 22.0369 88.8664 22.0979 88.4999 22.1299C88.1334 22.1619 87.8335 22.2209 87.8335 22.2609C87.8335 22.3004 86.9894 22.3334 85.9585 22.3334H84.0835V16.1249V9.91635H85.7499C86.6664 9.91635 87.4164 9.94835 87.4164 9.98735ZM146.583 9.98735C146.583 10.0264 146.929 10.0809 147.353 10.1084C147.776 10.1359 148.135 10.1974 148.151 10.2459C148.167 10.2939 148.252 10.3334 148.34 10.3334C148.428 10.3334 148.5 10.3709 148.5 10.4164C148.5 10.4624 148.548 10.4999 148.606 10.4999C148.665 10.4999 148.775 10.5654 148.85 10.6459C148.926 10.7259 149.038 10.8364 149.098 10.8919C149.31 11.0854 149.41 11.2374 149.464 11.4509C149.493 11.5694 149.551 11.6664 149.592 11.6664C149.633 11.6664 149.666 11.7789 149.666 11.9164C149.666 12.0539 149.704 12.1664 149.75 12.1664C149.798 12.1664 149.833 12.4304 149.833 12.7914C149.833 13.1529 149.798 13.4164 149.75 13.4164C149.704 13.4164 149.666 13.5289 149.666 13.6664C149.666 13.8039 149.632 13.9164 149.59 13.9164C149.548 13.9164 149.488 14.0304 149.457 14.1699C149.396 14.4504 148.758 15.1274 148.474 15.2144C148.373 15.2454 148.247 15.3059 148.193 15.3489C148.139 15.3919 147.886 15.4489 147.631 15.4754C147.375 15.5019 147.166 15.5554 147.166 15.5949C147.166 15.6344 146.379 15.6664 145.416 15.6664H143.666V12.7914V9.91635H145.125C145.927 9.91635 146.583 9.94835 146.583 9.98735ZM71.4585 11.7494C71.489 11.9324 71.5484 12.1034 71.5904 12.1294C71.6324 12.1554 71.6664 12.2494 71.6664 12.3384C71.6664 12.4269 71.702 12.4999 71.7449 12.4999C71.7879 12.4999 71.8484 12.6684 71.8794 12.8749C71.9104 13.0809 71.9644 13.2499 71.9999 13.2499C72.0354 13.2499 72.0894 13.4179 72.1204 13.6229C72.1509 13.8279 72.2114 14.0179 72.2549 14.0444C72.2979 14.0714 72.3335 14.1659 72.3335 14.2549C72.3335 14.3439 72.3674 14.4164 72.4094 14.4164C72.4509 14.4164 72.5104 14.5664 72.5414 14.7494C72.5724 14.9324 72.6299 15.1024 72.6689 15.1264C72.7084 15.1504 72.7654 15.3384 72.7964 15.5434C72.827 15.7489 72.8855 15.9164 72.9259 15.9164C72.9669 15.9164 72.9999 16.0104 72.9999 16.1249C72.9999 16.2394 73.0324 16.3334 73.0724 16.3334C73.1124 16.3334 73.1694 16.4834 73.1984 16.6664C73.228 16.8499 73.2849 16.9999 73.3249 16.9999C73.3649 16.9999 73.423 17.1684 73.4539 17.3749C73.4849 17.5809 73.5454 17.7499 73.5884 17.7499C73.6314 17.7499 73.6664 17.8404 73.6664 17.9514C73.6664 18.0619 73.6979 18.1654 73.7369 18.1804C73.7754 18.1959 73.8304 18.3299 73.8594 18.4789L73.9124 18.7499H71.3219H68.7314L68.7894 18.4374C68.8209 18.2654 68.8814 18.1124 68.9234 18.0969C68.9654 18.0819 68.9999 17.9789 68.9999 17.8679C68.9999 17.7574 69.034 17.6664 69.0754 17.6664C69.1169 17.6664 69.1769 17.4789 69.2085 17.2499C69.24 17.0209 69.2989 16.8334 69.3399 16.8334C69.3809 16.8334 69.4384 16.6834 69.4679 16.4999C69.4975 16.3164 69.5539 16.1664 69.5939 16.1664C69.6339 16.1664 69.6664 16.0939 69.6664 16.0049C69.6664 15.9159 69.702 15.8214 69.7449 15.7944C69.7885 15.7679 69.8489 15.5779 69.8794 15.3729C69.9104 15.1679 69.9639 14.9999 69.9989 14.9999C70.0334 14.9999 70.0859 14.8499 70.1154 14.6664C70.1444 14.4834 70.2054 14.3334 70.2509 14.3334C70.2964 14.3334 70.3335 14.2419 70.3335 14.1299C70.3335 14.0179 70.3674 13.9054 70.4094 13.8794C70.4514 13.8534 70.5109 13.6829 70.5414 13.4999C70.5724 13.3169 70.6299 13.1474 70.6689 13.1234C70.7084 13.0994 70.7654 12.9114 70.7964 12.7064C70.827 12.5009 70.8764 12.3334 70.9059 12.3334C70.9704 12.3334 71.1365 11.9614 71.2124 11.6459C71.2915 11.3194 71.393 11.3624 71.4585 11.7494ZM131 11.5784C131 11.6674 131.035 11.7619 131.078 11.7884C131.121 11.8154 131.182 12.0049 131.213 12.2104C131.243 12.4154 131.297 12.5834 131.332 12.5834C131.367 12.5834 131.419 12.7334 131.448 12.9164C131.478 13.0999 131.539 13.2499 131.584 13.2499C131.629 13.2499 131.666 13.3439 131.666 13.4584C131.666 13.5729 131.699 13.6664 131.739 13.6664C131.779 13.6664 131.837 13.8239 131.868 14.0164C131.899 14.2089 131.954 14.4059 131.992 14.4539C132.029 14.5024 132.086 14.6539 132.118 14.7914C132.195 15.1229 132.36 15.4999 132.429 15.4999C132.459 15.4999 132.51 15.6874 132.541 15.9164C132.573 16.1459 132.628 16.3334 132.665 16.3334C132.701 16.3334 132.756 16.5019 132.787 16.7084C132.818 16.9144 132.878 17.0834 132.922 17.0834C132.965 17.0834 133 17.1769 133 17.2914C133 17.4064 133.036 17.4999 133.079 17.4999C133.123 17.4999 133.185 17.6404 133.216 17.8124C133.248 17.9844 133.3 18.1434 133.332 18.1664C133.364 18.1894 133.414 18.3299 133.443 18.4789L133.496 18.7499H130.914H128.333V18.5414C128.333 18.4269 128.366 18.3334 128.406 18.3334C128.446 18.3334 128.502 18.1834 128.532 17.9999C128.561 17.8164 128.619 17.6664 128.66 17.6664C128.701 17.6664 128.76 17.4789 128.791 17.2499C128.823 17.0209 128.883 16.8334 128.924 16.8334C128.966 16.8334 129 16.7394 129 16.6249C129 16.5104 129.035 16.4164 129.078 16.4164C129.121 16.4164 129.182 16.2479 129.212 16.0414C129.243 15.8354 129.301 15.6664 129.342 15.6664C129.382 15.6664 129.438 15.5164 129.468 15.3334C129.497 15.1499 129.554 14.9999 129.594 14.9999C129.634 14.9999 129.666 14.9064 129.666 14.7914C129.666 14.6769 129.7 14.5834 129.74 14.5834C129.781 14.5834 129.839 14.4154 129.87 14.2104C129.901 14.0049 129.958 13.8174 129.997 13.7929C130.037 13.7689 130.094 13.5994 130.125 13.4159C130.156 13.2329 130.215 13.0834 130.257 13.0834C130.299 13.0834 130.333 13.0104 130.333 12.9214C130.333 12.8324 130.368 12.7379 130.412 12.7114C130.455 12.6844 130.515 12.4949 130.546 12.2894C130.577 12.0844 130.635 11.9164 130.676 11.9164C130.717 11.9164 130.75 11.8289 130.75 11.7219C130.75 11.6154 130.775 11.5029 130.805 11.4719C130.91 11.3674 131 11.4164 131 11.5784ZM182.001 11.7914C182.038 11.8374 182.095 12.0159 182.127 12.1884C182.159 12.3609 182.219 12.5224 182.259 12.5474C182.3 12.5724 182.333 12.6844 182.333 12.7964C182.333 12.9084 182.37 12.9999 182.415 12.9999C182.461 12.9999 182.522 13.1499 182.551 13.3334C182.58 13.5164 182.633 13.6664 182.668 13.6664C182.702 13.6664 182.756 13.8344 182.787 14.0394C182.818 14.2449 182.878 14.4344 182.921 14.4614C182.964 14.4879 183 14.5824 183 14.6714C183 14.7604 183.032 14.8334 183.072 14.8334C183.112 14.8334 183.169 14.9834 183.198 15.1664C183.228 15.3499 183.285 15.4999 183.326 15.4999C183.367 15.4999 183.427 15.6874 183.458 15.9164C183.49 16.1459 183.549 16.3334 183.591 16.3334C183.632 16.3334 183.666 16.4269 183.666 16.5414C183.666 16.6564 183.701 16.7499 183.742 16.7499C183.784 16.7499 183.844 16.8999 183.875 17.0834C183.906 17.2664 183.963 17.4164 184.002 17.4164C184.041 17.4164 184.098 17.5854 184.129 17.7914C184.16 17.9979 184.219 18.1664 184.259 18.1664C184.3 18.1664 184.333 18.2604 184.333 18.3749C184.333 18.4894 184.371 18.5834 184.416 18.5834C184.462 18.5834 184.5 18.6209 184.5 18.6664C184.5 18.7204 183.569 18.7499 181.875 18.7499H179.25V18.5414C179.25 18.4269 179.287 18.3334 179.332 18.3334C179.377 18.3334 179.438 18.1834 179.468 17.9999C179.497 17.8164 179.554 17.6664 179.594 17.6664C179.634 17.6664 179.666 17.5729 179.666 17.4584C179.666 17.3439 179.7 17.2499 179.742 17.2499C179.783 17.2499 179.843 17.0624 179.875 16.8334C179.906 16.6039 179.963 16.4164 180 16.4164C180.038 16.4164 180.094 16.2664 180.125 16.0834C180.156 15.8999 180.215 15.7499 180.257 15.7499C180.299 15.7499 180.333 15.6769 180.333 15.5884C180.333 15.4994 180.368 15.4044 180.412 15.3779C180.455 15.3514 180.515 15.1614 180.546 14.9564C180.577 14.7509 180.631 14.5834 180.666 14.5834C180.702 14.5834 180.756 14.4144 180.787 14.2084C180.818 14.0019 180.878 13.8334 180.922 13.8334C180.965 13.8334 181 13.7604 181 13.6714C181 13.5824 181.034 13.4884 181.076 13.4629C181.118 13.4369 181.177 13.2659 181.208 13.0829C181.239 12.8999 181.295 12.7499 181.333 12.7499C181.37 12.7499 181.427 12.5624 181.458 12.3334C181.49 12.1039 181.549 11.9164 181.591 11.9164C181.632 11.9164 181.666 11.8259 181.666 11.7154C181.666 11.4859 181.859 11.3729 181.905 11.5754C181.921 11.6484 181.964 11.7459 182.001 11.7914Z" fill="#FCFCFC"/>
<path fill-rule="evenodd" clip-rule="evenodd" d="M19.7085 4.09315C19.479 4.24015 19.1325 4.44765 18.9375 4.55515C18.7425 4.66215 18.405 4.84965 18.1875 4.97165C17.97 5.09315 17.6165 5.29015 17.402 5.40915C17.188 5.52765 16.794 5.75515 16.527 5.91365C16.26 6.07265 15.9665 6.24365 15.875 6.29365C15.6445 6.42015 14.6185 7.01115 14.328 7.18415L14.0895 7.32665L14.045 7.05915C14.0205 6.91215 13.9885 6.62315 13.973 6.41665C13.958 6.21065 13.939 6.47515 13.931 7.00415C13.913 8.22315 14.079 8.38165 14.7335 7.77115C14.795 7.71365 14.899 7.66665 14.9645 7.66665C15.03 7.66665 15.0835 7.63365 15.0835 7.59315C15.0835 7.52815 15.243 7.45815 15.444 7.43565C15.4815 7.43115 15.576 7.35965 15.6535 7.27665C15.833 7.08415 16.4495 6.75015 16.6255 6.75015C16.6995 6.75015 16.7365 6.71265 16.7085 6.66665C16.68 6.62115 16.7295 6.58365 16.818 6.58365C16.907 6.58365 17.0265 6.52715 17.0835 6.45865C17.1405 6.38965 17.2385 6.33365 17.302 6.33365C17.365 6.33365 17.4165 6.29665 17.4165 6.25165C17.4165 6.20665 17.5105 6.14665 17.625 6.11765C17.7395 6.08915 17.8335 6.03215 17.8335 5.99115C17.8335 5.95015 17.905 5.91665 17.993 5.91665C18.081 5.91665 18.1655 5.88715 18.1805 5.85065C18.2125 5.77465 18.845 5.37615 18.935 5.37565C18.9675 5.37515 19.071 5.30965 19.164 5.23015C19.257 5.15015 19.3335 5.10465 19.3335 5.12915C19.3335 5.15315 19.4735 5.07765 19.6445 4.96165C19.8155 4.84515 20.003 4.75015 20.061 4.75015C20.119 4.75015 20.1665 4.71715 20.1665 4.67665C20.1665 4.63615 20.2325 4.58065 20.3125 4.55415C20.686 4.42865 21.0035 4.14115 20.9195 4.00465C20.7715 3.76515 20.15 3.81115 19.7085 4.09315ZM27.294 16.2316C27.158 16.3106 26.996 16.4221 26.934 16.4791C26.872 16.5366 26.781 16.5836 26.731 16.5836C26.6815 16.5836 26.518 16.6771 26.3675 16.7916C26.2175 16.9066 26.0545 17.0001 26.0055 17.0001C25.9565 17.0001 25.9165 17.0376 25.9165 17.0836C25.9165 17.1291 25.8445 17.1666 25.756 17.1666C25.6675 17.1666 25.545 17.2136 25.4835 17.2711C25.3735 17.3741 25.1515 17.5051 24.5835 17.8046C24.423 17.8891 24.273 17.9771 24.25 18.0001C24.1655 18.0846 23.871 18.2561 23.729 18.3041C23.649 18.3306 23.5835 18.3816 23.5835 18.4166C23.5835 18.4761 23.352 18.5666 23.244 18.5496C23.218 18.5451 23.131 18.6076 23.0505 18.6876C22.9705 18.7676 22.851 18.8336 22.7855 18.8336C22.72 18.8336 22.6665 18.8711 22.6665 18.9166C22.6665 18.9626 22.608 19.0001 22.5365 19.0001C22.4655 19.0001 22.43 19.0376 22.4585 19.0836C22.4865 19.1291 22.451 19.1666 22.3795 19.1666C22.235 19.1666 21.8395 19.3666 21.458 19.6326C21.3205 19.7281 21.1425 19.8301 21.0625 19.8591C20.8485 19.9361 20.883 20.0481 21.187 20.2651C21.709 20.6381 21.987 20.7576 22.059 20.6401C22.0955 20.5811 22.256 20.4661 22.4165 20.3851C22.577 20.3036 22.8585 20.1511 23.0415 20.0461C23.225 19.9411 23.675 19.6951 24.0415 19.4996C24.4085 19.3046 24.808 19.0746 24.9295 18.9891C25.051 18.9036 25.1695 18.8336 25.1925 18.8336C25.2155 18.8336 25.6385 18.6086 26.132 18.3336C26.6255 18.0586 27.055 17.8336 27.0865 17.8336C27.1185 17.8336 27.2425 17.7561 27.363 17.6616C27.4835 17.5666 27.6175 17.5116 27.6615 17.5386C27.8095 17.6301 27.9165 17.2656 27.9165 16.6721C27.9165 16.0091 27.809 15.9326 27.294 16.2316Z" fill="#ACACAC"/>
<path fill-rule="evenodd" clip-rule="evenodd" d="M13.8505 1.979C13.8675 3.971 13.897 3.7415 13.937 1.3125C13.9485 0.5905 13.93 0 13.896 0C13.8615 0 13.841 0.8905 13.8505 1.979Z" fill="#BCBCBC"/>
<path fill-rule="evenodd" clip-rule="evenodd" d="M13.8505 5.97414C13.841 7.12914 13.8615 8.09114 13.896 8.11264C13.93 8.13364 13.9485 7.52664 13.937 6.76314C13.8965 4.13914 13.868 3.87914 13.8505 5.97414Z" fill="#D4D4D4"/>
</g>
<defs>
<clipPath id="clip0_211_1918">
<rect width="200" height="32.2667" fill="white"/>
</clipPath>
</defs>
</svg>
