<svg width="200" height="36" viewBox="0 0 200 36" fill="none" xmlns="http://www.w3.org/2000/svg">
<path d="M64.8704 10.7745L60.2974 23.6067C60.2764 23.6687 60.2352 23.7219 60.1802 23.758C60.1252 23.794 60.0597 23.8107 59.994 23.8056H59.6475C59.5816 23.8081 59.5164 23.7905 59.4611 23.7548C59.4058 23.7192 59.3629 23.6674 59.3384 23.6067L55.91 14.607L52.4874 23.6067C52.4647 23.6676 52.423 23.7195 52.3683 23.7554C52.3139 23.7912 52.2493 23.8086 52.1839 23.8056H51.8318C51.7664 23.8093 51.7015 23.7918 51.6469 23.7561C51.5922 23.7202 51.5507 23.6679 51.5284 23.6067L46.9554 10.779C46.8852 10.5801 46.9611 10.4566 47.1558 10.4566H48.5711C48.6377 10.4499 48.7047 10.4659 48.7608 10.5021C48.8171 10.5382 48.8592 10.5923 48.8802 10.6554L52.1398 20.3708L55.4538 11.4734C55.4776 11.4121 55.5203 11.3599 55.5759 11.3242C55.6313 11.2885 55.6969 11.2711 55.7629 11.2745H56.0606C56.126 11.2712 56.1906 11.2888 56.2453 11.3245C56.2999 11.3603 56.3414 11.4125 56.364 11.4734L59.7765 20.3708L62.9603 10.6554C62.9813 10.5923 63.0235 10.5382 63.0797 10.5021C63.1358 10.4659 63.2028 10.4499 63.2695 10.4566H64.6632C64.8635 10.4566 64.9395 10.5801 64.8693 10.7745" fill="white"/>
<path d="M84.7732 17.0243C84.7605 18.3459 84.354 19.6342 83.6048 20.727C82.8556 21.8198 81.7972 22.668 80.5633 23.1652C79.3291 23.6621 77.9743 23.7857 76.6697 23.5201C75.365 23.2546 74.1687 22.6118 73.2314 21.6727C72.2942 20.7338 71.6578 19.5405 71.4027 18.2432C71.1474 16.9461 71.2847 15.603 71.7974 14.3831C72.3099 13.1632 73.1748 12.1211 74.2831 11.3881C75.3913 10.6551 76.6934 10.2639 78.0253 10.2638C78.9203 10.2514 79.8088 10.4182 80.6375 10.7543C81.4661 11.0904 82.2179 11.589 82.8479 12.2201C83.4778 12.8513 83.973 13.6021 84.3038 14.4275C84.6347 15.253 84.7943 16.1362 84.7732 17.0243ZM82.9017 17.0243C82.9017 13.9132 80.8568 11.7705 78.0253 11.7705C75.1935 11.7705 73.1488 13.9132 73.1488 17.0243C73.1488 20.1354 75.1935 22.2781 78.0253 22.2781C80.8568 22.2781 82.9017 20.1354 82.9017 17.0243Z" fill="white"/>
<path d="M102.642 23.0589C102.685 23.1084 102.712 23.1698 102.719 23.2348C102.726 23.2999 102.714 23.3656 102.682 23.4233C102.651 23.481 102.603 23.5279 102.545 23.5579C102.486 23.5879 102.42 23.5996 102.354 23.5914H101.079C101.038 23.5901 100.997 23.5787 100.961 23.5582C100.925 23.5376 100.895 23.5086 100.873 23.4735L97.6737 18.6826H94.2351V23.323C94.2343 23.3941 94.2053 23.4622 94.1545 23.5126C94.1038 23.563 94.0352 23.5917 93.9635 23.5925H92.7179C92.6463 23.5914 92.578 23.5626 92.5276 23.5122C92.4769 23.4619 92.4482 23.394 92.4473 23.323V10.7267C92.4485 10.6557 92.4774 10.588 92.5279 10.5377C92.5784 10.4874 92.6465 10.4585 92.7179 10.457H97.6159C101.044 10.457 102.737 12.2446 102.737 14.5693C102.758 15.493 102.445 16.3936 101.855 17.1084C101.265 17.8233 100.437 18.3052 99.5204 18.4669L102.642 23.0589ZM97.266 17.1759C99.9619 17.1759 100.868 16.0669 100.868 14.5704C100.868 13.0738 99.9619 11.9649 97.266 11.9649H94.234V17.1759H97.266Z" fill="white"/>
<path d="M123.707 10.2453H124.114C124.15 10.243 124.186 10.2484 124.22 10.2611C124.254 10.2739 124.285 10.2936 124.311 10.3192C124.337 10.3447 124.357 10.3753 124.369 10.4091C124.382 10.4429 124.388 10.4789 124.385 10.515V23.3235C124.388 23.3596 124.382 23.3956 124.369 23.4294C124.357 23.4632 124.337 23.4939 124.311 23.5193C124.285 23.5448 124.254 23.5647 124.22 23.5773C124.186 23.5902 124.15 23.5955 124.114 23.5932H122.868C122.832 23.5955 122.795 23.5902 122.761 23.5773C122.728 23.5647 122.697 23.5448 122.671 23.5193C122.645 23.4939 122.625 23.4632 122.612 23.4294C122.6 23.3956 122.594 23.3596 122.596 23.3235V14.2306L117.578 21.4382C117.562 21.4738 117.536 21.5041 117.503 21.5253C117.469 21.5464 117.431 21.5576 117.391 21.5576C117.352 21.5576 117.313 21.5464 117.28 21.5253C117.247 21.5041 117.22 21.4738 117.204 21.4382L112.187 14.2306V23.3224C112.189 23.3584 112.184 23.3945 112.171 23.4283C112.158 23.4621 112.138 23.4927 112.112 23.5182C112.087 23.5437 112.056 23.5636 112.022 23.5762C111.988 23.589 111.951 23.5943 111.915 23.5921H110.67C110.633 23.5943 110.597 23.589 110.563 23.5762C110.529 23.5636 110.498 23.5437 110.472 23.5182C110.447 23.4927 110.427 23.4621 110.414 23.4283C110.401 23.3945 110.396 23.3584 110.398 23.3224V10.5138C110.396 10.4778 110.401 10.4417 110.414 10.408C110.427 10.3742 110.447 10.3435 110.472 10.318C110.498 10.2925 110.529 10.2727 110.563 10.26C110.597 10.2473 110.633 10.2419 110.67 10.2442H111.072C111.139 10.2444 111.206 10.2613 111.265 10.2932C111.324 10.3252 111.374 10.3713 111.411 10.4273L117.389 18.7113L123.372 10.4273C123.407 10.3715 123.456 10.3255 123.514 10.2935C123.571 10.2614 123.636 10.2445 123.703 10.2442" fill="white"/>
<path d="M144.514 10.7267V23.3219C144.512 23.393 144.483 23.4608 144.433 23.5111C144.382 23.5614 144.313 23.5903 144.242 23.5914H142.996C142.925 23.5903 142.856 23.5614 142.806 23.5111C142.755 23.4608 142.726 23.393 142.725 23.3219V17.5837H134.485V23.3219C134.484 23.393 134.455 23.4608 134.405 23.5111C134.354 23.5614 134.285 23.5903 134.214 23.5914H132.968C132.897 23.5903 132.828 23.5614 132.777 23.5111C132.727 23.4608 132.698 23.393 132.697 23.3219V10.7267C132.698 10.6555 132.727 10.5876 132.777 10.5373C132.828 10.487 132.897 10.4582 132.968 10.457H134.214C134.285 10.4582 134.354 10.487 134.405 10.5373C134.455 10.5876 134.484 10.6555 134.485 10.7267V16.0771H142.725V10.7267C142.726 10.6555 142.755 10.5876 142.806 10.5373C142.856 10.487 142.925 10.4582 142.996 10.457H144.242C144.313 10.4582 144.382 10.487 144.433 10.5373C144.483 10.5876 144.512 10.6555 144.514 10.7267Z" fill="white"/>
<path d="M165.686 17.0243C165.673 18.3459 165.266 19.6342 164.518 20.727C163.769 21.8198 162.71 22.668 161.476 23.1652C160.242 23.6621 158.887 23.7857 157.583 23.5201C156.278 23.2546 155.082 22.6118 154.144 21.6727C153.207 20.7338 152.571 19.5405 152.316 18.2432C152.06 16.9461 152.198 15.603 152.71 14.3831C153.223 13.1632 154.088 12.1211 155.196 11.3881C156.304 10.6551 157.606 10.2639 158.938 10.2638C159.833 10.2514 160.721 10.4182 161.55 10.7543C162.378 11.0904 163.131 11.589 163.761 12.2201C164.391 12.8513 164.886 13.6021 165.216 14.4275C165.548 15.253 165.707 16.1362 165.686 17.0243ZM163.814 17.0243C163.814 13.9132 161.769 11.7705 158.938 11.7705C156.106 11.7705 154.062 13.9132 154.062 17.0243C154.062 20.1354 156.106 22.2781 158.938 22.2781C161.769 22.2781 163.814 20.1354 163.814 17.0243Z" fill="white"/>
<path d="M182.731 22.3533V23.3219C182.734 23.3578 182.728 23.394 182.715 23.4276C182.702 23.4614 182.683 23.492 182.657 23.5175C182.631 23.5432 182.599 23.5629 182.566 23.5757C182.532 23.5884 182.495 23.5938 182.46 23.5914H173.635C173.562 23.5903 173.495 23.5614 173.444 23.5111C173.393 23.4608 173.364 23.393 173.364 23.3219V10.7267C173.364 10.6555 173.393 10.5876 173.444 10.5373C173.495 10.487 173.562 10.4582 173.635 10.457H174.88C174.952 10.4585 175.019 10.4874 175.07 10.5377C175.12 10.588 175.149 10.6557 175.151 10.7267V22.0837H182.463C182.498 22.0813 182.535 22.0868 182.569 22.0994C182.604 22.1122 182.635 22.132 182.66 22.1574C182.686 22.1831 182.705 22.2137 182.718 22.2475C182.731 22.2812 182.737 22.3172 182.734 22.3533" fill="white"/>
<path d="M199.923 22.3519V23.3203C199.926 23.3564 199.92 23.3924 199.907 23.4263C199.894 23.4601 199.875 23.4907 199.849 23.5162C199.824 23.5416 199.792 23.5615 199.758 23.5742C199.724 23.587 199.687 23.5923 199.652 23.59H190.122C190.05 23.5889 189.982 23.5601 189.931 23.5097C189.88 23.4594 189.851 23.3915 189.849 23.3203V10.7253C189.851 10.6541 189.88 10.5862 189.931 10.5359C189.982 10.4855 190.05 10.4568 190.122 10.4556H199.436C199.471 10.4533 199.508 10.4587 199.542 10.4714C199.575 10.4842 199.607 10.5039 199.633 10.5295C199.659 10.555 199.678 10.5856 199.691 10.6194C199.704 10.6532 199.71 10.6893 199.707 10.7253V11.6938C199.71 11.7298 199.704 11.7659 199.691 11.7996C199.678 11.8334 199.659 11.8641 199.633 11.8896C199.607 11.9151 199.575 11.9349 199.542 11.9476C199.508 11.9603 199.471 11.9657 199.436 11.9634H191.636V16.0756H198.567C198.604 16.0734 198.639 16.0787 198.673 16.091C198.707 16.1035 198.737 16.1227 198.763 16.1477C198.788 16.1726 198.808 16.2025 198.822 16.2357C198.835 16.2687 198.84 16.3041 198.838 16.3397V17.3138C198.841 17.3497 198.835 17.3855 198.822 17.419C198.809 17.4525 198.79 17.483 198.764 17.5085C198.739 17.5338 198.708 17.5535 198.675 17.5663C198.641 17.579 198.604 17.5844 198.567 17.5823H191.636V22.0822H199.652C199.689 22.0799 199.726 22.0852 199.76 22.098C199.793 22.1107 199.824 22.1306 199.849 22.1561C199.875 22.1815 199.896 22.2123 199.909 22.246C199.921 22.2798 199.926 22.3158 199.925 22.3519" fill="white"/>
<path d="M17.4293 34.9716C12.8103 34.9685 8.38123 33.1334 5.1137 29.8689C1.84617 26.6043 0.00710053 22.1769 0 17.558C0.00709952 12.9388 1.84607 8.51113 5.11354 5.24618C8.38101 1.98123 12.8101 0.145635 17.4293 0.14209C22.0484 0.145635 26.4774 1.98123 29.7449 5.24618C33.0123 8.51113 34.8513 12.9388 34.8585 17.558C34.8513 22.1769 33.0123 26.6043 29.7449 29.8689C26.4772 33.1334 22.0482 34.9685 17.4293 34.9716ZM17.4293 1.4828C13.1655 1.48576 9.07708 3.17992 6.06091 6.19357C3.04476 9.20722 1.34722 13.2942 1.34071 17.558C1.34486 21.8222 3.04173 25.9104 6.05846 28.9241C9.07519 31.9379 13.165 33.6309 17.4293 33.6309C21.6934 33.6309 25.7833 31.9379 28.8 28.9241C31.8168 25.9104 33.5136 21.8222 33.5178 17.558C33.5112 13.2942 31.8136 9.20722 28.7976 6.19357C25.7814 3.17992 21.6929 1.48576 17.4293 1.4828Z" fill="white"/>
<path d="M19.6328 32.217C15.8061 32.214 12.1367 30.6933 9.42979 27.9885C6.72281 25.2835 5.19927 21.6154 5.19336 17.7886C5.19927 13.9619 6.72281 10.2938 9.42979 7.58889C12.1367 4.88402 15.8061 3.36332 19.6328 3.36035C23.4595 3.36332 27.1288 4.88402 29.8358 7.58889C32.5427 10.2938 34.0663 13.9619 34.0722 17.7886C34.0663 21.6154 32.5427 25.2835 29.8358 27.9885C27.1288 30.6933 23.4595 32.214 19.6328 32.217ZM19.6328 4.40165C16.0825 4.4046 12.6782 5.81569 10.1669 8.32535C7.65552 10.835 6.24219 14.2383 6.23687 17.7886C6.24278 21.3386 7.6564 24.7414 10.1677 27.2505C12.6789 29.7598 16.0828 31.1705 19.6328 31.1734C23.1828 31.1705 26.5866 29.7598 29.0978 27.2505C31.6092 24.7414 33.0228 21.3386 33.0288 17.7886C33.0228 14.2387 31.6092 10.8359 29.0978 8.32676C26.5866 5.8176 23.1828 4.40684 19.6328 4.40389V4.40165Z" fill="white"/>
<path d="M21.8364 29.4631C18.802 29.4607 15.8925 28.2549 13.746 26.11C11.5996 23.9653 10.3915 21.0567 10.3867 18.0222C10.3915 14.9879 11.5996 12.0793 13.746 9.93452C15.8925 7.78975 18.802 6.58391 21.8364 6.58154C24.8709 6.58332 27.7808 7.78896 29.9273 9.93387C32.0739 12.0788 33.282 14.9877 33.286 18.0222C33.2813 21.0567 32.0731 23.9653 29.9267 26.11C27.7802 28.2549 24.8707 29.4607 21.8364 29.4631ZM21.8364 7.32563C18.9993 7.32741 16.2786 8.45465 14.2715 10.46C12.2644 12.4654 11.1349 15.1851 11.1308 18.0222C11.1355 20.8591 12.2653 23.5781 14.2723 25.5831C16.2792 27.5879 18.9996 28.715 21.8364 28.7167C24.6731 28.715 27.3935 27.5879 29.4005 25.5831C31.4074 23.5781 32.5372 20.8591 32.5421 18.0222C32.5379 15.1851 31.4082 12.4654 29.4012 10.46C27.3941 8.45465 24.6736 7.32741 21.8364 7.32563Z" fill="white"/>
<path d="M24.0399 26.7084C21.7979 26.7067 19.6481 25.8156 18.0622 24.231C16.4763 22.6462 15.5836 20.4972 15.5801 18.2552C15.583 16.0128 16.4754 13.8632 18.0614 12.278C19.6475 10.6928 21.7976 9.80158 24.0399 9.7998C26.2824 9.80158 28.4324 10.6928 30.0185 12.278C31.6045 13.8632 32.4968 16.0128 32.4999 18.2552C32.4962 20.4972 31.6037 22.6462 30.0177 24.231C28.4318 25.8156 26.2819 26.7067 24.0399 26.7084ZM24.0399 10.2467C21.9161 10.2485 19.8797 11.0926 18.3774 12.594C16.8752 14.0954 16.03 16.1313 16.027 18.2552C16.0305 20.3786 16.8762 22.414 18.3782 23.915C19.8803 25.4158 21.9165 26.2597 24.0399 26.2615C26.1633 26.2597 28.1995 25.4158 29.7016 23.915C31.2037 22.414 32.0494 20.3786 32.0529 18.2552C32.0499 16.1313 31.2047 14.0954 29.7024 12.594C28.2004 11.0926 26.1638 10.2485 24.0399 10.2467Z" fill="white"/>
</svg>
