<svg width="360" height="208" viewBox="0 0 360 208" fill="none" xmlns="http://www.w3.org/2000/svg">
<g filter="url(#filter0_d_159_1377)">
<rect x="136.65" y="9.65" width="155.7" height="56.7" rx="28.35" stroke="#217AFF" stroke-width="1.3" shape-rendering="crispEdges"/>
</g>
<g filter="url(#filter1_d_159_1377)">
<rect x="20.65" y="141.65" width="318.7" height="56.7" rx="28.35" stroke="#217AFF" stroke-width="1.3" shape-rendering="crispEdges"/>
</g>
<g filter="url(#filter2_d_159_1377)">
<rect x="29.65" y="75.65" width="168.7" height="56.7" rx="28.35" stroke="#25DFB3" stroke-width="1.3" shape-rendering="crispEdges"/>
</g>
<g filter="url(#filter3_d_159_1377)">
<rect x="10.65" y="9.64661" width="124.558" height="57.1339" rx="28.5669" stroke="#25DFB3" stroke-width="1.3" shape-rendering="crispEdges"/>
</g>
<path d="M40.2922 51.0222H63.4485V54.0301H40.2922V51.0222ZM38.7265 38.9496H65.1379V56.1727H61.8828V41.8751H41.8579V56.2963H38.7265V38.9496ZM56.0319 24.6933L58.4217 23.0863C62.4596 26.5886 67.3216 31.6978 69.4642 35.1177L66.786 37.0543C64.767 33.552 60.0698 28.3604 56.0319 24.6933ZM36.5015 35.4474C36.3779 34.7881 35.8422 33.2224 35.4714 32.3983C36.4191 32.2335 37.4904 31.327 38.8501 29.9673C40.3746 28.6076 45.1954 23.3748 48.4093 18.2655L51.4995 19.584C47.544 25.0641 42.9292 30.1733 38.5617 33.7992V33.8816C38.5617 33.8816 36.5015 34.8293 36.5015 35.4474ZM36.5015 35.4474L36.4603 33.0164L38.7677 31.8627L65.1379 30.6266C65.1791 31.4918 65.3027 32.7279 65.4675 33.3872C40.6218 34.7881 38.1496 34.8705 36.5015 35.4474ZM75.1915 28.8548H87.3053V31.9451H75.1915V28.8548ZM95.8344 19.172H99.007V49.1681C99.007 51.2695 99.2955 51.6403 100.902 51.6403C101.603 51.6403 104.94 51.6403 105.806 51.6403C107.66 51.6403 107.907 49.6213 108.154 41.7103C108.978 42.3695 110.297 43.0288 111.162 43.1936C110.832 51.7227 110.05 54.6481 106.053 54.6481C105.27 54.6481 101.273 54.6481 100.532 54.6481C96.9057 54.6481 95.8344 53.4944 95.8344 49.1269V19.172ZM85.6571 19.172H88.8298V49.6625H85.6571V19.172ZM73.9142 52.794C78.3229 51.3107 85.4511 48.5912 91.9613 46.0366L92.5381 48.7561C86.5636 51.3107 80.1359 53.9889 75.3563 55.8842L73.9142 52.794ZM97.4825 28.8548H110.626V31.9039H97.4825V28.8548Z" fill="white"/>
<path d="M57.627 92.837H47.491V90.2H70.8121V92.837H60.6761V119.042H57.627V92.837ZM92.3228 111.337H76.2535L72.7924 119.042H69.6198L82.8049 90.2H85.8127L98.9978 119.042H95.7839L92.3228 111.337ZM91.2103 108.865L84.2882 93.3726L77.366 108.865H91.2103ZM103.769 90.2H106.818V119.042H103.769V90.2ZM126.998 90.2C130.679 90.2 133.563 91.079 135.65 92.837C137.738 94.595 138.782 97.0123 138.782 100.089C138.782 103.165 137.738 105.583 135.65 107.341C133.563 109.071 130.679 109.936 126.998 109.936H119.252V119.042H116.202V90.2H126.998ZM126.915 107.258C129.772 107.258 131.956 106.64 133.467 105.404C134.977 104.14 135.733 102.369 135.733 100.089C135.733 97.7539 134.977 95.9685 133.467 94.7324C131.956 93.4688 129.772 92.837 126.915 92.837H119.252V107.258H126.915ZM165.77 116.405V119.042H145.375V90.2H165.152V92.837H148.424V103.097H163.339V105.692H148.424V116.405H165.77ZM172.938 90.2H175.987V119.042H172.938V90.2Z" fill="white"/>
<path d="M69.8725 156.125V184.968H63.1975V173.142H50.0948V184.968H43.4199V156.125H50.0948V167.498H63.1975V156.125H69.8725ZM95.6912 178.787H82.3001L79.7455 184.968H72.9057L85.7612 156.125H92.3537L105.25 184.968H98.2458L95.6912 178.787ZM93.5898 173.719L89.0163 162.677L84.4427 173.719H93.5898ZM121.644 185.462C118.704 185.462 116.04 184.83 113.65 183.567C111.288 182.276 109.42 180.504 108.046 178.252C106.7 175.972 106.027 173.403 106.027 170.547C106.027 167.69 106.7 165.135 108.046 162.883C109.42 160.603 111.288 158.831 113.65 157.568C116.04 156.277 118.718 155.631 121.685 155.631C124.184 155.631 126.437 156.07 128.442 156.949C130.475 157.829 132.178 159.092 133.551 160.74L129.266 164.696C127.316 162.443 124.899 161.317 122.014 161.317C120.229 161.317 118.636 161.715 117.235 162.512C115.834 163.281 114.735 164.366 113.939 165.767C113.169 167.168 112.785 168.761 112.785 170.547C112.785 172.332 113.169 173.925 113.939 175.326C114.735 176.727 115.834 177.826 117.235 178.622C118.636 179.392 120.229 179.776 122.014 179.776C124.899 179.776 127.316 178.636 129.266 176.356L133.551 180.312C132.178 181.987 130.475 183.265 128.442 184.144C126.409 185.023 124.143 185.462 121.644 185.462ZM148.566 173.637L144.693 177.675V184.968H138.059V156.125H144.693V169.599L157.466 156.125H164.882L152.933 168.981L165.583 184.968H157.795L148.566 173.637ZM186.266 178.787H172.875L170.321 184.968H163.481L176.336 156.125H182.929L195.825 184.968H188.821L186.266 178.787ZM184.165 173.719L179.591 162.677L175.018 173.719H184.165ZM203.344 161.564H194.114V156.125H219.248V161.564H210.019V184.968H203.344V161.564ZM249.292 156.125V184.968H242.617V173.142H229.515V184.968H222.84V156.125H229.515V167.498H242.617V156.125H249.292ZM270.084 185.462C267.09 185.462 264.384 184.817 261.967 183.526C259.577 182.235 257.696 180.463 256.322 178.21C254.976 175.931 254.303 173.376 254.303 170.547C254.303 167.717 254.976 165.176 256.322 162.924C257.696 160.644 259.577 158.859 261.967 157.568C264.384 156.277 267.09 155.631 270.084 155.631C273.078 155.631 275.77 156.277 278.16 157.568C280.55 158.859 282.432 160.644 283.805 162.924C285.178 165.176 285.865 167.717 285.865 170.547C285.865 173.376 285.178 175.931 283.805 178.21C282.432 180.463 280.55 182.235 278.16 183.526C275.77 184.817 273.078 185.462 270.084 185.462ZM270.084 179.776C271.787 179.776 273.326 179.392 274.699 178.622C276.072 177.826 277.144 176.727 277.913 175.326C278.71 173.925 279.108 172.332 279.108 170.547C279.108 168.761 278.71 167.168 277.913 165.767C277.144 164.366 276.072 163.281 274.699 162.512C273.326 161.715 271.787 161.317 270.084 161.317C268.381 161.317 266.843 161.715 265.469 162.512C264.096 163.281 263.011 164.366 262.214 165.767C261.445 167.168 261.061 168.761 261.061 170.547C261.061 172.332 261.445 173.925 262.214 175.326C263.011 176.727 264.096 177.826 265.469 178.622C266.843 179.392 268.381 179.776 270.084 179.776ZM317.334 156.125V184.968H311.854L297.474 167.456V184.968H290.882V156.125H296.403L310.742 173.637V156.125H317.334Z" fill="white"/>
<circle cx="298" cy="36.3542" r="12" fill="#217AFF"/>
<circle cx="312" cy="36.3542" r="12" fill="#EFB829"/>
<circle cx="326" cy="36.3542" r="12" fill="#25DFB3"/>
<path d="M164.455 23.828V31.0386H182.543V23.828H164.455ZM158.768 19.0484H188.6V35.8182H158.768V19.0484ZM164.619 25.4349L168.245 24.1576C169.193 25.8058 170.017 27.9895 170.264 29.4729L166.391 30.915C166.226 29.4729 165.485 27.1655 164.619 25.4349ZM158.233 37.0131H189.053V41.6279H158.233V37.0131ZM155.06 42.7816H192.184V47.9732H155.06V42.7816ZM170.553 21.0262H176.568V45.501H170.553V21.0262ZM178.587 23.9928L182.955 25.4761C182.007 27.5363 181.142 29.5553 180.441 30.9562L176.774 29.5965C177.434 28.0719 178.216 25.6821 178.587 23.9928ZM166.061 49.5801L171.665 49.0445C172.077 51.2695 172.407 54.1949 172.407 55.9666L166.474 56.6671C166.515 54.8542 166.391 51.8875 166.061 49.5801ZM174.261 49.7861L179.947 48.6324C180.812 50.775 181.719 53.5356 182.007 55.3486L175.95 56.7083C175.744 54.9366 175.003 52.0111 174.261 49.7861ZM182.254 49.4977L187.899 47.6848C189.63 49.9097 191.855 52.9588 192.844 55.0602L186.787 57.1203C186.004 55.1014 183.944 51.8463 182.254 49.4977ZM158.727 47.7672L164.661 49.2093C163.795 52.0523 162.147 55.1014 160.293 57.0791L154.483 54.6069C156.173 53.1236 157.821 50.363 158.727 47.7672ZM209.696 25.7646L216.041 27.0419C212.745 31.739 208.501 35.3237 201.991 38.208C201.208 36.8071 199.354 34.6645 198.077 33.7168C203.927 31.6978 207.636 28.8136 209.696 25.7646ZM212.003 28.3604H223.169V32.7691H208.007L212.003 28.3604ZM221.356 28.3604H222.51L223.499 28.1131L227.578 30.5029C222.057 39.9385 210.438 44.7181 197.912 46.9019C197.376 45.3774 196.14 42.9052 195.11 41.5867C206.606 40.1033 217.483 35.9418 221.356 29.1844V28.3604ZM209.325 31.6566C214.063 36.5186 223.458 39.4441 234.624 40.3506C233.305 41.7515 231.616 44.4709 230.792 46.1602C219.296 44.6769 210.232 40.845 204.133 33.9228L209.325 31.6566ZM202.609 43.894H227.249V56.8319H221.068V48.7561H208.46V56.9555H202.609V43.894ZM206.152 50.8574H224.158V55.7194H206.152V50.8574ZM196.923 20.9438H232.811V30.8326H226.672V26.3414H202.774V30.8326H196.923V20.9438ZM210.602 18.5952L216.618 17.1943C217.566 19.0072 218.925 21.5206 219.585 23.0863L213.239 24.6933C212.704 23.1687 211.509 20.5317 210.602 18.5952ZM236.808 25.5585H251.847V31.0798H236.808V25.5585ZM241.835 17.7711H247.232V56.9143H241.835V17.7711ZM241.793 29.8025L244.884 31.0798C243.812 37.9608 241.546 45.9542 238.703 50.2806C238.167 48.55 236.89 45.7894 235.942 44.1413C238.621 40.8038 240.804 34.6645 241.793 29.8025ZM247.026 31.9863C248.097 33.1812 251.765 38.414 252.547 39.6501L249.128 43.688C248.139 41.0098 245.79 36.3538 244.43 34.0876L247.026 31.9863ZM252.589 55.431C252.3 54.2773 251.352 51.4343 250.734 49.8685C251.806 49.5389 252.547 48.55 253.66 46.6547C254.814 44.8417 257.986 37.8372 259.84 31.1622L265.856 32.6043C263.343 40.0209 259.717 47.1491 256.544 52.2171V52.2995C256.544 52.2995 252.589 54.4009 252.589 55.431ZM252.589 55.431L252.341 50.6926L255.143 48.7973L270.677 47.1079C270.718 48.7148 271.13 51.0222 271.419 52.2583C256.627 54.2361 254.278 54.6069 252.589 55.431ZM264.579 42.1635L269.688 40.0209C271.625 44.4709 274.303 50.4454 275.498 54.0713L269.976 56.7083C268.946 52.9588 266.474 46.8195 264.579 42.1635ZM255.349 19.0484L260.953 20.2021C259.634 27.2891 257.327 34.7881 254.196 39.4853C253.454 38.2904 251.435 35.8182 250.281 34.7057C252.795 30.9562 254.443 24.9817 255.349 19.0484ZM263.343 18.8424H269.317C270.347 24.6521 272.613 30.915 275.745 34.5409C274.468 35.6122 272.366 37.9196 271.377 39.4029C267.999 34.6233 265.609 27.6599 264.332 21.5618H263.343V18.8424ZM261.736 18.8424H268.452V23.7868H261.736V18.8424Z" fill="white"/>
<g filter="url(#filter4_d_159_1377)">
<path d="M16 53L16 93.9966C16 99.5213 20.4787 104 26.0034 104V104" stroke="#25DFB3" stroke-width="0.749153" stroke-linecap="round"/>
<circle cx="16" cy="53" r="2.62203" transform="rotate(90 16 53)" fill="white" stroke="#25DFB3" stroke-width="0.749153"/>
<path d="M25.4414 101.003C25.4414 101.003 26.3778 102.751 28.6253 104C26.3778 105.249 25.4414 106.997 25.4414 106.997" stroke="#25DFB3" stroke-width="0.749153" stroke-linecap="round" stroke-linejoin="round"/>
<path d="M28.6255 104L24.3179 104" stroke="#25DFB3" stroke-width="0.749153" stroke-linecap="round"/>
</g>
<path d="M233.442 103.003C233.442 103.003 234.378 104.751 236.626 106C234.378 107.249 233.442 108.997 233.442 108.997" stroke="#EFB829" stroke-width="0.749153" stroke-linecap="round" stroke-linejoin="round"/>
<path d="M236.626 106H232.131" stroke="#EFB829" stroke-width="0.749153" stroke-linecap="round"/>
<path d="M199 106L233.836 106" stroke="#EFB829" stroke-width="0.749153" stroke-linecap="round" stroke-dasharray="2.25 3"/>
<circle cx="199" cy="106" r="2.62203" fill="white" stroke="#EFB829" stroke-width="0.749153"/>
<g filter="url(#filter5_d_159_1377)">
<path d="M341.559 178.997C341.559 178.997 340.622 177.249 338.375 176C340.622 174.751 341.559 173.003 341.559 173.003" stroke="#25DFB3" stroke-width="0.749153" stroke-linecap="round" stroke-linejoin="round"/>
<path d="M338.375 176H342.87" stroke="#25DFB3" stroke-width="0.749153" stroke-linecap="round"/>
<path d="M339.499 37V37C345.298 37 350 41.7018 350 47.5017V106.5" stroke="#25DFB3" stroke-width="0.749153" stroke-linecap="round"/>
<circle cx="338" cy="37" r="2.62203" fill="white" stroke="#25DFB3" stroke-width="0.749153"/>
<path d="M339.499 176V176C345.298 176 350 171.298 350 165.498V106.5" stroke="#25DFB3" stroke-width="0.749153" stroke-linecap="round"/>
</g>
<path d="M258.156 113.604H259.28V112.48H258.156V113.604ZM258.156 119.042V120.166H259.28V119.042H258.156ZM236.36 119.042H235.236V120.166H236.36V119.042ZM236.36 114.716L235.588 113.899L235.236 114.232V114.716H236.36ZM247.485 104.209L248.256 105.026L248.26 105.022L247.485 104.209ZM249.874 101.325L250.873 101.841L250.876 101.834L250.88 101.827L249.874 101.325ZM249.298 96.2569L248.584 97.1252L248.601 97.139L248.618 97.1521L249.298 96.2569ZM242.458 96.0509L242.927 97.072L242.938 97.0668L242.949 97.0614L242.458 96.0509ZM239.903 98.1934L239.295 99.1382L240.195 99.7181L240.818 98.8466L239.903 98.1934ZM235.041 95.062L234.109 94.4351L233.469 95.3862L234.433 96.0067L235.041 95.062ZM239.697 91.1477L240.177 92.1639L240.188 92.1583L239.697 91.1477ZM252.099 90.7768L251.64 91.8022L251.65 91.807L251.661 91.8115L252.099 90.7768ZM255.849 93.7435L254.92 94.3759L254.928 94.3873L254.936 94.3985L255.849 93.7435ZM256.22 102.643L257.233 103.13L256.22 102.643ZM252.388 107.341L251.624 106.517L251.616 106.523L252.388 107.341ZM245.754 113.604L244.983 112.786L242.927 114.727H245.754V113.604ZM257.033 113.604V119.042H259.28V113.604H257.033ZM258.156 117.919H236.36V120.166H258.156V117.919ZM237.483 119.042V114.716H235.236V119.042H237.483ZM237.131 115.533L248.256 105.026L246.713 103.392L235.588 113.899L237.131 115.533ZM248.26 105.022C249.47 103.869 250.374 102.805 250.873 101.841L248.876 100.809C248.551 101.438 247.861 102.297 246.709 103.396L248.26 105.022ZM250.88 101.827C251.357 100.872 251.616 99.8904 251.616 98.8939H249.369C249.369 99.4906 249.216 100.13 248.869 100.822L250.88 101.827ZM251.616 98.8939C251.616 97.4501 251.099 96.2129 249.977 95.3616L248.618 97.1521C249.089 97.5094 249.369 98.0303 249.369 98.8939H251.616ZM250.011 95.3885C248.96 94.5251 247.52 94.1855 245.878 94.1855V96.4329C247.257 96.4329 248.097 96.7251 248.584 97.1252L250.011 95.3885ZM245.878 94.1855C244.464 94.1855 243.153 94.463 241.966 95.0404L242.949 97.0614C243.795 96.6498 244.764 96.4329 245.878 96.4329V94.1855ZM241.989 95.0298C240.784 95.5831 239.783 96.4288 238.989 97.5403L240.818 98.8466C241.397 98.0352 242.099 97.4525 242.927 97.072L241.989 95.0298ZM240.512 97.2487L235.65 94.1172L234.433 96.0067L239.295 99.1382L240.512 97.2487ZM235.974 95.6888C236.978 94.1954 238.367 93.0187 240.177 92.1638L239.217 90.1315C237.072 91.1446 235.357 92.5774 234.109 94.4351L235.974 95.6888ZM240.188 92.1583C241.99 91.2824 244.084 90.8293 246.496 90.8293V88.5818C243.798 88.5818 241.36 89.09 239.206 90.137L240.188 92.1583ZM246.496 90.8293C248.515 90.8293 250.22 91.1658 251.64 91.8022L252.559 89.7514C250.792 88.9594 248.762 88.5818 246.496 88.5818V90.8293ZM251.661 91.8115C253.109 92.425 254.177 93.2852 254.92 94.3759L256.778 93.1111C255.762 91.6196 254.331 90.5021 252.538 89.7422L251.661 91.8115ZM254.936 94.3985C255.69 95.4498 256.085 96.7114 256.085 98.2346H258.332C258.332 96.2969 257.821 94.5643 256.762 93.0884L254.936 94.3985ZM256.085 98.2346C256.085 99.6369 255.791 100.94 255.207 102.157L257.233 103.13C257.967 101.6 258.332 99.9639 258.332 98.2346H256.085ZM255.207 102.157C254.637 103.345 253.477 104.797 251.624 106.517L253.152 108.164C255.089 106.368 256.484 104.689 257.233 103.13L255.207 102.157ZM251.616 106.523L244.983 112.786L246.526 114.421L253.159 108.158L251.616 106.523ZM245.754 114.727H258.156V112.48H245.754V114.727ZM266.805 117.765L267.405 116.815L266.805 117.765ZM262.396 112.656L261.376 113.128L261.38 113.136L261.383 113.143L262.396 112.656ZM262.396 96.6277L261.381 96.1451L261.378 96.1504L262.396 96.6277ZM266.805 91.4773L267.405 92.4271L266.805 91.4773ZM279.578 91.4773L278.977 92.4271L279.578 91.4773ZM283.945 96.6277L282.926 97.1002L282.929 97.1077L282.933 97.1152L283.945 96.6277ZM283.945 112.656L282.93 112.173L282.928 112.179L283.945 112.656ZM279.578 117.765L278.977 116.815L279.578 117.765ZM277.311 111.626L276.379 110.999L276.375 111.004L276.371 111.01L277.311 111.626ZM277.311 97.6166L276.371 98.232L276.375 98.2379L276.379 98.2438L277.311 97.6166ZM269.071 97.6166L268.138 96.9894L268.134 96.9952L268.13 97.0012L269.071 97.6166ZM269.071 111.626L268.13 112.241L268.134 112.247L268.138 112.253L269.071 111.626ZM273.191 118.413C270.996 118.413 269.079 117.874 267.405 116.815L266.204 118.715C268.266 120.019 270.607 120.661 273.191 120.661V118.413ZM267.405 116.815C265.735 115.759 264.399 114.227 263.408 112.168L261.383 113.143C262.535 115.535 264.138 117.408 266.204 118.715L267.405 116.815ZM263.415 112.183C262.455 110.111 261.954 107.602 261.954 104.621H259.706C259.706 107.849 260.249 110.696 261.376 113.128L263.415 112.183ZM261.954 104.621C261.954 101.64 262.455 99.1467 263.413 97.105L261.378 96.1504C260.249 98.5587 259.706 101.394 259.706 104.621H261.954ZM263.411 97.1104C264.403 95.0243 265.739 93.4806 267.405 92.4271L266.204 90.5275C264.134 91.8363 262.531 93.7263 261.381 96.1451L263.411 97.1104ZM267.405 92.4271C269.079 91.3688 270.996 90.8293 273.191 90.8293V88.5818C270.607 88.5818 268.266 89.2235 266.204 90.5275L267.405 92.4271ZM273.191 90.8293C275.386 90.8293 277.303 91.3688 278.977 92.4271L280.178 90.5275C278.116 89.2235 275.775 88.5818 273.191 88.5818V90.8293ZM278.977 92.4271C280.64 93.4789 281.961 95.0189 282.926 97.1002L284.965 96.1552C283.842 93.7317 282.251 91.838 280.178 90.5275L278.977 92.4271ZM282.933 97.1152C283.914 99.1542 284.428 101.644 284.428 104.621H286.676C286.676 101.391 286.118 98.5512 284.958 96.1402L282.933 97.1152ZM284.428 104.621C284.428 107.598 283.915 110.104 282.93 112.173L284.96 113.138C286.118 110.703 286.676 107.852 286.676 104.621H284.428ZM282.928 112.179C281.964 114.232 280.644 115.761 278.977 116.815L280.178 118.715C282.247 117.407 283.838 115.53 284.962 113.133L282.928 112.179ZM278.977 116.815C277.303 117.874 275.386 118.413 273.191 118.413V120.661C275.775 120.661 278.116 120.019 280.178 118.715L278.977 116.815ZM273.191 115.016C275.34 115.016 277.062 114.059 278.252 112.241L276.371 111.01C275.583 112.214 274.558 112.768 273.191 112.768V115.016ZM278.244 112.253C279.447 110.465 279.96 107.858 279.96 104.621H277.712C277.712 107.702 277.209 109.765 276.379 110.999L278.244 112.253ZM279.96 104.621C279.96 101.384 279.447 98.7775 278.244 96.9894L276.379 98.2438C277.209 99.4773 277.712 101.541 277.712 104.621H279.96ZM278.252 97.0012C277.062 95.1836 275.34 94.2267 273.191 94.2267V96.4741C274.558 96.4741 275.583 97.028 276.371 98.232L278.252 97.0012ZM273.191 94.2267C271.064 94.2267 269.35 95.1875 268.138 96.9894L270.003 98.2438C270.824 97.0241 271.857 96.4741 273.191 96.4741V94.2267ZM268.13 97.0012C266.962 98.7864 266.464 101.388 266.464 104.621H268.711C268.711 101.537 269.202 99.4683 270.011 98.232L268.13 97.0012ZM266.464 104.621C266.464 107.855 266.962 110.456 268.13 112.241L270.011 111.01C269.202 109.774 268.711 107.705 268.711 104.621H266.464ZM268.138 112.253C269.35 114.055 271.064 115.016 273.191 115.016V112.768C271.857 112.768 270.824 112.218 270.003 110.999L268.138 112.253ZM310.103 113.604H311.227V112.48H310.103V113.604ZM310.103 119.042V120.166H311.227V119.042H310.103ZM288.307 119.042H287.183V120.166H288.307V119.042ZM288.307 114.716L287.535 113.899L287.183 114.232V114.716H288.307ZM299.431 104.209L300.203 105.026L300.207 105.022L299.431 104.209ZM301.821 101.325L302.819 101.841L302.823 101.834L302.826 101.827L301.821 101.325ZM301.244 96.2569L300.531 97.1252L300.548 97.139L300.565 97.1521L301.244 96.2569ZM294.405 96.0509L294.874 97.072L294.885 97.0668L294.896 97.0614L294.405 96.0509ZM291.85 98.1934L291.242 99.1382L292.142 99.7181L292.764 98.8466L291.85 98.1934ZM286.988 95.062L286.055 94.4351L285.416 95.3862L286.38 96.0067L286.988 95.062ZM291.644 91.1477L292.124 92.1639L292.135 92.1583L291.644 91.1477ZM304.046 90.7768L303.587 91.8022L303.597 91.807L303.608 91.8115L304.046 90.7768ZM307.796 93.7435L306.867 94.3759L306.875 94.3873L306.883 94.3985L307.796 93.7435ZM308.167 102.643L309.18 103.13L308.167 102.643ZM304.335 107.341L303.57 106.517L303.563 106.523L304.335 107.341ZM297.701 113.604L296.93 112.786L294.874 114.727H297.701V113.604ZM308.979 113.604V119.042H311.227V113.604H308.979ZM310.103 117.919H288.307V120.166H310.103V117.919ZM289.43 119.042V114.716H287.183V119.042H289.43ZM289.078 115.533L300.203 105.026L298.66 103.392L287.535 113.899L289.078 115.533ZM300.207 105.022C301.417 103.869 302.321 102.805 302.819 101.841L300.823 100.809C300.497 101.438 299.808 102.297 298.656 103.396L300.207 105.022ZM302.826 101.827C303.304 100.872 303.563 99.8904 303.563 98.8939H301.316C301.316 99.4906 301.162 100.13 300.816 100.822L302.826 101.827ZM303.563 98.8939C303.563 97.4501 303.046 96.2129 301.924 95.3616L300.565 97.1521C301.036 97.5094 301.316 98.0303 301.316 98.8939H303.563ZM301.958 95.3885C300.907 94.5251 299.467 94.1855 297.825 94.1855V96.4329C299.204 96.4329 300.044 96.7251 300.531 97.1252L301.958 95.3885ZM297.825 94.1855C296.411 94.1855 295.1 94.463 293.913 95.0404L294.896 97.0614C295.742 96.6498 296.711 96.4329 297.825 96.4329V94.1855ZM293.936 95.0298C292.731 95.5831 291.73 96.4288 290.936 97.5403L292.764 98.8466C293.344 98.0352 294.046 97.4525 294.874 97.072L293.936 95.0298ZM292.459 97.2487L287.597 94.1172L286.38 96.0067L291.242 99.1382L292.459 97.2487ZM287.921 95.6888C288.924 94.1954 290.314 93.0187 292.124 92.1638L291.164 90.1315C289.019 91.1446 287.304 92.5774 286.055 94.4351L287.921 95.6888ZM292.135 92.1583C293.937 91.2824 296.031 90.8293 298.443 90.8293V88.5818C295.745 88.5818 293.307 89.09 291.153 90.137L292.135 92.1583ZM298.443 90.8293C300.462 90.8293 302.167 91.1658 303.587 91.8022L304.506 89.7514C302.739 88.9594 300.708 88.5818 298.443 88.5818V90.8293ZM303.608 91.8115C305.056 92.425 306.124 93.2852 306.867 94.3759L308.725 93.1111C307.709 91.6196 306.278 90.5021 304.485 89.7422L303.608 91.8115ZM306.883 94.3985C307.637 95.4498 308.032 96.7114 308.032 98.2346H310.279C310.279 96.2969 309.768 94.5643 308.709 93.0884L306.883 94.3985ZM308.032 98.2346C308.032 99.6369 307.738 100.94 307.154 102.157L309.18 103.13C309.914 101.6 310.279 99.9639 310.279 98.2346H308.032ZM307.154 102.157C306.583 103.345 305.424 104.797 303.571 106.517L305.099 108.164C307.036 106.368 308.431 104.689 309.18 103.13L307.154 102.157ZM303.563 106.523L296.93 112.786L298.472 114.421L305.106 108.158L303.563 106.523ZM297.701 114.727H310.103V112.48H297.701V114.727ZM326.331 101.943L325.486 101.202L324.149 102.726L326.15 103.052L326.331 101.943ZM332.141 104.786L331.308 105.541L331.315 105.549L332.141 104.786ZM332.841 114.881L333.793 115.478L333.798 115.47L332.841 114.881ZM328.803 118.259L328.325 117.242L328.319 117.245L328.803 118.259ZM316.195 118.754L315.89 119.836L315.899 119.838L315.908 119.84L316.195 118.754ZM311.209 116.447L310.207 115.938L309.771 116.796L310.553 117.358L311.209 116.447ZM313.805 111.337L314.479 110.438L313.409 109.636L312.803 110.828L313.805 111.337ZM317.596 113.274L317.247 114.342L317.259 114.346L317.271 114.35L317.596 113.274ZM326.001 112.985L326.618 113.925L326.628 113.918L326.637 113.912L326.001 112.985ZM318.997 106.681H317.873V107.805H318.997V106.681ZM318.997 102.273L318.154 101.529L317.873 101.847V102.273H318.997ZM324.93 95.5564L325.772 96.3004L327.422 94.4327H324.93V95.5564ZM312.651 95.5564H311.528V96.6802H312.651V95.5564ZM312.651 90.2V89.0763H311.528V90.2H312.651ZM332.841 90.2H333.965V89.0763H332.841V90.2ZM332.841 94.5263L333.686 95.2676L333.965 94.9496V94.5263H332.841ZM326.15 103.052C328.497 103.435 330.176 104.293 331.308 105.541L332.973 104.031C331.413 102.312 329.219 101.275 326.512 100.834L326.15 103.052ZM331.315 105.549C332.451 106.777 333.036 108.309 333.036 110.225H335.283C335.283 107.801 334.522 105.707 332.966 104.023L331.315 105.549ZM333.036 110.225C333.036 111.692 332.654 113.04 331.884 114.292L333.798 115.47C334.786 113.864 335.283 112.109 335.283 110.225H333.036ZM331.889 114.284C331.147 115.467 329.985 116.463 328.325 117.242L329.281 119.277C331.247 118.353 332.777 117.097 333.793 115.478L331.889 114.284ZM328.319 117.245C326.725 118.006 324.704 118.413 322.211 118.413V120.661C324.936 120.661 327.31 120.217 329.287 119.274L328.319 117.245ZM322.211 118.413C320.275 118.413 318.366 118.165 316.482 117.667L315.908 119.84C317.979 120.387 320.08 120.661 322.211 120.661V118.413ZM316.5 117.672C314.651 117.152 313.114 116.433 311.866 115.535L310.553 117.358C312.051 118.438 313.838 119.257 315.89 119.836L316.5 117.672ZM312.211 116.956L314.807 111.846L312.803 110.828L310.207 115.938L312.211 116.956ZM313.131 112.236C314.337 113.141 315.712 113.84 317.247 114.342L317.945 112.206C316.622 111.773 315.471 111.182 314.479 110.438L313.131 112.236ZM317.271 114.35C318.831 114.821 320.424 115.057 322.046 115.057V112.809C320.646 112.809 319.272 112.606 317.921 112.198L317.271 114.35ZM322.046 115.057C323.846 115.057 325.408 114.72 326.618 113.925L325.384 112.046C324.672 112.514 323.597 112.809 322.046 112.809V115.057ZM326.637 113.912C327.909 113.04 328.567 111.771 328.567 110.225H326.32C326.32 111.041 326.017 111.612 325.366 112.059L326.637 113.912ZM328.567 110.225C328.567 108.709 327.962 107.449 326.711 106.628C325.542 105.861 323.932 105.558 322.046 105.558V107.805C323.758 107.805 324.847 108.093 325.477 108.507C326.026 108.867 326.32 109.378 326.32 110.225H328.567ZM322.046 105.558H318.997V107.805H322.046V105.558ZM320.12 106.681V102.273H317.873V106.681H320.12ZM319.839 103.017L325.772 96.3004L324.088 94.8124L318.154 101.529L319.839 103.017ZM324.93 94.4327H312.651V96.6802H324.93V94.4327ZM313.775 95.5564V90.2H311.528V95.5564H313.775ZM312.651 91.3237H332.841V89.0763H312.651V91.3237ZM331.717 90.2V94.5263H333.965V90.2H331.717ZM331.996 93.785L325.486 101.202L327.175 102.684L333.686 95.2676L331.996 93.785Z" fill="white"/>
<defs>
<filter id="filter0_d_159_1377" x="127.759" y="0.759322" width="173.481" height="74.4814" filterUnits="userSpaceOnUse" color-interpolation-filters="sRGB">
<feFlood flood-opacity="0" result="BackgroundImageFix"/>
<feColorMatrix in="SourceAlpha" type="matrix" values="0 0 0 0 0 0 0 0 0 0 0 0 0 0 0 0 0 0 127 0" result="hardAlpha"/>
<feMorphology radius="0.749153" operator="dilate" in="SourceAlpha" result="effect1_dropShadow_159_1377"/>
<feOffset/>
<feGaussianBlur stdDeviation="3.74576"/>
<feComposite in2="hardAlpha" operator="out"/>
<feColorMatrix type="matrix" values="0 0 0 0 0.129167 0 0 0 0 0.4775 0 0 0 0 1 0 0 0 1 0"/>
<feBlend mode="normal" in2="BackgroundImageFix" result="effect1_dropShadow_159_1377"/>
<feBlend mode="normal" in="SourceGraphic" in2="effect1_dropShadow_159_1377" result="shape"/>
</filter>
<filter id="filter1_d_159_1377" x="11.7593" y="132.759" width="336.481" height="74.4814" filterUnits="userSpaceOnUse" color-interpolation-filters="sRGB">
<feFlood flood-opacity="0" result="BackgroundImageFix"/>
<feColorMatrix in="SourceAlpha" type="matrix" values="0 0 0 0 0 0 0 0 0 0 0 0 0 0 0 0 0 0 127 0" result="hardAlpha"/>
<feMorphology radius="0.749153" operator="dilate" in="SourceAlpha" result="effect1_dropShadow_159_1377"/>
<feOffset/>
<feGaussianBlur stdDeviation="3.74576"/>
<feComposite in2="hardAlpha" operator="out"/>
<feColorMatrix type="matrix" values="0 0 0 0 0.129167 0 0 0 0 0.4775 0 0 0 0 1 0 0 0 1 0"/>
<feBlend mode="normal" in2="BackgroundImageFix" result="effect1_dropShadow_159_1377"/>
<feBlend mode="normal" in="SourceGraphic" in2="effect1_dropShadow_159_1377" result="shape"/>
</filter>
<filter id="filter2_d_159_1377" x="21.5085" y="67.5085" width="184.983" height="72.9831" filterUnits="userSpaceOnUse" color-interpolation-filters="sRGB">
<feFlood flood-opacity="0" result="BackgroundImageFix"/>
<feColorMatrix in="SourceAlpha" type="matrix" values="0 0 0 0 0 0 0 0 0 0 0 0 0 0 0 0 0 0 127 0" result="hardAlpha"/>
<feOffset/>
<feGaussianBlur stdDeviation="3.74576"/>
<feComposite in2="hardAlpha" operator="out"/>
<feColorMatrix type="matrix" values="0 0 0 0 0.145833 0 0 0 0 0.875 0 0 0 0 0.7 0 0 0 1 0"/>
<feBlend mode="normal" in2="BackgroundImageFix" result="effect1_dropShadow_159_1377"/>
<feBlend mode="normal" in="SourceGraphic" in2="effect1_dropShadow_159_1377" result="shape"/>
</filter>
<filter id="filter3_d_159_1377" x="2.50847" y="1.50508" width="140.84" height="73.417" filterUnits="userSpaceOnUse" color-interpolation-filters="sRGB">
<feFlood flood-opacity="0" result="BackgroundImageFix"/>
<feColorMatrix in="SourceAlpha" type="matrix" values="0 0 0 0 0 0 0 0 0 0 0 0 0 0 0 0 0 0 127 0" result="hardAlpha"/>
<feOffset/>
<feGaussianBlur stdDeviation="3.74576"/>
<feComposite in2="hardAlpha" operator="out"/>
<feColorMatrix type="matrix" values="0 0 0 0 0.145833 0 0 0 0 0.875 0 0 0 0 0.7 0 0 0 1 0"/>
<feBlend mode="normal" in2="BackgroundImageFix" result="effect1_dropShadow_159_1377"/>
<feBlend mode="normal" in="SourceGraphic" in2="effect1_dropShadow_159_1377" result="shape"/>
</filter>
<filter id="filter4_d_159_1377" x="-6.99658" y="30.0034" width="55.9966" height="97.3679" filterUnits="userSpaceOnUse" color-interpolation-filters="sRGB">
<feFlood flood-opacity="0" result="BackgroundImageFix"/>
<feColorMatrix in="SourceAlpha" type="matrix" values="0 0 0 0 0 0 0 0 0 0 0 0 0 0 0 0 0 0 127 0" result="hardAlpha"/>
<feOffset/>
<feGaussianBlur stdDeviation="10"/>
<feComposite in2="hardAlpha" operator="out"/>
<feColorMatrix type="matrix" values="0 0 0 0 0.145833 0 0 0 0 0.875 0 0 0 0 0.7 0 0 0 1 0"/>
<feBlend mode="normal" in2="BackgroundImageFix" result="effect1_dropShadow_159_1377"/>
<feBlend mode="normal" in="SourceGraphic" in2="effect1_dropShadow_159_1377" result="shape"/>
</filter>
<filter id="filter5_d_159_1377" x="315.003" y="14.0034" width="55.3716" height="185.368" filterUnits="userSpaceOnUse" color-interpolation-filters="sRGB">
<feFlood flood-opacity="0" result="BackgroundImageFix"/>
<feColorMatrix in="SourceAlpha" type="matrix" values="0 0 0 0 0 0 0 0 0 0 0 0 0 0 0 0 0 0 127 0" result="hardAlpha"/>
<feOffset/>
<feGaussianBlur stdDeviation="10"/>
<feComposite in2="hardAlpha" operator="out"/>
<feColorMatrix type="matrix" values="0 0 0 0 0.145833 0 0 0 0 0.875 0 0 0 0 0.7 0 0 0 1 0"/>
<feBlend mode="normal" in2="BackgroundImageFix" result="effect1_dropShadow_159_1377"/>
<feBlend mode="normal" in="SourceGraphic" in2="effect1_dropShadow_159_1377" result="shape"/>
</filter>
</defs>
</svg>
