<svg width="164" height="48" viewBox="0 0 164 48" fill="none" xmlns="http://www.w3.org/2000/svg">
<path d="M3.648 18V8.912H0.064V6.8H9.824V8.912H6.24V18H3.648ZM9.18412 18L14.1761 6.8H16.7361L21.7441 18H19.0241L14.9281 8.112H15.9521L11.8401 18H9.18412ZM11.6801 15.6L12.3681 13.632H18.1281L18.8321 15.6H11.6801ZM22.9061 18V6.8H25.4981V18H22.9061ZM28.1561 18V6.8H33.0041C34.0068 6.8 34.8708 6.96533 35.5961 7.296C36.3215 7.616 36.8815 8.08 37.2761 8.688C37.6708 9.296 37.8681 10.0213 37.8681 10.864C37.8681 11.696 37.6708 12.416 37.2761 13.024C36.8815 13.632 36.3215 14.1013 35.5961 14.432C34.8708 14.752 34.0068 14.912 33.0041 14.912H29.5961L30.7481 13.744V18H28.1561ZM30.7481 14.032L29.5961 12.8H32.8601C33.6601 12.8 34.2575 12.6293 34.6521 12.288C35.0468 11.9467 35.2441 11.472 35.2441 10.864C35.2441 10.2453 35.0468 9.76533 34.6521 9.424C34.2575 9.08267 33.6601 8.912 32.8601 8.912H29.5961L30.7481 7.68V14.032ZM42.1026 11.312H47.4946V13.328H42.1026V11.312ZM42.2946 15.92H48.3906V18H39.7186V6.8H48.1826V8.88H42.2946V15.92ZM50.453 18V6.8H53.045V18H50.453Z" fill="white"/>
<circle cx="63" cy="12" r="4" fill="#217AFF"/>
<circle cx="69" cy="12" r="4" fill="#EFB829"/>
<circle cx="75" cy="12" r="4" fill="#25DFB3"/>
<path d="M9.008 30.8H11.6V42H9.008V30.8ZM3.92 42H1.328V30.8H3.92V42ZM9.2 37.408H3.728V35.216H9.2V37.408ZM12.7779 42L17.7699 30.8H20.3299L25.3379 42H22.6179L18.5219 32.112H19.5459L15.4339 42H12.7779ZM15.2739 39.6L15.9619 37.632H21.7219L22.4259 39.6H15.2739ZM31.7036 42.192C30.8396 42.192 30.0343 42.0533 29.2876 41.776C28.5516 41.488 27.9116 41.0827 27.3676 40.56C26.8236 40.0373 26.397 39.424 26.0876 38.72C25.789 38.016 25.6396 37.2427 25.6396 36.4C25.6396 35.5573 25.789 34.784 26.0876 34.08C26.397 33.376 26.8236 32.7627 27.3676 32.24C27.9223 31.7173 28.5676 31.3173 29.3036 31.04C30.0396 30.752 30.845 30.608 31.7196 30.608C32.6903 30.608 33.565 30.7787 34.3436 31.12C35.133 31.4507 35.7943 31.9413 36.3276 32.592L34.6636 34.128C34.2796 33.6907 33.853 33.3653 33.3836 33.152C32.9143 32.928 32.4023 32.816 31.8476 32.816C31.325 32.816 30.845 32.9013 30.4076 33.072C29.9703 33.2427 29.5916 33.488 29.2716 33.808C28.9516 34.128 28.701 34.5067 28.5196 34.944C28.349 35.3813 28.2636 35.8667 28.2636 36.4C28.2636 36.9333 28.349 37.4187 28.5196 37.856C28.701 38.2933 28.9516 38.672 29.2716 38.992C29.5916 39.312 29.9703 39.5573 30.4076 39.728C30.845 39.8987 31.325 39.984 31.8476 39.984C32.4023 39.984 32.9143 39.8773 33.3836 39.664C33.853 39.44 34.2796 39.104 34.6636 38.656L36.3276 40.192C35.7943 40.8427 35.133 41.3387 34.3436 41.68C33.565 42.0213 32.685 42.192 31.7036 42.192ZM40.398 39.44L40.254 36.448L45.614 30.8H48.494L43.662 36L42.222 37.536L40.398 39.44ZM38.078 42V30.8H40.654V42H38.078ZM45.742 42L41.758 37.12L43.454 35.28L48.766 42H45.742ZM47.9341 42L52.9261 30.8H55.4861L60.4941 42H57.7741L53.6781 32.112H54.7021L50.5901 42H47.9341ZM50.4301 39.6L51.1181 37.632H56.8781L57.5821 39.6H50.4301ZM63.4136 42V32.912H59.8296V30.8H69.5896V32.912H66.0056V42H63.4136ZM78.6643 30.8H81.2563V42H78.6643V30.8ZM73.5763 42H70.9843V30.8H73.5763V42ZM78.8563 37.408H73.3843V35.216H78.8563V37.408ZM89.3461 42.192C88.4608 42.192 87.6395 42.048 86.8821 41.76C86.1355 41.472 85.4848 41.0667 84.9301 40.544C84.3861 40.0213 83.9595 39.408 83.6501 38.704C83.3515 38 83.2021 37.232 83.2021 36.4C83.2021 35.568 83.3515 34.8 83.6501 34.096C83.9595 33.392 84.3915 32.7787 84.9461 32.256C85.5008 31.7333 86.1515 31.328 86.8981 31.04C87.6448 30.752 88.4555 30.608 89.3301 30.608C90.2155 30.608 91.0261 30.752 91.7621 31.04C92.5088 31.328 93.1541 31.7333 93.6981 32.256C94.2528 32.7787 94.6848 33.392 94.9941 34.096C95.3035 34.7893 95.4581 35.5573 95.4581 36.4C95.4581 37.232 95.3035 38.0053 94.9941 38.72C94.6848 39.424 94.2528 40.0373 93.6981 40.56C93.1541 41.072 92.5088 41.472 91.7621 41.76C91.0261 42.048 90.2208 42.192 89.3461 42.192ZM89.3301 39.984C89.8315 39.984 90.2901 39.8987 90.7061 39.728C91.1328 39.5573 91.5061 39.312 91.8261 38.992C92.1461 38.672 92.3915 38.2933 92.5621 37.856C92.7435 37.4187 92.8341 36.9333 92.8341 36.4C92.8341 35.8667 92.7435 35.3813 92.5621 34.944C92.3915 34.5067 92.1461 34.128 91.8261 33.808C91.5168 33.488 91.1488 33.2427 90.7221 33.072C90.2955 32.9013 89.8315 32.816 89.3301 32.816C88.8288 32.816 88.3648 32.9013 87.9381 33.072C87.5221 33.2427 87.1541 33.488 86.8341 33.808C86.5141 34.128 86.2635 34.5067 86.0821 34.944C85.9115 35.3813 85.8261 35.8667 85.8261 36.4C85.8261 36.9227 85.9115 37.408 86.0821 37.856C86.2635 38.2933 86.5088 38.672 86.8181 38.992C87.1381 39.312 87.5115 39.5573 87.9381 39.728C88.3648 39.8987 88.8288 39.984 89.3301 39.984ZM97.4061 42V30.8H99.5501L106.158 38.864H105.118V30.8H107.678V42H105.55L98.9261 33.936H99.9661V42H97.4061ZM114.363 38.496V36.496H118.891V38.496H114.363ZM124.762 42V40.32L129.082 36.24C129.424 35.9307 129.674 35.6533 129.834 35.408C129.994 35.1627 130.101 34.9387 130.154 34.736C130.218 34.5333 130.25 34.3467 130.25 34.176C130.25 33.728 130.096 33.3867 129.786 33.152C129.488 32.9067 129.045 32.784 128.458 32.784C127.989 32.784 127.552 32.8747 127.146 33.056C126.752 33.2373 126.416 33.52 126.138 33.904L124.25 32.688C124.677 32.048 125.274 31.5413 126.042 31.168C126.81 30.7947 127.696 30.608 128.698 30.608C129.53 30.608 130.256 30.7467 130.874 31.024C131.504 31.2907 131.989 31.6693 132.33 32.16C132.682 32.6507 132.858 33.2373 132.858 33.92C132.858 34.2827 132.81 34.6453 132.714 35.008C132.629 35.36 132.448 35.7333 132.17 36.128C131.904 36.5227 131.509 36.9653 130.986 37.456L127.402 40.832L126.906 39.888H133.226V42H124.762ZM139.096 42.192C138.179 42.192 137.357 41.968 136.632 41.52C135.907 41.0613 135.336 40.4 134.92 39.536C134.504 38.672 134.296 37.6267 134.296 36.4C134.296 35.1733 134.504 34.128 134.92 33.264C135.336 32.4 135.907 31.744 136.632 31.296C137.357 30.8373 138.179 30.608 139.096 30.608C140.024 30.608 140.845 30.8373 141.56 31.296C142.285 31.744 142.856 32.4 143.272 33.264C143.688 34.128 143.896 35.1733 143.896 36.4C143.896 37.6267 143.688 38.672 143.272 39.536C142.856 40.4 142.285 41.0613 141.56 41.52C140.845 41.968 140.024 42.192 139.096 42.192ZM139.096 40C139.533 40 139.912 39.8773 140.232 39.632C140.563 39.3867 140.819 38.9973 141 38.464C141.192 37.9307 141.288 37.2427 141.288 36.4C141.288 35.5573 141.192 34.8693 141 34.336C140.819 33.8027 140.563 33.4133 140.232 33.168C139.912 32.9227 139.533 32.8 139.096 32.8C138.669 32.8 138.291 32.9227 137.96 33.168C137.64 33.4133 137.384 33.8027 137.192 34.336C137.011 34.8693 136.92 35.5573 136.92 36.4C136.92 37.2427 137.011 37.9307 137.192 38.464C137.384 38.9973 137.64 39.3867 137.96 39.632C138.291 39.8773 138.669 40 139.096 40ZM144.997 42V40.32L149.317 36.24C149.658 35.9307 149.909 35.6533 150.069 35.408C150.229 35.1627 150.335 34.9387 150.389 34.736C150.453 34.5333 150.485 34.3467 150.485 34.176C150.485 33.728 150.33 33.3867 150.021 33.152C149.722 32.9067 149.279 32.784 148.693 32.784C148.223 32.784 147.786 32.8747 147.381 33.056C146.986 33.2373 146.65 33.52 146.373 33.904L144.485 32.688C144.911 32.048 145.509 31.5413 146.277 31.168C147.045 30.7947 147.93 30.608 148.933 30.608C149.765 30.608 150.49 30.7467 151.109 31.024C151.738 31.2907 152.223 31.6693 152.565 32.16C152.917 32.6507 153.093 33.2373 153.093 33.92C153.093 34.2827 153.045 34.6453 152.949 35.008C152.863 35.36 152.682 35.7333 152.405 36.128C152.138 36.5227 151.743 36.9653 151.221 37.456L147.637 40.832L147.141 39.888H153.461V42H144.997ZM158.162 42.192C157.384 42.192 156.61 42.0907 155.842 41.888C155.074 41.6747 154.424 41.376 153.89 40.992L154.898 39.008C155.325 39.3173 155.821 39.5627 156.386 39.744C156.952 39.9253 157.522 40.016 158.098 40.016C158.749 40.016 159.261 39.888 159.634 39.632C160.008 39.376 160.194 39.024 160.194 38.576C160.194 38.1493 160.029 37.8133 159.698 37.568C159.368 37.3227 158.834 37.2 158.098 37.2H156.914V35.488L160.034 31.952L160.322 32.88H154.45V30.8H162.29V32.48L159.186 36.016L157.874 35.264H158.626C160.002 35.264 161.042 35.5733 161.746 36.192C162.45 36.8107 162.802 37.6053 162.802 38.576C162.802 39.2053 162.637 39.7973 162.306 40.352C161.976 40.896 161.469 41.3387 160.786 41.68C160.104 42.0213 159.229 42.192 158.162 42.192Z" fill="white"/>
</svg>
