<svg width="1223" height="552" viewBox="0 0 1223 552" fill="none" xmlns="http://www.w3.org/2000/svg">
<g filter="url(#filter0_d_159_1100)">
<rect x="359.5" y="23.5" width="461" height="153" rx="76.5" stroke="#217AFF" stroke-width="3" shape-rendering="crispEdges"/>
</g>
<g filter="url(#filter1_d_159_1100)">
<rect x="23.5" y="375.5" width="950" height="153" rx="76.5" stroke="#217AFF" stroke-width="3" shape-rendering="crispEdges"/>
</g>
<g filter="url(#filter2_d_159_1100)">
<rect x="211.5" y="199.5" width="514" height="153" rx="76.5" stroke="#25DFB3" stroke-width="3" shape-rendering="crispEdges"/>
</g>
<g filter="url(#filter3_d_159_1100)">
<rect x="23.5" y="23.5" width="333" height="153" rx="76.5" stroke="#25DFB3" stroke-width="3" shape-rendering="crispEdges"/>
</g>
<path d="M102.87 134.72H164.69V142.75H102.87V134.72ZM98.69 102.49H169.2V148.47H160.51V110.3H107.05V148.8H98.69V102.49ZM144.89 64.43L151.27 60.14C162.05 69.49 175.03 83.13 180.75 92.26L173.6 97.43C168.21 88.08 155.67 74.22 144.89 64.43ZM92.75 93.14C92.42 91.38 90.99 87.2 90 85C92.53 84.56 95.39 82.14 99.02 78.51C103.09 74.88 115.96 60.91 124.54 47.27L132.79 50.79C122.23 65.42 109.91 79.06 98.25 88.74V88.96C98.25 88.96 92.75 91.49 92.75 93.14ZM92.75 93.14L92.64 86.65L98.8 83.57L169.2 80.27C169.31 82.58 169.64 85.88 170.08 87.64C103.75 91.38 97.15 91.6 92.75 93.14ZM196.04 75.54H228.38V83.79H196.04V75.54ZM251.15 49.69H259.62V129.77C259.62 135.38 260.39 136.37 264.68 136.37C266.55 136.37 275.46 136.37 277.77 136.37C282.72 136.37 283.38 130.98 284.04 109.86C286.24 111.62 289.76 113.38 292.07 113.82C291.19 136.59 289.1 144.4 278.43 144.4C276.34 144.4 265.67 144.4 263.69 144.4C254.01 144.4 251.15 141.32 251.15 129.66V49.69ZM223.98 49.69H232.45V131.09H223.98V49.69ZM192.63 139.45C204.4 135.49 223.43 128.23 240.81 121.41L242.35 128.67C226.4 135.49 209.24 142.64 196.48 147.7L192.63 139.45ZM255.55 75.54H290.64V83.68H255.55V75.54Z" fill="white"/>
<path d="M317.502 245.04H290.442V238H352.702V245.04H325.642V315H317.502V245.04ZM410.129 294.43H367.229L357.989 315H349.519L384.719 238H392.749L427.949 315H419.369L410.129 294.43ZM407.159 287.83L388.679 246.47L370.199 287.83H407.159ZM440.686 238H448.826V315H440.686V238ZM502.7 238C512.527 238 520.227 240.347 525.8 245.04C531.373 249.733 534.16 256.187 534.16 264.4C534.16 272.613 531.373 279.067 525.8 283.76C520.227 288.38 512.527 290.69 502.7 290.69H482.02V315H473.88V238H502.7ZM502.48 283.54C510.107 283.54 515.937 281.89 519.97 278.59C524.003 275.217 526.02 270.487 526.02 264.4C526.02 258.167 524.003 253.4 519.97 250.1C515.937 246.727 510.107 245.04 502.48 245.04H482.02V283.54H502.48ZM606.211 307.96V315H551.761V238H604.561V245.04H559.901V272.43H599.721V279.36H559.901V307.96H606.211ZM625.345 238H633.485V315H625.345V238Z" fill="white"/>
<path d="M203.75 414V491H185.93V459.43H150.95V491H133.13V414H150.95V444.36H185.93V414H203.75ZM272.678 474.5H236.928L230.108 491H211.848L246.168 414H263.768L298.198 491H279.498L272.678 474.5ZM267.068 460.97L254.858 431.49L242.648 460.97H267.068ZM341.962 492.32C334.116 492.32 327.002 490.633 320.622 487.26C314.316 483.813 309.329 479.083 305.662 473.07C302.069 466.983 300.272 460.127 300.272 452.5C300.272 444.873 302.069 438.053 305.662 432.04C309.329 425.953 314.316 421.223 320.622 417.85C327.002 414.403 334.152 412.68 342.072 412.68C348.746 412.68 354.759 413.853 360.112 416.2C365.539 418.547 370.086 421.92 373.752 426.32L362.312 436.88C357.106 430.867 350.652 427.86 342.952 427.86C338.186 427.86 333.932 428.923 330.192 431.05C326.452 433.103 323.519 436 321.392 439.74C319.339 443.48 318.312 447.733 318.312 452.5C318.312 457.267 319.339 461.52 321.392 465.26C323.519 469 326.452 471.933 330.192 474.06C333.932 476.113 338.186 477.14 342.952 477.14C350.652 477.14 357.106 474.097 362.312 468.01L373.752 478.57C370.086 483.043 365.539 486.453 360.112 488.8C354.686 491.147 348.636 492.32 341.962 492.32ZM413.836 460.75L403.496 471.53V491H385.786V414H403.496V449.97L437.596 414H457.396L425.496 448.32L459.266 491H438.476L413.836 460.75ZM514.485 474.5H478.735L471.915 491H453.655L487.975 414H505.575L540.005 491H521.305L514.485 474.5ZM508.875 460.97L496.665 431.49L484.455 460.97H508.875ZM560.076 428.52H535.436V414H602.536V428.52H577.896V491H560.076V428.52ZM682.744 414V491H664.924V459.43H629.944V491H612.124V414H629.944V444.36H664.924V414H682.744ZM738.252 492.32C730.259 492.32 723.035 490.597 716.582 487.15C710.202 483.703 705.179 478.973 701.512 472.96C697.919 466.873 696.122 460.053 696.122 452.5C696.122 444.947 697.919 438.163 701.512 432.15C705.179 426.063 710.202 421.297 716.582 417.85C723.035 414.403 730.259 412.68 738.252 412.68C746.245 412.68 753.432 414.403 759.812 417.85C766.192 421.297 771.215 426.063 774.882 432.15C778.549 438.163 780.382 444.947 780.382 452.5C780.382 460.053 778.549 466.873 774.882 472.96C771.215 478.973 766.192 483.703 759.812 487.15C753.432 490.597 746.245 492.32 738.252 492.32ZM738.252 477.14C742.799 477.14 746.905 476.113 750.572 474.06C754.239 471.933 757.099 469 759.152 465.26C761.279 461.52 762.342 457.267 762.342 452.5C762.342 447.733 761.279 443.48 759.152 439.74C757.099 436 754.239 433.103 750.572 431.05C746.905 428.923 742.799 427.86 738.252 427.86C733.705 427.86 729.599 428.923 725.932 431.05C722.265 433.103 719.369 436 717.242 439.74C715.189 443.48 714.162 447.733 714.162 452.5C714.162 457.267 715.189 461.52 717.242 465.26C719.369 469 722.265 471.933 725.932 474.06C729.599 476.113 733.705 477.14 738.252 477.14ZM864.395 414V491H849.765L811.375 444.25V491H793.775V414H808.515L846.795 460.75V414H864.395Z" fill="white"/>
<circle cx="847" cy="98" r="35" fill="#217AFF"/>
<circle cx="897" cy="98" r="35" fill="#EFB829"/>
<circle cx="947" cy="98" r="35" fill="#25DFB3"/>
<path d="M454.58 62.12V81.37H502.87V62.12H454.58ZM439.4 49.36H519.04V94.13H439.4V49.36ZM455.02 66.41L464.7 63C467.23 67.4 469.43 73.23 470.09 77.19L459.75 81.04C459.31 77.19 457.33 71.03 455.02 66.41ZM437.97 97.32H520.25V109.64H437.97V97.32ZM429.5 112.72H528.61V126.58H429.5V112.72ZM470.86 54.64H486.92V119.98H470.86V54.64ZM492.31 62.56L503.97 66.52C501.44 72.02 499.13 77.41 497.26 81.15L487.47 77.52C489.23 73.45 491.32 67.07 492.31 62.56ZM458.87 130.87L473.83 129.44C474.93 135.38 475.81 143.19 475.81 147.92L459.97 149.79C460.08 144.95 459.75 137.03 458.87 130.87ZM480.76 131.42L495.94 128.34C498.25 134.06 500.67 141.43 501.44 146.27L485.27 149.9C484.72 145.17 482.74 137.36 480.76 131.42ZM502.1 130.65L517.17 125.81C521.79 131.75 527.73 139.89 530.37 145.5L514.2 151C512.11 145.61 506.61 136.92 502.1 130.65ZM439.29 126.03L455.13 129.88C452.82 137.47 448.42 145.61 443.47 150.89L427.96 144.29C432.47 140.33 436.87 132.96 439.29 126.03ZM575.36 67.29L592.3 70.7C583.5 83.24 572.17 92.81 554.79 100.51C552.7 96.77 547.75 91.05 544.34 88.52C559.96 83.13 569.86 75.43 575.36 67.29ZM581.52 74.22H611.33V85.99H570.85L581.52 74.22ZM606.49 74.22H609.57L612.21 73.56L623.1 79.94C608.36 105.13 577.34 117.89 543.9 123.72C542.47 119.65 539.17 113.05 536.42 109.53C567.11 105.57 596.15 94.46 606.49 76.42V74.22ZM574.37 83.02C587.02 96 612.1 103.81 641.91 106.23C638.39 109.97 633.88 117.23 631.68 121.74C600.99 117.78 576.79 107.55 560.51 89.07L574.37 83.02ZM556.44 115.69H622.22V150.23H605.72V128.67H572.06V150.56H556.44V115.69ZM565.9 134.28H613.97V147.26H565.9V134.28ZM541.26 54.42H637.07V80.82H620.68V68.83H556.88V80.82H541.26V54.42ZM577.78 48.15L593.84 44.41C596.37 49.25 600 55.96 601.76 60.14L584.82 64.43C583.39 60.36 580.2 53.32 577.78 48.15ZM647.74 66.74H687.89V81.48H647.74V66.74ZM661.16 45.95H675.57V150.45H661.16V45.95ZM661.05 78.07L669.3 81.48C666.44 99.85 660.39 121.19 652.8 132.74C651.37 128.12 647.96 120.75 645.43 116.35C652.58 107.44 658.41 91.05 661.05 78.07ZM675.02 83.9C677.88 87.09 687.67 101.06 689.76 104.36L680.63 115.14C677.99 107.99 671.72 95.56 668.09 89.51L675.02 83.9ZM689.87 146.49C689.1 143.41 686.57 135.82 684.92 131.64C687.78 130.76 689.76 128.12 692.73 123.06C695.81 118.22 704.28 99.52 709.23 81.7L725.29 85.55C718.58 105.35 708.9 124.38 700.43 137.91V138.13C700.43 138.13 689.87 143.74 689.87 146.49ZM689.87 146.49L689.21 133.84L696.69 128.78L738.16 124.27C738.27 128.56 739.37 134.72 740.14 138.02C700.65 143.3 694.38 144.29 689.87 146.49ZM721.88 111.07L735.52 105.35C740.69 117.23 747.84 133.18 751.03 142.86L736.29 149.9C733.54 139.89 726.94 123.5 721.88 111.07ZM697.24 49.36L712.2 52.44C708.68 71.36 702.52 91.38 694.16 103.92C692.18 100.73 686.79 94.13 683.71 91.16C690.42 81.15 694.82 65.2 697.24 49.36ZM718.58 48.81H734.53C737.28 64.32 743.33 81.04 751.69 90.72C748.28 93.58 742.67 99.74 740.03 103.7C731.01 90.94 724.63 72.35 721.22 56.07H718.58V48.81ZM714.29 48.81H732.22V62.01H714.29V48.81Z" fill="white"/>
<g filter="url(#filter4_d_159_1100)">
<path d="M91 178L91 244C91 261.673 105.327 276 123 276L202 276" stroke="#25DFB3" stroke-width="2" stroke-linecap="round"/>
<circle cx="91" cy="178" r="7" transform="rotate(90 91 178)" fill="white" stroke="#25DFB3" stroke-width="2"/>
<path d="M200.5 268C200.5 268 203 272.667 209 276C203 279.333 200.5 284 200.5 284" stroke="#25DFB3" stroke-width="2" stroke-linecap="round" stroke-linejoin="round"/>
<path d="M209 276L197.5 276" stroke="#25DFB3" stroke-width="2" stroke-linecap="round"/>
</g>
<path d="M879.5 272C879.5 272 882 276.667 888 280C882 283.333 879.5 288 879.5 288" stroke="#EFB829" stroke-width="2" stroke-linecap="round" stroke-linejoin="round"/>
<path d="M888 280H876" stroke="#EFB829" stroke-width="2" stroke-linecap="round"/>
<path d="M727 280L881 280" stroke="#EFB829" stroke-width="2" stroke-linecap="round" stroke-dasharray="6 8"/>
<circle cx="727" cy="280" r="7" fill="white" stroke="#EFB829" stroke-width="2"/>
<g filter="url(#filter5_d_159_1100)">
<path d="M983.5 475C983.5 475 981 470.333 975 467C981 463.667 983.5 459 983.5 459" stroke="#25DFB3" stroke-width="2" stroke-linecap="round" stroke-linejoin="round"/>
<path d="M975 467H987" stroke="#25DFB3" stroke-width="2" stroke-linecap="round"/>
<path d="M978 98L1170 98C1187.67 98 1202 112.327 1202 130V282.5" stroke="#25DFB3" stroke-width="2" stroke-linecap="round"/>
<circle cx="974" cy="98" r="7" fill="white" stroke="#25DFB3" stroke-width="2"/>
<path d="M978 467L1170 467C1187.67 467 1202 452.673 1202 435V282.5" stroke="#25DFB3" stroke-width="2" stroke-linecap="round"/>
</g>
<path d="M969.82 300.48H972.82V297.48H969.82V300.48ZM969.82 315V318H972.82V315H969.82ZM911.63 315H908.63V318H911.63V315ZM911.63 303.45L909.57 301.269L908.63 302.157V303.45H911.63ZM941.33 275.4L943.39 277.581L943.395 277.576L943.4 277.571L941.33 275.4ZM947.71 267.7L950.375 269.078L950.384 269.06L950.393 269.042L947.71 267.7ZM946.17 254.17L944.266 256.488L944.311 256.525L944.357 256.56L946.17 254.17ZM927.91 253.62L929.163 256.346L929.193 256.332L929.222 256.318L927.91 253.62ZM921.09 259.34L919.466 261.862L921.869 263.41L923.531 261.084L921.09 259.34ZM908.11 250.98L905.62 249.306L903.914 251.846L906.486 253.502L908.11 250.98ZM920.54 240.53L921.821 243.243L921.836 243.236L921.852 243.228L920.54 240.53ZM953.65 239.54L952.423 242.278L952.451 242.29L952.48 242.302L953.65 239.54ZM963.66 247.46L961.18 249.148L961.201 249.179L961.222 249.209L963.66 247.46ZM964.65 271.22L967.355 272.518H967.355L964.65 271.22ZM954.42 283.76L952.38 281.56L952.37 281.569L952.361 281.579L954.42 283.76ZM936.71 300.48L934.651 298.299L929.162 303.48H936.71V300.48ZM966.82 300.48V315H972.82V300.48H966.82ZM969.82 312H911.63V318H969.82V312ZM914.63 315V303.45H908.63V315H914.63ZM913.69 305.631L943.39 277.581L939.27 273.219L909.57 301.269L913.69 305.631ZM943.4 277.571C946.631 274.491 949.044 271.65 950.375 269.078L945.045 266.322C944.176 268.003 942.336 270.296 939.26 273.229L943.4 277.571ZM950.393 269.042C951.669 266.49 952.36 263.87 952.36 261.21H946.36C946.36 262.803 945.951 264.51 945.027 266.358L950.393 269.042ZM952.36 261.21C952.36 257.355 950.979 254.053 947.983 251.78L944.357 256.56C945.614 257.514 946.36 258.905 946.36 261.21H952.36ZM948.074 251.852C945.268 249.547 941.424 248.64 937.04 248.64V254.64C940.723 254.64 942.965 255.42 944.266 256.488L948.074 251.852ZM937.04 248.64C933.266 248.64 929.766 249.381 926.598 250.922L929.222 256.318C931.481 255.219 934.067 254.64 937.04 254.64V248.64ZM926.657 250.894C923.442 252.371 920.768 254.629 918.649 257.596L923.531 261.084C925.078 258.918 926.951 257.362 929.163 256.346L926.657 250.894ZM922.714 256.818L909.734 248.458L906.486 253.502L919.466 261.862L922.714 256.818ZM910.6 252.654C913.28 248.666 916.988 245.525 921.821 243.243L919.259 237.817C913.532 240.522 908.954 244.347 905.62 249.306L910.6 252.654ZM921.852 243.228C926.662 240.89 932.251 239.68 938.69 239.68V233.68C931.489 233.68 924.978 235.037 919.228 237.832L921.852 243.228ZM938.69 239.68C944.081 239.68 948.633 240.579 952.423 242.278L954.877 236.802C950.161 234.688 944.739 233.68 938.69 233.68V239.68ZM952.48 242.302C956.345 243.94 959.198 246.237 961.18 249.148L966.14 245.772C963.429 241.79 959.608 238.806 954.82 236.778L952.48 242.302ZM961.222 249.209C963.236 252.015 964.29 255.383 964.29 259.45H970.29C970.29 254.277 968.924 249.651 966.098 245.711L961.222 249.209ZM964.29 259.45C964.29 263.193 963.505 266.672 961.945 269.922L967.355 272.518C969.315 268.435 970.29 264.067 970.29 259.45H964.29ZM961.945 269.922C960.424 273.092 957.329 276.97 952.38 281.56L956.46 285.96C961.631 281.163 965.356 276.681 967.355 272.518L961.945 269.922ZM952.361 281.579L934.651 298.299L938.769 302.661L956.479 285.941L952.361 281.579ZM936.71 303.48H969.82V297.48H936.71V303.48ZM992.908 311.59L994.511 309.054L992.908 311.59ZM981.138 297.95L978.416 299.211L978.425 299.231L978.435 299.251L981.138 297.95ZM981.138 255.16L978.429 253.871L978.425 253.879L978.422 253.886L981.138 255.16ZM992.908 241.41L994.511 243.946L992.908 241.41ZM1027.01 241.41L1025.4 243.946L1027.01 241.41ZM1038.67 255.16L1035.95 256.421L1035.96 256.441L1035.96 256.461L1038.67 255.16ZM1038.67 297.95L1035.96 296.661L1035.96 296.669L1035.95 296.676L1038.67 297.95ZM1027.01 311.59L1025.4 309.054L1027.01 311.59ZM1020.96 295.2L1018.47 293.525L1018.46 293.541L1018.45 293.557L1020.96 295.2ZM1020.96 257.8L1018.45 259.443L1018.46 259.459L1018.47 259.475L1020.96 257.8ZM998.958 257.8L996.469 256.125L996.458 256.141L996.448 256.157L998.958 257.8ZM998.958 295.2L996.448 296.843L996.458 296.859L996.469 296.875L998.958 295.2ZM1009.96 313.32C1004.1 313.32 998.979 311.88 994.511 309.054L991.305 314.126C996.81 317.607 1003.06 319.32 1009.96 319.32V313.32ZM994.511 309.054C990.054 306.236 986.487 302.144 983.841 296.649L978.435 299.251C981.509 305.636 985.789 310.638 991.305 314.126L994.511 309.054ZM983.86 296.689C981.296 291.157 979.958 284.457 979.958 276.5H973.958C973.958 285.116 975.406 292.717 978.416 299.211L983.86 296.689ZM979.958 276.5C979.958 268.541 981.297 261.885 983.854 256.434L978.422 253.886C975.406 260.315 973.958 267.885 973.958 276.5H979.958ZM983.847 256.449C986.496 250.879 990.063 246.758 994.511 243.946L991.305 238.874C985.779 242.368 981.5 247.414 978.429 253.871L983.847 256.449ZM994.511 243.946C998.979 241.12 1004.1 239.68 1009.96 239.68V233.68C1003.06 233.68 996.81 235.393 991.305 238.874L994.511 243.946ZM1009.96 239.68C1015.82 239.68 1020.94 241.12 1025.4 243.946L1028.61 238.874C1023.11 235.393 1016.86 233.68 1009.96 233.68V239.68ZM1025.4 243.946C1029.85 246.754 1033.37 250.865 1035.95 256.421L1041.39 253.899C1038.39 247.428 1034.14 242.373 1028.61 238.874L1025.4 243.946ZM1035.96 256.461C1038.59 261.905 1039.96 268.551 1039.96 276.5H1045.96C1045.96 267.875 1044.47 260.295 1041.37 253.859L1035.96 256.461ZM1039.96 276.5C1039.96 284.447 1038.59 291.137 1035.96 296.661L1041.38 299.239C1044.47 292.737 1045.96 285.126 1045.96 276.5H1039.96ZM1035.95 296.676C1033.38 302.158 1029.85 306.24 1025.4 309.054L1028.61 314.126C1034.13 310.633 1038.38 305.622 1041.38 299.224L1035.95 296.676ZM1025.4 309.054C1020.94 311.88 1015.82 313.32 1009.96 313.32V319.32C1016.86 319.32 1023.11 317.607 1028.61 314.126L1025.4 309.054ZM1009.96 304.25C1015.7 304.25 1020.29 301.695 1023.47 296.843L1018.45 293.557C1016.34 296.771 1013.61 298.25 1009.96 298.25V304.25ZM1023.45 296.875C1026.66 292.101 1028.03 285.142 1028.03 276.5H1022.03C1022.03 284.724 1020.68 290.233 1018.47 293.525L1023.45 296.875ZM1028.03 276.5C1028.03 267.858 1026.66 260.899 1023.45 256.125L1018.47 259.475C1020.68 262.767 1022.03 268.276 1022.03 276.5H1028.03ZM1023.47 256.157C1020.29 251.305 1015.7 248.75 1009.96 248.75V254.75C1013.61 254.75 1016.34 256.229 1018.45 259.443L1023.47 256.157ZM1009.96 248.75C1004.28 248.75 999.705 251.315 996.469 256.125L1001.45 259.475C1003.64 256.218 1006.4 254.75 1009.96 254.75V248.75ZM996.448 256.157C993.328 260.923 991.998 267.867 991.998 276.5H997.998C997.998 268.266 999.308 262.744 1001.47 259.443L996.448 256.157ZM991.998 276.5C991.998 285.133 993.328 292.077 996.448 296.843L1001.47 293.557C999.308 290.256 997.998 284.734 997.998 276.5H991.998ZM996.469 296.875C999.705 301.685 1004.28 304.25 1009.96 304.25V298.25C1006.4 298.25 1003.64 296.782 1001.45 293.525L996.469 296.875ZM1108.5 300.48H1111.5V297.48H1108.5V300.48ZM1108.5 315V318H1111.5V315H1108.5ZM1050.31 315H1047.31V318H1050.31V315ZM1050.31 303.45L1048.25 301.269L1047.31 302.157V303.45H1050.31ZM1080.01 275.4L1082.07 277.581L1082.08 277.576L1082.08 277.571L1080.01 275.4ZM1086.39 267.7L1089.06 269.078L1089.07 269.06L1089.07 269.042L1086.39 267.7ZM1084.85 254.17L1082.95 256.488L1082.99 256.525L1083.04 256.56L1084.85 254.17ZM1066.59 253.62L1067.84 256.346L1067.87 256.332L1067.9 256.318L1066.59 253.62ZM1059.77 259.34L1058.15 261.862L1060.55 263.41L1062.21 261.084L1059.77 259.34ZM1046.79 250.98L1044.3 249.306L1042.6 251.846L1045.17 253.502L1046.79 250.98ZM1059.22 240.53L1060.5 243.243L1060.52 243.236L1060.53 243.228L1059.22 240.53ZM1092.33 239.54L1091.1 242.278L1091.13 242.29L1091.16 242.302L1092.33 239.54ZM1102.34 247.46L1099.86 249.148L1099.88 249.179L1099.9 249.209L1102.34 247.46ZM1103.33 271.22L1106.04 272.518L1103.33 271.22ZM1093.1 283.76L1091.06 281.56L1091.05 281.569L1091.04 281.579L1093.1 283.76ZM1075.39 300.48L1073.33 298.299L1067.84 303.48H1075.39V300.48ZM1105.5 300.48V315H1111.5V300.48H1105.5ZM1108.5 312H1050.31V318H1108.5V312ZM1053.31 315V303.45H1047.31V315H1053.31ZM1052.37 305.631L1082.07 277.581L1077.95 273.219L1048.25 301.269L1052.37 305.631ZM1082.08 277.571C1085.31 274.491 1087.73 271.65 1089.06 269.078L1083.73 266.322C1082.86 268.003 1081.02 270.296 1077.94 273.229L1082.08 277.571ZM1089.07 269.042C1090.35 266.49 1091.04 263.87 1091.04 261.21H1085.04C1085.04 262.803 1084.63 264.51 1083.71 266.358L1089.07 269.042ZM1091.04 261.21C1091.04 257.355 1089.66 254.053 1086.66 251.78L1083.04 256.56C1084.3 257.514 1085.04 258.905 1085.04 261.21H1091.04ZM1086.76 251.852C1083.95 249.547 1080.11 248.64 1075.72 248.64V254.64C1079.4 254.64 1081.65 255.42 1082.95 256.488L1086.76 251.852ZM1075.72 248.64C1071.95 248.64 1068.45 249.381 1065.28 250.922L1067.9 256.318C1070.16 255.219 1072.75 254.64 1075.72 254.64V248.64ZM1065.34 250.894C1062.12 252.371 1059.45 254.629 1057.33 257.596L1062.21 261.084C1063.76 258.918 1065.63 257.362 1067.84 256.346L1065.34 250.894ZM1061.4 256.818L1048.42 248.458L1045.17 253.502L1058.15 261.862L1061.4 256.818ZM1049.28 252.654C1051.96 248.666 1055.67 245.525 1060.5 243.243L1057.94 237.817C1052.21 240.522 1047.64 244.347 1044.3 249.306L1049.28 252.654ZM1060.53 243.228C1065.34 240.89 1070.93 239.68 1077.37 239.68V233.68C1070.17 233.68 1063.66 235.037 1057.91 237.832L1060.53 243.228ZM1077.37 239.68C1082.76 239.68 1087.31 240.579 1091.1 242.278L1093.56 236.802C1088.84 234.688 1083.42 233.68 1077.37 233.68V239.68ZM1091.16 242.302C1095.03 243.94 1097.88 246.237 1099.86 249.148L1104.82 245.772C1102.11 241.79 1098.29 238.806 1093.5 236.778L1091.16 242.302ZM1099.9 249.209C1101.92 252.015 1102.97 255.383 1102.97 259.45H1108.97C1108.97 254.277 1107.61 249.651 1104.78 245.711L1099.9 249.209ZM1102.97 259.45C1102.97 263.193 1102.19 266.672 1100.63 269.922L1106.04 272.518C1108 268.435 1108.97 264.067 1108.97 259.45H1102.97ZM1100.63 269.922C1099.11 273.092 1096.01 276.97 1091.06 281.56L1095.14 285.96C1100.31 281.163 1104.04 276.681 1106.04 272.518L1100.63 269.922ZM1091.04 281.579L1073.33 298.299L1077.45 302.661L1095.16 285.941L1091.04 281.579ZM1075.39 303.48H1108.5V297.48H1075.39V303.48ZM1151.82 269.35L1149.57 267.371L1146 271.44L1151.34 272.311L1151.82 269.35ZM1167.33 276.94L1165.11 278.956L1165.12 278.966L1165.13 278.977L1167.33 276.94ZM1169.2 303.89L1171.75 305.484L1171.75 305.473L1171.76 305.462L1169.2 303.89ZM1158.42 312.91L1157.15 310.195L1157.14 310.198L1157.13 310.202L1158.42 312.91ZM1124.76 314.23L1123.95 317.118L1123.97 317.124L1124 317.131L1124.76 314.23ZM1111.45 308.07L1108.78 306.711L1107.62 309.003L1109.7 310.505L1111.45 308.07ZM1118.38 294.43L1120.18 292.03L1117.33 289.887L1115.71 293.071L1118.38 294.43ZM1128.5 299.6L1127.57 302.451L1127.6 302.462L1127.64 302.472L1128.5 299.6ZM1150.94 298.83L1152.59 301.337L1152.62 301.321L1152.64 301.304L1150.94 298.83ZM1132.24 282H1129.24V285H1132.24V282ZM1132.24 270.23L1130 268.244L1129.24 269.095V270.23H1132.24ZM1148.08 252.3L1150.33 254.286L1154.74 249.3H1148.08V252.3ZM1115.3 252.3H1112.3V255.3H1115.3V252.3ZM1115.3 238V235H1112.3V238H1115.3ZM1169.2 238H1172.2V235H1169.2V238ZM1169.2 249.55L1171.46 251.529L1172.2 250.68V249.55H1169.2ZM1151.34 272.311C1157.61 273.333 1162.09 275.624 1165.11 278.956L1169.56 274.924C1165.39 270.336 1159.53 267.567 1152.31 266.389L1151.34 272.311ZM1165.13 278.977C1168.16 282.254 1169.72 286.344 1169.72 291.46H1175.72C1175.72 284.989 1173.69 279.399 1169.54 274.903L1165.13 278.977ZM1169.72 291.46C1169.72 295.378 1168.71 298.977 1166.65 302.318L1171.76 305.462C1174.4 301.177 1175.72 296.489 1175.72 291.46H1169.72ZM1166.66 302.296C1164.68 305.454 1161.58 308.114 1157.15 310.195L1159.7 315.625C1164.95 313.16 1169.03 309.806 1171.75 305.484L1166.66 302.296ZM1157.13 310.202C1152.88 312.232 1147.48 313.32 1140.82 313.32V319.32C1148.1 319.32 1154.44 318.135 1159.72 315.618L1157.13 310.202ZM1140.82 313.32C1135.66 313.32 1130.56 312.657 1125.53 311.329L1124 317.131C1129.53 318.59 1135.14 319.32 1140.82 319.32V313.32ZM1125.58 311.342C1120.64 309.952 1116.54 308.035 1113.21 305.635L1109.7 310.505C1113.7 313.385 1118.47 315.574 1123.95 317.118L1125.58 311.342ZM1114.13 309.429L1121.06 295.789L1115.71 293.071L1108.78 306.711L1114.13 309.429ZM1116.58 296.83C1119.8 299.245 1123.48 301.112 1127.57 302.451L1129.44 296.749C1125.91 295.594 1122.83 294.015 1120.18 292.03L1116.58 296.83ZM1127.64 302.472C1131.8 303.73 1136.06 304.36 1140.38 304.36V298.36C1136.65 298.36 1132.98 297.817 1129.37 296.728L1127.64 302.472ZM1140.38 304.36C1145.19 304.36 1149.36 303.461 1152.59 301.337L1149.3 296.323C1147.4 297.573 1144.53 298.36 1140.38 298.36V304.36ZM1152.64 301.304C1156.04 298.976 1157.79 295.587 1157.79 291.46H1151.79C1151.79 293.64 1150.99 295.164 1149.25 296.356L1152.64 301.304ZM1157.79 291.46C1157.79 287.413 1156.18 284.05 1152.84 281.857C1149.72 279.809 1145.42 279 1140.38 279V285C1144.95 285 1147.86 285.767 1149.55 286.873C1151.01 287.834 1151.79 289.2 1151.79 291.46H1157.79ZM1140.38 279H1132.24V285H1140.38V279ZM1135.24 282V270.23H1129.24V282H1135.24ZM1134.49 272.216L1150.33 254.286L1145.84 250.314L1130 268.244L1134.49 272.216ZM1148.08 249.3H1115.3V255.3H1148.08V249.3ZM1118.3 252.3V238H1112.3V252.3H1118.3ZM1115.3 241H1169.2V235H1115.3V241ZM1166.2 238V249.55H1172.2V238H1166.2ZM1166.95 247.571L1149.57 267.371L1154.08 271.329L1171.46 251.529L1166.95 247.571Z" fill="white"/>
<defs>
<filter id="filter0_d_159_1100" x="336" y="0" width="508" height="200" filterUnits="userSpaceOnUse" color-interpolation-filters="sRGB">
<feFlood flood-opacity="0" result="BackgroundImageFix"/>
<feColorMatrix in="SourceAlpha" type="matrix" values="0 0 0 0 0 0 0 0 0 0 0 0 0 0 0 0 0 0 127 0" result="hardAlpha"/>
<feMorphology radius="2" operator="dilate" in="SourceAlpha" result="effect1_dropShadow_159_1100"/>
<feOffset/>
<feGaussianBlur stdDeviation="10"/>
<feComposite in2="hardAlpha" operator="out"/>
<feColorMatrix type="matrix" values="0 0 0 0 0.129167 0 0 0 0 0.4775 0 0 0 0 1 0 0 0 1 0"/>
<feBlend mode="normal" in2="BackgroundImageFix" result="effect1_dropShadow_159_1100"/>
<feBlend mode="normal" in="SourceGraphic" in2="effect1_dropShadow_159_1100" result="shape"/>
</filter>
<filter id="filter1_d_159_1100" x="0" y="352" width="997" height="200" filterUnits="userSpaceOnUse" color-interpolation-filters="sRGB">
<feFlood flood-opacity="0" result="BackgroundImageFix"/>
<feColorMatrix in="SourceAlpha" type="matrix" values="0 0 0 0 0 0 0 0 0 0 0 0 0 0 0 0 0 0 127 0" result="hardAlpha"/>
<feMorphology radius="2" operator="dilate" in="SourceAlpha" result="effect1_dropShadow_159_1100"/>
<feOffset/>
<feGaussianBlur stdDeviation="10"/>
<feComposite in2="hardAlpha" operator="out"/>
<feColorMatrix type="matrix" values="0 0 0 0 0.129167 0 0 0 0 0.4775 0 0 0 0 1 0 0 0 1 0"/>
<feBlend mode="normal" in2="BackgroundImageFix" result="effect1_dropShadow_159_1100"/>
<feBlend mode="normal" in="SourceGraphic" in2="effect1_dropShadow_159_1100" result="shape"/>
</filter>
<filter id="filter2_d_159_1100" x="190" y="178" width="557" height="196" filterUnits="userSpaceOnUse" color-interpolation-filters="sRGB">
<feFlood flood-opacity="0" result="BackgroundImageFix"/>
<feColorMatrix in="SourceAlpha" type="matrix" values="0 0 0 0 0 0 0 0 0 0 0 0 0 0 0 0 0 0 127 0" result="hardAlpha"/>
<feOffset/>
<feGaussianBlur stdDeviation="10"/>
<feComposite in2="hardAlpha" operator="out"/>
<feColorMatrix type="matrix" values="0 0 0 0 0.145833 0 0 0 0 0.875 0 0 0 0 0.7 0 0 0 1 0"/>
<feBlend mode="normal" in2="BackgroundImageFix" result="effect1_dropShadow_159_1100"/>
<feBlend mode="normal" in="SourceGraphic" in2="effect1_dropShadow_159_1100" result="shape"/>
</filter>
<filter id="filter3_d_159_1100" x="2" y="2" width="376" height="196" filterUnits="userSpaceOnUse" color-interpolation-filters="sRGB">
<feFlood flood-opacity="0" result="BackgroundImageFix"/>
<feColorMatrix in="SourceAlpha" type="matrix" values="0 0 0 0 0 0 0 0 0 0 0 0 0 0 0 0 0 0 127 0" result="hardAlpha"/>
<feOffset/>
<feGaussianBlur stdDeviation="10"/>
<feComposite in2="hardAlpha" operator="out"/>
<feColorMatrix type="matrix" values="0 0 0 0 0.145833 0 0 0 0 0.875 0 0 0 0 0.7 0 0 0 1 0"/>
<feBlend mode="normal" in2="BackgroundImageFix" result="effect1_dropShadow_159_1100"/>
<feBlend mode="normal" in="SourceGraphic" in2="effect1_dropShadow_159_1100" result="shape"/>
</filter>
<filter id="filter4_d_159_1100" x="63" y="150" width="167" height="155" filterUnits="userSpaceOnUse" color-interpolation-filters="sRGB">
<feFlood flood-opacity="0" result="BackgroundImageFix"/>
<feColorMatrix in="SourceAlpha" type="matrix" values="0 0 0 0 0 0 0 0 0 0 0 0 0 0 0 0 0 0 127 0" result="hardAlpha"/>
<feOffset/>
<feGaussianBlur stdDeviation="10"/>
<feComposite in2="hardAlpha" operator="out"/>
<feColorMatrix type="matrix" values="0 0 0 0 0.145833 0 0 0 0 0.875 0 0 0 0 0.7 0 0 0 1 0"/>
<feBlend mode="normal" in2="BackgroundImageFix" result="effect1_dropShadow_159_1100"/>
<feBlend mode="normal" in="SourceGraphic" in2="effect1_dropShadow_159_1100" result="shape"/>
</filter>
<filter id="filter5_d_159_1100" x="946" y="70" width="277" height="426" filterUnits="userSpaceOnUse" color-interpolation-filters="sRGB">
<feFlood flood-opacity="0" result="BackgroundImageFix"/>
<feColorMatrix in="SourceAlpha" type="matrix" values="0 0 0 0 0 0 0 0 0 0 0 0 0 0 0 0 0 0 127 0" result="hardAlpha"/>
<feOffset/>
<feGaussianBlur stdDeviation="10"/>
<feComposite in2="hardAlpha" operator="out"/>
<feColorMatrix type="matrix" values="0 0 0 0 0.145833 0 0 0 0 0.875 0 0 0 0 0.7 0 0 0 1 0"/>
<feBlend mode="normal" in2="BackgroundImageFix" result="effect1_dropShadow_159_1100"/>
<feBlend mode="normal" in="SourceGraphic" in2="effect1_dropShadow_159_1100" result="shape"/>
</filter>
</defs>
</svg>
